<?xml version="1.0" standalone="no"?>
<!DOCTYPE svg PUBLIC "-//W3C//DTD SVG 1.1//EN" "http://www.w3.org/Graphics/SVG/1.1/DTD/svg11.dtd" >
<svg xmlns="http://www.w3.org/2000/svg" xmlns:xlink="http://www.w3.org/1999/xlink" version="1.1">
<metadata></metadata>
<defs>
<font id="azo_sansthin" horiz-adv-x="1249" >
<font-face units-per-em="2048" ascent="1581" descent="-467" />
<missing-glyph horiz-adv-x="509" />
<glyph unicode="&#xfb01;" horiz-adv-x="1081" d="M47 965v43h189v249q0 97 17 160t60 103q72 67 195 67q61 0 115 -14v-47q-53 16 -115 16q-126 0 -175.5 -70.5t-49.5 -211.5v-252h307v-43h-307v-965h-47v965h-189zM805 1364q0 22 15.5 37.5t37.5 15.5t37.5 -15.5t15.5 -37.5t-15.5 -37.5t-37.5 -15.5t-37.5 15.5 t-15.5 37.5zM836 0v1008h47v-1008h-47z" />
<glyph unicode="&#xfb02;" horiz-adv-x="1081" d="M47 965v43h189v249q0 97 17 160t60 103q72 67 195 67q61 0 115 -14v-47q-53 16 -115 16q-126 0 -175.5 -70.5t-49.5 -211.5v-252h307v-43h-307v-965h-47v965h-189zM836 0v1565h47v-1565h-47z" />
<glyph horiz-adv-x="2" />
<glyph horiz-adv-x="2" />
<glyph horiz-adv-x="682" />
<glyph unicode="&#xd;" horiz-adv-x="702" />
<glyph unicode=" "  horiz-adv-x="509" />
<glyph unicode="&#x09;" horiz-adv-x="509" />
<glyph unicode="&#xa0;" horiz-adv-x="509" />
<glyph unicode="!" horiz-adv-x="659" d="M264 43q0 28 19 47t47 19t46.5 -19t18.5 -47t-18.5 -47t-46.5 -19t-47 19t-19 47zM305 1483h49l-6 -1082h-37z" />
<glyph unicode="&#x22;" horiz-adv-x="677" d="M166 1520h55l-10 -519h-35zM457 1520h55l-10 -519h-35z" />
<glyph unicode="#" horiz-adv-x="1228" d="M39 502l12 43h291l115 393h-291l12 43h291l145 502h45l-145 -502h340l145 502h45l-145 -502h291l-12 -43h-291l-115 -393h291l-12 -43h-291l-146 -502h-45l146 502h-340l-146 -502h-45l146 502h-291zM387 545h340l115 393h-340z" />
<glyph unicode="$" horiz-adv-x="1122" d="M162 1065q0 148 103.5 232t277.5 89v252h45v-252q196 -9 350 -106v-57q-165 118 -383 118q-159 0 -252.5 -71.5t-93.5 -202.5q0 -34 7.5 -64t18 -52.5t31 -43t38 -35t47 -28t51 -21.5t57 -17.5t56.5 -14.5t58 -13q51 -11 80 -18t79 -23t80 -32t67 -43t58 -58t35.5 -76 t14.5 -98q0 -155 -108 -243t-291 -91v-252h-45v252q-103 5 -202.5 35t-168.5 80v57q83 -62 188.5 -94.5t214.5 -32.5q166 0 265.5 74.5t99.5 212.5q0 45 -12.5 83t-30.5 65.5t-50.5 50.5t-60 37.5t-72 29t-73 21.5t-76.5 18q-49 10 -78 17t-77 22t-77.5 30.5t-65.5 41 t-56.5 55.5t-34.5 72.5t-14 93.5z" />
<glyph unicode="%" horiz-adv-x="1908" d="M127 1122q0 160 101 271.5t243 111.5t243 -111.5t101 -271.5t-101 -271.5t-243 -111.5t-243 111.5t-101 271.5zM172 1122q0 -144 87.5 -242t211.5 -98t211.5 98t87.5 242t-87.5 242t-211.5 98t-211.5 -98t-87.5 -242zM446 0l965 1483h51l-964 -1483h-52zM1094 360 q0 160 101 271.5t243 111.5t243 -111.5t101 -271.5t-101 -271.5t-243 -111.5t-243 111.5t-101 271.5zM1139 360q0 -144 87.5 -242t211.5 -98t211.5 98t87.5 242t-87.5 242t-211.5 98t-211.5 -98t-87.5 -242z" />
<glyph unicode="&#x26;" horiz-adv-x="1411" d="M156 365q0 213 225 364l137 90l-84 84q-76 76 -114.5 146.5t-38.5 156.5q0 135 90 217t225 82q134 0 223.5 -81.5t89.5 -219.5q0 -92 -47.5 -165t-152.5 -142l-125 -84l473 -467l145 543h45l-153 -578l311 -307l-2 -4h-55l-271 266q-57 -133 -176 -211t-293 -78 q-209 0 -330.5 110.5t-121.5 277.5zM203 369q0 -153 109.5 -249.5t297.5 -96.5q158 0 268.5 71.5t163.5 206.5l-493 490l-135 -91q-110 -74 -160.5 -154.5t-50.5 -176.5zM328 1204q0 -135 133 -268l92 -92l135 90q79 52 126.5 115t47.5 155q0 115 -75.5 185.5t-192.5 70.5 q-116 0 -191 -70t-75 -186z" />
<glyph unicode="'" horiz-adv-x="387" d="M166 1520h55l-10 -519h-35z" />
<glyph unicode="(" horiz-adv-x="610" d="M188 543q0 306 84.5 556t216.5 423h52q-138 -179 -223 -431.5t-85 -547.5t85 -547.5t223 -431.5h-52q-132 173 -216.5 423t-84.5 556z" />
<glyph unicode=")" horiz-adv-x="610" d="M70 -436q138 179 222.5 431.5t84.5 547.5t-84.5 547.5t-222.5 431.5h51q132 -173 216.5 -423t84.5 -556t-84.5 -556t-216.5 -423h-51z" />
<glyph unicode="*" horiz-adv-x="954" d="M80 1194l14 47l324 -113l-10 -34zM213 772l207 275l31 -21l-197 -281zM453 1497h49l-6 -342h-37zM504 1026l31 21l206 -275l-41 -27zM537 1128l323 113l14 -47l-327 -100z" />
<glyph unicode="+" horiz-adv-x="1183" d="M111 721v43h458v479h45v-479h459v-43h-459v-483h-45v483h-458z" />
<glyph unicode="," horiz-adv-x="622" d="M172 -301l123 534h55l-141 -534h-37z" />
<glyph unicode="-" horiz-adv-x="749" d="M141 545v45h467v-45h-467z" />
<glyph unicode="." horiz-adv-x="622" d="M246 43q0 28 18.5 47t46.5 19t47 -19t19 -47t-19 -47t-47 -19t-46.5 19t-18.5 47z" />
<glyph unicode="/" horiz-adv-x="872" d="M66 -78l692 1639h49l-692 -1639h-49z" />
<glyph unicode="0" horiz-adv-x="1210" d="M147 741q0 380 115 566q56 91 143 144.5t201 53.5q219 0 342 -198q115 -186 115 -566q0 -379 -115 -565q-56 -91 -142 -145t-200 -54t-201 54t-143 145q-115 186 -115 565zM195 741q0 -371 106 -540q115 -178 305 -178q191 0 303 178q107 171 107 540q0 370 -107 541 q-112 178 -303 178q-190 0 -305 -178q-106 -169 -106 -541z" />
<glyph unicode="1" horiz-adv-x="1009" d="M176 1278v45l428 182v-1505h-45v1440z" />
<glyph unicode="2" horiz-adv-x="1120" d="M78 4l516 582q136 151 205 272t69 254q0 166 -107 257t-265 91q-175 0 -310 -119v58q60 48 143.5 77t170.5 29q84 0 158.5 -25.5t132 -73.5t91 -124t33.5 -170q0 -136 -69.5 -263.5t-212.5 -287.5l-457 -514l2 -2h809v-45h-907z" />
<glyph unicode="3" horiz-adv-x="1079" d="M117 129v68q76 -86 184 -130t219 -44q170 0 280.5 96t110.5 258q0 155 -103 251.5t-286 96.5h-133v43h121q160 0 261 98.5t101 251.5q0 155 -104 248.5t-264 93.5q-149 0 -273 -82v52q123 75 275 75q182 0 298 -108t116 -275q0 -125 -68.5 -228t-204.5 -142v-2 q151 -28 231 -132.5t80 -242.5q0 -172 -121.5 -285t-320.5 -113q-120 0 -225.5 42t-173.5 110z" />
<glyph unicode="4" horiz-adv-x="1259" d="M66 430l774 1053h47v-1012h330v-45h-330v-426h-47v426h-772zM154 473l2 -2h684v932h-2z" />
<glyph unicode="5" horiz-adv-x="1081" d="M109 51l4 49q158 -77 327 -77q211 0 338 104t127 272q0 85 -33.5 153t-88 111.5t-129 72t-151 40.5t-159.5 12q-86 0 -166 -12l53 707h676l-4 -45h-629l-45 -613q62 6 119 6q86 0 167.5 -12.5t162 -44t140.5 -79t97 -123.5t37 -171q0 -185 -139.5 -304.5t-374.5 -119.5 q-178 0 -329 74z" />
<glyph unicode="6" horiz-adv-x="1153" d="M119 426q0 105 33 201t110 233l342 623h53l-356 -643q-85 -155 -102 -205l2 -2q60 94 161 146t222 52q188 0 315 -121t127 -302q0 -184 -129 -307.5t-326 -123.5q-102 0 -188 37t-143 99t-89 143t-32 170zM166 414q0 -74 28 -143.5t78.5 -125t128.5 -89t170 -33.5 q108 0 199.5 44.5t149 132.5t57.5 203q0 164 -111.5 272.5t-281.5 108.5q-113 0 -208.5 -47.5t-152.5 -133t-57 -189.5z" />
<glyph unicode="7" horiz-adv-x="1103" d="M113 1438v45h884l2 -4l-647 -1479h-49l629 1438h-819z" />
<glyph unicode="8" horiz-adv-x="1177" d="M133 389q0 141 85 248t239 149v2q-133 37 -210 129.5t-77 219.5q0 160 117.5 264t300.5 104t301.5 -104t118.5 -264q0 -127 -76 -219.5t-209 -129.5v-2q154 -42 237.5 -149t83.5 -248q0 -176 -127 -294t-329 -118q-201 0 -328 118t-127 294zM180 387q0 -164 117.5 -265.5 t290.5 -101.5q174 0 291.5 101.5t117.5 265.5q0 110 -55.5 197.5t-149 134.5t-204.5 47q-171 0 -289.5 -106.5t-118.5 -272.5zM217 1137q0 -145 107 -236.5t264 -91.5q158 0 265.5 91.5t107.5 236.5t-106 235t-267 90q-160 0 -265.5 -90t-105.5 -235z" />
<glyph unicode="9" horiz-adv-x="1124" d="M106 1077q0 183 129.5 305.5t319.5 122.5t319.5 -125.5t129.5 -316.5q0 -181 -154 -422l-414 -641h-55l436 672q52 81 78 137l-2 2q-56 -71 -147 -113.5t-199 -42.5q-190 0 -315.5 121.5t-125.5 300.5zM154 1079q0 -162 111 -270.5t282 -108.5q174 0 290.5 113t116.5 266 q0 152 -113 266.5t-284 114.5q-107 0 -198 -45t-148 -133.5t-57 -202.5z" />
<glyph unicode=":" horiz-adv-x="622" d="M246 43q0 28 18.5 47t46.5 19t47 -19t19 -47t-19 -47t-47 -19t-46.5 19t-18.5 47zM246 965q0 28 18.5 46.5t46.5 18.5t47 -18.5t19 -46.5t-19 -47t-47 -19t-46.5 19t-18.5 47z" />
<glyph unicode=";" horiz-adv-x="622" d="M172 -301l123 534h55l-141 -534h-37zM246 965q0 28 18.5 46.5t46.5 18.5t47 -18.5t19 -46.5t-19 -47t-47 -19t-46.5 19t-18.5 47z" />
<glyph unicode="&#x3c;" horiz-adv-x="1343" d="M201 723v35l942 454v-47l-879 -424v-2l879 -424v-47z" />
<glyph unicode="=" horiz-adv-x="1183" d="M111 528v43h962v-43h-962zM111 911v43h962v-43h-962z" />
<glyph unicode="&#x3e;" horiz-adv-x="1343" d="M201 268v47l878 424v2l-878 424v47l942 -454v-35z" />
<glyph unicode="?" horiz-adv-x="954" d="M121 1440q120 65 260 65q188 0 316 -121.5t128 -302.5q0 -123 -63.5 -221.5t-168.5 -153.5t-233 -63l27 -266h-45l-33 305q200 0 334.5 111t134.5 288q0 163 -112.5 271t-288.5 108q-133 0 -250 -69zM334 43q0 28 18.5 47t46.5 19t47 -19t19 -47t-19 -47t-47 -19 t-46.5 19t-18.5 47z" />
<glyph unicode="@" horiz-adv-x="1685" d="M94 506q0 156 56 296t154 242.5t238.5 163t301.5 60.5q160 0 300 -60.5t237.5 -163t153.5 -243t56 -297.5q0 -80 -16.5 -149t-49 -124.5t-88.5 -87.5t-130 -32t-137 37.5t-83 113.5h-2q-55 -72 -134 -112.5t-160 -40.5q-135 0 -225.5 95.5t-90.5 250.5q0 112 47 212.5 t139.5 166t210.5 65.5q129 0 246 -80l47 8l-41 -444q-2 -20 -2 -49q0 -84 50 -132t139 -48q108 0 170.5 86t62.5 258q0 204 -90.5 370t-250.5 260.5t-359 94.5q-148 0 -279 -55.5t-224 -151.5t-146.5 -228.5t-53.5 -281.5q0 -201 92 -366.5t254 -260t359 -94.5 q271 0 457 168l26 -39q-98 -83 -223.5 -128.5t-263.5 -45.5q-159 0 -298.5 60.5t-238 164t-155 244.5t-56.5 297zM522 459q0 -136 75.5 -220.5t197.5 -84.5q173 0 282 165q0 32 2 50l37 399q-113 86 -244 86q-152 0 -251 -117.5t-99 -277.5z" />
<glyph unicode="A" horiz-adv-x="1366" d="M35 0l627 1483h43l626 -1483h-51l-203 477h-790l-201 -477h-51zM305 522h754l-375 891h-2z" />
<glyph unicode="B" horiz-adv-x="1290" d="M205 0v1483h370q137 0 214.5 -17.5t138.5 -54.5q79 -48 121.5 -125t42.5 -174q0 -129 -73.5 -221.5t-205.5 -124.5v-2q155 -25 248.5 -125.5t93.5 -247.5q0 -190 -151 -299q-69 -48 -158 -70t-264 -22h-377zM252 45h330q159 0 249 21.5t150 66.5q127 94 127 258 q0 157 -119 251.5t-305 94.5h-432v-692zM252 782h393q177 0 288 88t111 240q0 175 -143 262q-54 34 -127.5 50t-198.5 16h-323v-656z" />
<glyph unicode="C" horiz-adv-x="1406" d="M113 741q0 158 55.5 298t154 243t244.5 163t318 60q187 0 370 -84v-53q-165 92 -370 92q-161 0 -298 -56.5t-230 -153.5t-145 -228.5t-52 -280.5q0 -200 88.5 -362.5t255 -259t381.5 -96.5q225 0 401 104v-53q-177 -97 -401 -97q-171 0 -316.5 59.5t-244.5 162.5 t-155 243t-56 299z" />
<glyph unicode="D" horiz-adv-x="1513" d="M205 0v1483h346q212 0 357.5 -47t248.5 -138q114 -100 182 -245.5t68 -307.5q0 -152 -58.5 -290t-152.5 -234q-218 -221 -645 -221h-346zM252 45h299q405 0 610 205q95 95 147 223t52 268q0 153 -61.5 290.5t-172.5 234.5q-197 172 -575 172h-299v-1393z" />
<glyph unicode="E" horiz-adv-x="1134" d="M205 0v1483h784v-45h-737v-645h657v-45h-657v-703h754v-45h-801z" />
<glyph unicode="F" horiz-adv-x="1134" d="M205 0v1483h805v-45h-758v-674h678v-45h-678v-719h-47z" />
<glyph unicode="G" horiz-adv-x="1507" d="M113 743q0 157 55 296.5t153.5 242.5t243 163t314.5 60q222 0 417 -106v-51q-188 112 -419 112q-159 0 -294 -56t-227 -152.5t-144 -228t-52 -280.5q0 -200 88 -363t252 -259t372 -96q233 0 414 106v500h-424v45h471v-572q-94 -60 -214.5 -93.5t-248.5 -33.5 q-165 0 -307 60t-240.5 163t-154 244t-55.5 299z" />
<glyph unicode="H" horiz-adv-x="1503" d="M205 0v1483h47v-690h999v690h47v-1483h-47v748h-999v-748h-47z" />
<glyph unicode="I" horiz-adv-x="456" d="M205 0v1483h47v-1483h-47z" />
<glyph unicode="J" horiz-adv-x="806" d="M100 25v49q108 -51 211 -51q62 0 106.5 18t71 47.5t41.5 77.5t20 97t5 116v1104h47v-1106q0 -125 -18 -197.5t-56 -116.5q-71 -86 -217 -86q-96 0 -211 48z" />
<glyph unicode="K" horiz-adv-x="1228" d="M205 0v1483h47v-684h2l797 684h65l-803 -688l867 -795h-70l-856 786h-2v-786h-47z" />
<glyph unicode="L" horiz-adv-x="1126" d="M205 0v1483h47v-1438h774v-45h-821z" />
<glyph unicode="M" horiz-adv-x="1761" d="M205 0v1483h45l631 -910l630 910h45v-1483h-47v1397h-2l-626 -903l-627 903h-2v-1397h-47z" />
<glyph unicode="N" horiz-adv-x="1552" d="M205 0v1483h47l1046 -1401h2v1401h48v-1483h-48l-1046 1401h-2v-1401h-47z" />
<glyph unicode="O" horiz-adv-x="1703" d="M113 741q0 158 56.5 299t154 243t235.5 162t293 60t293 -60t235.5 -162t154 -243t56.5 -299t-56.5 -299t-154 -243t-235.5 -162t-293 -60t-293 60t-235.5 162t-154 243t-56.5 299zM160 741q0 -198 89 -362.5t248 -260t355 -95.5t355 95.5t248 260t89 362.5 q0 148 -52.5 281t-143.5 229t-220 152.5t-276 56.5t-276 -56.5t-220 -152.5t-143.5 -229t-52.5 -281z" />
<glyph unicode="P" horiz-adv-x="1253" d="M205 0v1483h387q163 0 261.5 -28t166.5 -83q141 -115 141 -305t-141 -303q-69 -56 -171 -82.5t-259 -26.5h-338v-655h-47zM252 700h340q158 0 246 25t151 76q125 101 125 270q0 166 -125 266q-64 52 -155 76.5t-242 24.5h-340v-738z" />
<glyph unicode="Q" horiz-adv-x="1705" d="M113 741q0 158 56.5 299t154 243t235.5 162t293 60q156 0 294 -60t236 -162t154.5 -243t56.5 -299q0 -200 -88 -369.5t-243.5 -273.5t-348.5 -118v-3q251 -191 576 -292l-57 -33q-310 107 -594 325q-153 3 -288 64t-231 162.5t-151 241.5t-55 296zM160 741 q0 -198 89 -362.5t248 -260t355 -95.5q197 0 356.5 95.5t248.5 259.5t89 363q0 149 -52.5 281.5t-143.5 228.5t-220.5 152.5t-277.5 56.5q-147 0 -276 -56.5t-220 -152.5t-143.5 -229t-52.5 -281z" />
<glyph unicode="R" horiz-adv-x="1294" d="M205 0v1483h393q273 0 403 -105q62 -50 100 -123.5t38 -164.5q0 -169 -119 -275q-109 -98 -318 -115l519 -700h-58l-514 696h-397v-696h-47zM252 741h379q242 0 358 107q103 92 103 242q0 163 -123 258q-62 48 -147.5 69t-225.5 21h-344v-697z" />
<glyph unicode="S" horiz-adv-x="1116" d="M137 1128q0 178 117 277.5t305 99.5q106 0 214 -32t188 -89v-55q-84 63 -190 97t-212 34q-171 0 -273 -86t-102 -241q0 -40 8 -75.5t19.5 -62.5t33 -52t40.5 -42.5t51 -34.5t54.5 -27.5t60.5 -23.5t61 -19.5t63 -17.5q56 -15 90.5 -25t87 -30t85 -39.5t70.5 -51 t59.5 -67.5t36 -86.5t14.5 -109.5q0 -184 -120.5 -288t-317.5 -104q-115 0 -231 36t-197 98v57q87 -72 199.5 -108.5t223.5 -36.5q176 0 286 89t110 253q0 53 -13 97.5t-32.5 76.5t-53.5 60.5t-64 46.5t-76.5 36t-78.5 27.5t-82 23.5q-56 15 -89.5 25t-85 29.5t-83 38 t-69 49t-58 65t-35 83t-14.5 105.5z" />
<glyph unicode="T" horiz-adv-x="1259" d="M82 1438v45h1096v-45h-525v-1438h-47v1438h-524z" />
<glyph unicode="U" horiz-adv-x="1466" d="M186 711v772h47v-772q0 -220 33.5 -354t118.5 -216q121 -118 348 -118q269 0 395 172q60 82 83.5 202t23.5 314v772h45v-772q0 -199 -25 -323t-86 -214q-135 -199 -436 -199q-247 0 -385 138q-90 90 -126 229t-36 369z" />
<glyph unicode="V" horiz-adv-x="1304" d="M45 1483h51l555 -1413h2l555 1413h52l-584 -1483h-47z" />
<glyph unicode="W" horiz-adv-x="2029" d="M57 1483h49l281 -881l166 -522h2l166 526l276 877h35l289 -916l154 -487h2l155 489l291 914h49l-473 -1483h-47l-307 975l-129 409h-2l-129 -409l-307 -975h-48z" />
<glyph unicode="X" horiz-adv-x="1300" d="M57 0l564 786l-496 697h55l469 -662h2l469 662h56l-496 -697l563 -786h-55l-537 752h-2l-536 -752h-56z" />
<glyph unicode="Y" horiz-adv-x="1292" d="M47 1483h55l543 -766h2l543 766h55l-575 -811v-672h-47v672z" />
<glyph unicode="Z" horiz-adv-x="1218" d="M49 4l1010 1432l-2 2h-959v45h1047l2 -4l-1010 -1432l2 -2h994v-45h-1082z" />
<glyph unicode="[" horiz-adv-x="641" d="M197 -436v1958h383v-43h-338v-1872h338v-43h-383z" />
<glyph unicode="\" horiz-adv-x="874" d="M70 1561h49l688 -1639h-49z" />
<glyph unicode="]" horiz-adv-x="641" d="M61 -393h338v1872h-338v43h383v-1958h-383v43z" />
<glyph unicode="^" horiz-adv-x="1218" d="M193 741l395 764h43l395 -764h-51l-365 711h-2l-364 -711h-51z" />
<glyph unicode="_" horiz-adv-x="915" d="M0 -215h915v-43h-915v43z" />
<glyph unicode="`" horiz-adv-x="962" d="M319 1489h52l196 -336h-43z" />
<glyph unicode="a" horiz-adv-x="1073" d="M113 252q0 147 116 223q101 66 273 66q137 0 309 -49v157q0 101 -18.5 159.5t-71.5 102.5q-89 74 -229 74q-173 0 -310 -98v51q136 92 310 92q160 0 262 -82q57 -47 80.5 -116.5t23.5 -167.5v-435q0 -98 27 -148t104 -50q42 0 74 16v-47q-35 -14 -78 -14q-68 0 -111.5 35 t-56.5 102h-2q-170 -146 -369 -146q-139 0 -231 68q-102 74 -102 207zM160 258q0 -81 44 -136t106 -77t136 -22q98 0 194 40.5t171 110.5v272q-171 52 -309 52q-66 0 -124 -12t-108.5 -38.5t-80 -75t-29.5 -114.5z" />
<glyph unicode="b" horiz-adv-x="1198" d="M199 55v1510h47v-686l2 -2q153 153 360 153q205 0 341 -146.5t136 -373.5q0 -150 -61 -270.5t-177.5 -191.5t-268.5 -71q-66 0 -132.5 15t-107 30.5t-94.5 40.5zM246 111q176 -88 332 -88q142 0 248 67t159 176.5t53 243.5q0 205 -120 340t-310 135q-214 0 -362 -168 v-706z" />
<glyph unicode="c" horiz-adv-x="1054" d="M115 502q0 226 145.5 377t376.5 151q145 0 272 -65v-54q-133 74 -272 74q-209 0 -342 -137t-133 -346q0 -210 133 -344.5t338 -134.5q167 0 291 83v-55q-135 -74 -293 -74q-151 0 -269 69t-182.5 188.5t-64.5 267.5z" />
<glyph unicode="d" horiz-adv-x="1200" d="M113 483q0 108 33.5 206t95.5 174.5t159.5 121.5t216.5 45q165 0 334 -96l2 2v629h47v-1565h-47v135h-2q-63 -71 -159 -114.5t-207 -43.5q-203 0 -338 140.5t-135 365.5zM160 487q0 -205 119 -334.5t311 -129.5q224 0 364 174v684q-162 104 -333 104q-139 0 -245 -67.5 t-161 -180t-55 -250.5z" />
<glyph unicode="e" horiz-adv-x="1144" d="M115 504q0 227 140.5 376.5t344.5 149.5q185 0 309.5 -124.5t124.5 -334.5q0 -33 -4 -73h-868q2 -205 134 -340t343 -135q189 0 332 106v-55q-149 -97 -334 -97q-227 0 -374.5 148t-147.5 379zM164 543h823v22q0 95 -26 170t-66.5 121t-94 76t-103.5 41.5t-99 11.5 q-79 0 -153.5 -30t-135 -84.5t-99.5 -139.5t-46 -188z" />
<glyph unicode="f" horiz-adv-x="636" d="M47 965v43h189v249q0 97 17 160t60 103q72 67 195 67q61 0 115 -14v-47q-53 16 -115 16q-126 0 -175.5 -70.5t-49.5 -211.5v-252h307v-43h-307v-965h-47v965h-189z" />
<glyph unicode="g" horiz-adv-x="1189" d="M113 498q0 142 56 261.5t170.5 195t268.5 75.5q176 0 340 -100l45 8v-944q0 -210 -119.5 -338.5t-336.5 -128.5q-159 0 -306 80v53q138 -88 304 -88q193 0 302 112t109 312v156h-2q-66 -72 -159.5 -113t-200.5 -41q-206 0 -338.5 140.5t-132.5 359.5zM160 502 q0 -202 118.5 -330.5t309.5 -128.5q217 0 358 170v666q-154 106 -338 106q-202 0 -325 -138.5t-123 -344.5z" />
<glyph unicode="h" horiz-adv-x="1210" d="M199 0v1565h47v-717l2 -2q212 184 426 184q158 0 250 -92q94 -94 94 -305v-633h-47v625q0 105 -19 169.5t-63 110.5q-77 80 -217 80q-212 0 -426 -194v-791h-47z" />
<glyph unicode="i" horiz-adv-x="444" d="M168 1364q0 22 15.5 37.5t37.5 15.5t37.5 -15.5t15.5 -37.5t-15.5 -37.5t-37.5 -15.5t-37.5 15.5t-15.5 37.5zM199 0v1008h47v-1008h-47z" />
<glyph unicode="j" horiz-adv-x="450" d="M-84 -416q54 -12 98 -12q105 0 147 61.5t42 184.5v1190h47v-1188q0 -155 -57 -221q-63 -72 -181 -72q-44 0 -96 10v47zM172 1364q0 22 15.5 37.5t37.5 15.5t38 -15.5t16 -37.5t-16 -37.5t-38 -15.5t-37.5 15.5t-15.5 37.5z" />
<glyph unicode="k" horiz-adv-x="983" d="M199 0v1565h47v-1006h2l573 449h66l-578 -451l637 -557h-69l-629 551h-2v-551h-47z" />
<glyph unicode="l" horiz-adv-x="444" d="M199 0v1565h47v-1565h-47z" />
<glyph unicode="m" horiz-adv-x="1941" d="M199 0v1008h47v-156l2 -2q99 84 197 132t212 48q111 0 195 -50.5t121 -152.5q220 203 436 203q156 0 248 -92q49 -49 70.5 -120.5t21.5 -178.5v-639h-47v629q0 100 -18 167t-62 111q-75 78 -215 78q-216 0 -422 -203q12 -62 12 -143v-639h-47v629q0 100 -18 167t-62 111 q-75 78 -215 78q-202 0 -409 -190v-795h-47z" />
<glyph unicode="n" horiz-adv-x="1212" d="M199 0v1008h47v-160l2 -2q212 184 426 184q158 0 250 -92q94 -94 94 -305v-633h-47v625q0 105 -19 169.5t-63 110.5q-77 80 -217 80q-212 0 -426 -194v-791h-47z" />
<glyph unicode="o" d="M115 504q0 224 145 375t365 151t365 -151t145 -375q0 -147 -65.5 -267.5t-182.5 -190t-262 -69.5t-262 69.5t-182.5 190t-65.5 267.5zM162 504q0 -207 132.5 -344t330.5 -137t330 137t132 344t-132 344t-330 137t-330.5 -137t-132.5 -344z" />
<glyph unicode="p" horiz-adv-x="1204" d="M199 -451v1459h47v-115l2 -2q156 139 356 139q143 0 255 -69t172.5 -188.5t60.5 -268.5q0 -111 -35.5 -207.5t-98.5 -167.5t-154.5 -111.5t-199.5 -40.5q-196 0 -354 127l-4 -2v-553h-47zM246 164q70 -65 162.5 -103t193.5 -38q196 0 319 136t123 347q0 209 -122 344 t-318 135q-102 0 -195.5 -39.5t-162.5 -111.5v-670z" />
<glyph unicode="q" horiz-adv-x="1200" d="M113 498q0 142 57 261.5t173.5 195t272.5 75.5q160 0 338 -94l47 8v-1395h-47v574h-2q-153 -146 -360 -146q-137 0 -247 68.5t-171 187.5t-61 265zM160 498q0 -204 123.5 -339.5t310.5 -135.5q102 0 196 41.5t164 115.5v703q-164 102 -340 102q-138 0 -243 -67.5 t-158 -177.5t-53 -242z" />
<glyph unicode="r" horiz-adv-x="684" d="M199 0v1008h47v-183l4 -2q70 90 162 144.5t194 54.5q27 0 51 -4v-45q-24 4 -51 4q-201 0 -360 -219v-758h-47z" />
<glyph unicode="s" horiz-adv-x="983" d="M104 764q0 125 99 195.5t272 70.5q202 0 359 -92v-57q-150 104 -363 104q-148 0 -233.5 -57t-85.5 -164q0 -36 11.5 -65.5t27.5 -50t45.5 -37.5t53.5 -27t65 -19t65.5 -13.5t68.5 -10.5q34 -5 53.5 -8.5t55 -11t58.5 -15t55 -20t52.5 -27t43.5 -35.5t36 -45t22 -56t9 -69 q0 -129 -102.5 -203t-282.5 -74q-217 0 -376 97v59q160 -110 381 -110q155 0 244 59.5t89 171.5q0 44 -14 79t-42.5 59.5t-57.5 41.5t-75 29t-78.5 18.5t-82.5 14.5q-41 6 -66 10t-68.5 14.5t-72 22.5t-63 32.5t-55 45.5t-34.5 62t-14 81z" />
<glyph unicode="t" horiz-adv-x="724" d="M43 965v43h219v290l47 9v-299h355v-43h-355v-623q0 -62 4.5 -106t18.5 -86.5t38 -68.5t64.5 -42t97.5 -16q74 0 132 30v-49q-71 -27 -134 -27q-133 0 -200 78q-68 75 -68 281v629h-219z" />
<glyph unicode="u" horiz-adv-x="1208" d="M193 408v600h47v-590q0 -229 79 -314q75 -81 224 -81q212 0 422 200v785h47v-1008h-47v166h-2q-201 -189 -428 -189q-163 0 -252 99q-49 53 -69.5 131.5t-20.5 200.5z" />
<glyph unicode="v" horiz-adv-x="1083" d="M82 1008h49l408 -945h2l409 945h49l-438 -1008h-43z" />
<glyph unicode="w" horiz-adv-x="1644" d="M88 1008h47l209 -582l127 -354h2l123 342l213 594h27l202 -566l133 -370h3l126 354l209 582h47l-362 -1008h-41l-207 575l-123 343h-2l-131 -365l-198 -553h-41z" />
<glyph unicode="x" horiz-adv-x="980" d="M14 0l445 535l-391 473h55l366 -445h3l366 445h55l-391 -473l445 -535h-56l-419 506h-3l-419 -506h-56z" />
<glyph unicode="y" horiz-adv-x="1081" d="M82 1008h49l408 -846h2l409 846h49l-708 -1459h-51l276 562z" />
<glyph unicode="z" horiz-adv-x="962" d="M63 4l752 959l-2 2h-711v43h801l2 -4l-751 -959l2 -2h737v-43h-827z" />
<glyph unicode="{" horiz-adv-x="688" d="M66 520v45h45q44 0 76.5 5.5t53 18.5t33 28t18.5 41.5t7.5 49.5t1.5 62v467q0 170 56.5 238.5t189.5 68.5q46 0 104 -12v-43q-58 12 -104 12q-117 0 -159 -60t-42 -204v-467q0 -46 -4 -78.5t-16 -64t-36.5 -52t-62.5 -30.5v-2q71 -19 95 -75.5t24 -152.5v-467 q0 -144 42 -204t159 -60q41 0 104 13v-43q-63 -13 -104 -13q-133 0 -189.5 68.5t-56.5 238.5v467q0 39 -1.5 62t-7.5 49.5t-18.5 41.5t-33 28t-53 18.5t-76.5 5.5h-45z" />
<glyph unicode="|" horiz-adv-x="651" d="M303 -451v2089h45v-2089h-45z" />
<glyph unicode="}" horiz-adv-x="688" d="M37 -403q63 -13 104 -13q117 0 159 60t42 204v467q0 46 4 78.5t16 64.5t36.5 52.5t62.5 30.5v2q-71 19 -95 75t-24 152v467q0 144 -42 204t-159 60q-46 0 -104 -12v43q58 12 104 12q133 0 189.5 -68.5t56.5 -238.5v-467q0 -46 2.5 -73t13 -56t30.5 -43t56 -23.5t89 -9.5 h45v-45h-45q-53 0 -89 -9.5t-56 -23.5t-30.5 -43t-13 -56t-2.5 -73v-467q0 -170 -56.5 -238.5t-189.5 -68.5q-41 0 -104 13v43z" />
<glyph unicode="~" horiz-adv-x="1122" d="M147 662v67q31 57 81 88t112 31q53 0 108 -22.5t134 -69.5q47 -28 70.5 -40.5t61 -25t70.5 -12.5q116 0 187 145l4 -2v-67q-31 -57 -81 -88t-112 -31q-53 0 -107 22.5t-134 69.5q-46 27 -70.5 40t-62 25.5t-70.5 12.5q-114 0 -186 -146z" />
<glyph unicode="&#xa1;" horiz-adv-x="659" d="M264 965q0 28 19 46.5t47 18.5t46.5 -18.5t18.5 -46.5t-18.5 -47t-46.5 -19t-47 19t-19 47zM305 -475l6 1081h37l6 -1081h-49z" />
<glyph unicode="&#xa2;" horiz-adv-x="1079" d="M123 739q0 212 127.5 358.5t337.5 166.5v256h45v-252q156 0 285 -66v-53q-133 74 -273 74q-209 0 -342 -137.5t-133 -346.5q0 -210 133 -344.5t338 -134.5q166 0 291 84v-55q-135 -74 -299 -74v-252h-45v254q-208 19 -336.5 164.5t-128.5 357.5z" />
<glyph unicode="&#xa3;" horiz-adv-x="1120" d="M162 0v43q87 80 145 193t58 249q0 91 -35 207h-168v43h153q-8 24 -32 92t-34.5 101t-21 87t-10.5 101q0 121 58.5 211.5t151 134t204.5 43.5q90 0 172.5 -28.5t142.5 -77.5v-60q-137 121 -311 121q-156 0 -263.5 -91t-107.5 -253q0 -46 10.5 -99t22.5 -89t35 -99t33 -94 h430v-43h-416q33 -121 33 -207q0 -123 -50 -237.5t-137 -198.5v-4h791v-45h-854z" />
<glyph unicode="&#xa4;" d="M147 279l148 147q-107 123 -107 291t107 291l-148 147l35 35l148 -148q121 111 295 111t295 -111l147 148l35 -35l-148 -147q107 -123 107 -291t-107 -291l148 -147l-35 -35l-147 147q-119 -110 -295 -110t-295 110l-148 -147zM236 717q0 -166 111.5 -278.5t277.5 -112.5 t277.5 112.5t111.5 278.5t-111.5 278.5t-277.5 112.5t-277.5 -112.5t-111.5 -278.5z" />
<glyph unicode="&#xa5;" horiz-adv-x="1320" d="M117 1483h55l487 -688h3l487 688h55l-391 -551h328v-43h-359l-98 -139v-205h457v-43h-457v-502h-47v502h-457v43h457v205l-98 139h-359v43h328z" />
<glyph unicode="&#xa6;" horiz-adv-x="651" d="M303 352h45v-803h-45v803zM303 836v802h45v-802h-45z" />
<glyph unicode="&#xa7;" horiz-adv-x="1116" d="M123 647q0 117 67.5 193.5t182.5 105.5v2q-148 88 -148 248q0 139 95.5 217t238.5 78q147 0 279 -76v-49q-125 80 -277 80q-128 0 -208.5 -64.5t-80.5 -183.5q0 -43 10.5 -78t35 -63t51.5 -49t72.5 -42.5t84.5 -37t101 -38.5q9 -3 14 -5q52 -20 79 -31t72 -32t69 -38 t55 -44.5t46.5 -56.5t27 -68.5t11.5 -84.5q0 -118 -66.5 -194t-180.5 -105v-2q145 -87 145 -249q0 -142 -97 -219.5t-249 -77.5q-171 0 -301 81v54q145 -90 297 -90q135 0 219 65.5t84 188.5q0 51 -19 92.5t-42.5 68t-79.5 56t-93 44.5t-121 46q-11 4 -16 6q-50 19 -79 30.5 t-72.5 32t-68.5 38.5t-55 45t-45.5 55.5t-26.5 67t-11 83.5zM170 653q0 -119 78 -187.5t248 -129.5q12 -5 91.5 -34t119.5 -48q247 58 247 270q0 51 -15.5 93t-41.5 73.5t-69 60t-89.5 49.5t-111.5 44q-172 61 -209 80q-248 -58 -248 -271z" />
<glyph unicode="&#xa8;" horiz-adv-x="962" d="M250 1321q0 22 15.5 37.5t37.5 15.5t37.5 -15.5t15.5 -37.5t-15.5 -37.5t-37.5 -15.5t-37.5 15.5t-15.5 37.5zM606 1321q0 22 15.5 37.5t37.5 15.5t38 -15.5t16 -37.5t-16 -37.5t-38 -15.5t-37.5 15.5t-15.5 37.5z" />
<glyph unicode="&#xa9;" horiz-adv-x="1687" d="M92 741q0 158 57 299t156 243t239 162t300 60t300 -60t238.5 -162t155.5 -243t57 -299t-57 -299t-155.5 -243t-238.5 -162t-300 -60t-300 60t-239 162t-156 243t-57 299zM139 741q0 -198 89 -362t251 -260t365 -96q152 0 284 56.5t223.5 153t144 228.5t52.5 280 q0 198 -88.5 362t-250.5 260.5t-365 96.5t-365 -96.5t-251 -260.5t-89 -362zM461 750q0 180 116.5 299.5t301.5 119.5q118 0 215 -51v-53q-101 59 -217 59q-163 0 -266 -106t-103 -268q0 -164 103 -267.5t263 -103.5q140 0 232 67v-53q-105 -59 -234 -59q-181 0 -296 118.5 t-115 297.5z" />
<glyph unicode="&#xaa;" horiz-adv-x="790" d="M147 1001q0 97 76 148q64 43 178 43q67 0 195 -31v103q0 202 -201 202q-110 0 -202 -63v43q88 59 204 59q110 0 174 -57q68 -60 68 -180v-283q0 -58 16 -89.5t62 -31.5q26 0 49 10v-38q-21 -9 -51 -9q-92 0 -113 84h-2q-108 -90 -235 -90q-92 0 -150 43q-68 50 -68 137z M190 1006q0 -73 52.5 -109.5t124.5 -36.5q127 0 229 92v170q-98 31 -188 31q-95 0 -156.5 -34.5t-61.5 -112.5z" />
<glyph unicode="&#xab;" horiz-adv-x="1089" d="M147 504l349 448h55l-348 -448l348 -449h-55zM535 504l348 448h55l-348 -448l348 -449h-55z" />
<glyph unicode="&#xac;" horiz-adv-x="1185" d="M111 721v43h964v-526h-45v483h-919z" />
<glyph unicode="&#xad;" horiz-adv-x="749" d="M141 545v45h467v-45h-467z" />
<glyph unicode="&#xae;" horiz-adv-x="933" d="M84 1124q0 164 108.5 272.5t274.5 108.5t274.5 -108.5t108.5 -272.5t-108.5 -272.5t-274.5 -108.5t-274.5 108.5t-108.5 272.5zM121 1124q0 -152 97 -249t249 -97t249 97t97 249t-97 249t-249 97t-249 -97t-97 -249zM338 918v413h127q72 0 111.5 -33t39.5 -90 q0 -45 -27 -76t-73 -42l127 -172h-47l-121 165h-100v-165h-37zM375 1118h94q54 0 81.5 24t27.5 64t-28.5 65t-80.5 25h-94v-178z" />
<glyph unicode="&#xaf;" horiz-adv-x="962" d="M223 1300v41h516v-41h-516z" />
<glyph unicode="&#xb0;" horiz-adv-x="835" d="M117 1204q0 127 86 214t215 87t215 -87t86 -214t-86 -214t-215 -87t-215 87t-86 214zM158 1204q0 -113 74 -187.5t186 -74.5t186 74.5t74 187.5t-74 187.5t-186 74.5t-186 -74.5t-74 -187.5z" />
<glyph unicode="&#xb1;" horiz-adv-x="1183" d="M127 907v43h442v420h45v-420h443v-43h-443v-420h-45v420h-442zM129 199v43h928v-43h-928z" />
<glyph unicode="&#xb2;" horiz-adv-x="724" d="M63 868l318 338q83 90 123.5 163.5t40.5 152.5q0 101 -63 154t-160 53q-104 0 -195 -62v45q85 55 197 55q114 0 188 -63.5t74 -179.5q0 -86 -43 -166t-127 -170l-266 -283l2 -2h479v-39h-565z" />
<glyph unicode="&#xb3;" horiz-adv-x="704" d="M90 928v47q122 -86 250 -86q101 0 169.5 56t68.5 149q0 89 -64 143.5t-178 54.5h-86v39h78q97 0 159 57t62 146q0 88 -63 141.5t-164 53.5q-93 0 -166 -46v43q77 41 170 41q115 0 189.5 -64.5t74.5 -164.5q0 -72 -41 -133t-119 -86v-4q90 -20 139 -81.5t49 -141.5 q0 -103 -78 -172.5t-202 -69.5q-130 0 -248 78z" />
<glyph unicode="&#xb4;" horiz-adv-x="962" d="M395 1153l197 336h51l-205 -336h-43z" />
<glyph unicode="&#xb5;" horiz-adv-x="1239" d="M205 -451v1459h47v-590q0 -227 80 -314q75 -81 223 -81q212 0 422 200v785h47v-1008h-47v162l-4 2q-203 -187 -424 -187q-98 0 -176.5 39t-120.5 123h-2l4 -590h-49z" />
<glyph unicode="&#xb6;" horiz-adv-x="1085" d="M152 1112q0 154 109.5 262.5t264.5 108.5h299v-1934h-45v1885h-209v-1885h-45v1192q-155 0 -264.5 108.5t-109.5 262.5z" />
<glyph unicode="&#xb7;" horiz-adv-x="622" d="M246 618q0 28 18.5 47t46.5 19t47 -19t19 -47t-19 -46.5t-47 -18.5t-46.5 18.5t-18.5 46.5z" />
<glyph unicode="&#xb8;" horiz-adv-x="962" d="M330 -418l12 41q74 -33 135 -33q58 0 94.5 31t36.5 84q0 37 -18.5 64.5t-50.5 42.5t-63.5 22t-67.5 10l49 168l39 -8l-35 -123q194 -34 194 -172q0 -72 -49.5 -117t-130.5 -45q-73 0 -145 35z" />
<glyph unicode="&#xb9;" horiz-adv-x="653" d="M117 1614v41l278 112v-903h-41v846z" />
<glyph unicode="&#xba;" horiz-adv-x="847" d="M96 1163q0 148 91.5 245t236.5 97t236.5 -97t91.5 -245t-91.5 -245t-236.5 -97t-236.5 97t-91.5 245zM139 1163q0 -132 80 -216.5t205 -84.5t205 84.5t80 216.5t-80 216.5t-205 84.5t-205 -84.5t-80 -216.5z" />
<glyph unicode="&#xbb;" horiz-adv-x="1089" d="M152 55l348 449l-348 448h55l348 -448l-348 -449h-55zM539 55l348 449l-348 448h55l348 -448l-348 -449h-55z" />
<glyph unicode="&#xbc;" horiz-adv-x="1822" d="M113 1352v41l278 112v-903h-41v846zM324 -27l991 1510h53l-991 -1510h-53zM983 254l492 635h41v-600h202v-39h-202v-250h-41v250h-490zM1061 291l2 -2h412v534h-2z" />
<glyph unicode="&#xbd;" horiz-adv-x="1890" d="M113 1352v41l278 112v-903h-41v846zM324 -27l991 1510h53l-991 -1510h-53zM1182 4l317 338q83 90 123.5 163t40.5 152q0 101 -63 154t-160 53q-106 0 -195 -61v45q85 55 197 55q114 0 188 -64t74 -180q0 -86 -43 -165.5t-127 -169.5l-266 -283l2 -2h479v-39h-565z" />
<glyph unicode="&#xbe;" horiz-adv-x="1904" d="M96 666v47q122 -86 250 -86q101 0 169.5 55.5t68.5 148.5q0 89 -64 144t-178 55h-86v39h78q97 0 159 57t62 146q0 88 -63 141t-164 53q-95 0 -166 -45v43q77 41 170 41q115 0 189.5 -64.5t74.5 -164.5q0 -72 -41 -133t-119 -86v-4q90 -20 139.5 -82t49.5 -142 q0 -103 -78.5 -172t-202.5 -69q-130 0 -248 78zM406 -27l991 1510h53l-991 -1510h-53zM1065 254l491 635h41v-600h203v-39h-203v-250h-41v250h-489zM1143 291l2 -2h411v534h-2z" />
<glyph unicode="&#xbf;" horiz-adv-x="954" d="M139 -74q0 185 134 306t331 133l-26 266h45l32 -305q-200 0 -334.5 -111.5t-134.5 -288.5q0 -163 113 -271t289 -108q131 0 250 70l6 -49q-122 -66 -260 -66q-188 0 -316.5 121.5t-128.5 302.5zM500 965q0 28 18.5 46.5t46.5 18.5t47 -18.5t19 -46.5t-19 -47t-47 -19 t-46.5 19t-18.5 47z" />
<glyph unicode="&#xc0;" horiz-adv-x="1366" d="M35 0l627 1483h43l626 -1483h-51l-203 477h-790l-201 -477h-51zM305 522h754l-375 891h-2zM520 1964h51l197 -336h-43z" />
<glyph unicode="&#xc1;" horiz-adv-x="1366" d="M35 0l627 1483h43l626 -1483h-51l-203 477h-790l-201 -477h-51zM305 522h754l-375 891h-2zM596 1628l197 336h51l-205 -336h-43z" />
<glyph unicode="&#xc2;" horiz-adv-x="1366" d="M35 0l627 1483h43l626 -1483h-51l-203 477h-790l-201 -477h-51zM305 522h754l-375 891h-2zM412 1628l245 336h50l245 -336h-45l-225 303l-225 -303h-45z" />
<glyph unicode="&#xc3;" horiz-adv-x="1366" d="M35 0l627 1483h43l626 -1483h-51l-203 477h-790l-201 -477h-51zM305 522h754l-375 891h-2zM379 1733v55q25 41 66.5 68.5t91.5 27.5q38 0 73.5 -16t83.5 -47q46 -30 74.5 -43t60.5 -13q89 0 152 111h4v-55q-25 -42 -67 -69.5t-91 -27.5q-27 0 -56.5 10.5t-48.5 21.5 t-52 32q-45 29 -74 42t-61 13q-90 0 -152 -110h-4z" />
<glyph unicode="&#xc4;" horiz-adv-x="1366" d="M35 0l627 1483h43l626 -1483h-51l-203 477h-790l-201 -477h-51zM305 522h754l-375 891h-2zM451 1796q0 22 15.5 37.5t37.5 15.5t37.5 -15.5t15.5 -37.5t-15.5 -37.5t-37.5 -15.5t-37.5 15.5t-15.5 37.5zM807 1796q0 22 15.5 37.5t37.5 15.5t37.5 -15.5t15.5 -37.5 t-15.5 -37.5t-37.5 -15.5t-37.5 15.5t-15.5 37.5z" />
<glyph unicode="&#xc5;" horiz-adv-x="1366" d="M35 0l627 1483h43l626 -1483h-51l-203 477h-790l-201 -477h-51zM305 522h754l-375 891h-2zM463 1837q0 94 61.5 156.5t157.5 62.5q95 0 157 -62.5t62 -156.5q0 -93 -62 -156t-157 -63q-96 0 -157.5 63t-61.5 156zM504 1837q0 -75 50 -127.5t128 -52.5t128 52.5t50 127.5 t-50 127.5t-128 52.5t-128 -52.5t-50 -127.5z" />
<glyph unicode="&#xc6;" horiz-adv-x="1871" d="M23 0l909 1483h794v-45h-718v-645h639v-45h-639v-703h735v-45h-782v477h-594l-291 -477h-53zM395 522h566v916h-5z" />
<glyph unicode="&#xc7;" horiz-adv-x="1406" d="M113 741q0 158 55.5 298t154 243t244.5 163t318 60q187 0 370 -84v-53q-165 92 -370 92q-161 0 -298 -56.5t-230 -153.5t-145 -228.5t-52 -280.5q0 -200 88.5 -362.5t255 -259t381.5 -96.5q225 0 401 104v-53q-177 -97 -401 -97q-27 0 -51 3l-27 -99q194 -34 194 -172 q0 -72 -49.5 -117t-130.5 -45q-73 0 -145 35l12 41q74 -33 135 -33q58 0 94.5 31t36.5 84q0 37 -18.5 64.5t-50.5 42.5t-63.5 22t-67.5 10l39 138q-203 21 -358.5 126.5t-238.5 270t-83 362.5z" />
<glyph unicode="&#xc8;" horiz-adv-x="1134" d="M205 0v1483h784v-45h-737v-645h657v-45h-657v-703h754v-45h-801zM434 1964h51l197 -336h-43z" />
<glyph unicode="&#xc9;" horiz-adv-x="1134" d="M205 0v1483h784v-45h-737v-645h657v-45h-657v-703h754v-45h-801zM510 1628l197 336h51l-205 -336h-43z" />
<glyph unicode="&#xca;" horiz-adv-x="1134" d="M205 0v1483h784v-45h-737v-645h657v-45h-657v-703h754v-45h-801zM326 1628l245 336h50l245 -336h-45l-225 303l-225 -303h-45z" />
<glyph unicode="&#xcb;" horiz-adv-x="1134" d="M205 0v1483h784v-45h-737v-645h657v-45h-657v-703h754v-45h-801zM365 1796q0 22 15.5 37.5t37.5 15.5t37.5 -15.5t15.5 -37.5t-15.5 -37.5t-37.5 -15.5t-37.5 15.5t-15.5 37.5zM721 1796q0 22 15.5 37.5t37.5 15.5t37.5 -15.5t15.5 -37.5t-15.5 -37.5t-37.5 -15.5 t-37.5 15.5t-15.5 37.5z" />
<glyph unicode="&#xcc;" horiz-adv-x="456" d="M66 1964h51l196 -336h-43zM205 0v1483h47v-1483h-47z" />
<glyph unicode="&#xcd;" horiz-adv-x="456" d="M141 1628l197 336h51l-205 -336h-43zM205 0v1483h47v-1483h-47z" />
<glyph unicode="&#xce;" horiz-adv-x="456" d="M-43 1628l246 336h49l246 -336h-45l-226 303l-225 -303h-45zM205 0v1483h47v-1483h-47z" />
<glyph unicode="&#xcf;" horiz-adv-x="456" d="M-4 1796q0 22 15.5 37.5t37.5 15.5t37.5 -15.5t15.5 -37.5t-15.5 -37.5t-37.5 -15.5t-37.5 15.5t-15.5 37.5zM205 0v1483h47v-1483h-47zM352 1796q0 22 16 37.5t38 15.5t37.5 -15.5t15.5 -37.5t-15.5 -37.5t-37.5 -15.5t-38 15.5t-16 37.5z" />
<glyph unicode="&#xd0;" horiz-adv-x="1527" d="M14 733v43h205v707h346q212 0 357.5 -47t248.5 -138q114 -100 182 -245.5t68 -307.5q0 -152 -58.5 -290t-152.5 -234q-218 -221 -645 -221h-346v733h-205zM266 45h299q406 0 611 205q95 95 146.5 223t51.5 268q0 153 -61 290.5t-172 234.5q-197 172 -576 172h-299v-662 h385v-43h-385v-688z" />
<glyph unicode="&#xd1;" horiz-adv-x="1552" d="M205 0v1483h47l1046 -1401h2v1401h48v-1483h-48l-1046 1401h-2v-1401h-47zM473 1733v55q25 41 66.5 68.5t91.5 27.5q38 0 73.5 -16t83.5 -47q46 -30 75 -43t61 -13q88 0 151 111h4v-55q-25 -42 -66.5 -69.5t-90.5 -27.5q-27 0 -56.5 10t-49.5 21.5t-52 32.5 q-45 29 -74 42t-61 13q-90 0 -152 -110h-4z" />
<glyph unicode="&#xd2;" horiz-adv-x="1703" d="M113 741q0 158 56.5 299t154 243t235.5 162t293 60t293 -60t235.5 -162t154 -243t56.5 -299t-56.5 -299t-154 -243t-235.5 -162t-293 -60t-293 60t-235.5 162t-154 243t-56.5 299zM160 741q0 -198 89 -362.5t248 -260t355 -95.5t355 95.5t248 260t89 362.5 q0 148 -52.5 281t-143.5 229t-220 152.5t-276 56.5t-276 -56.5t-220 -152.5t-143.5 -229t-52.5 -281zM690 1964h51l197 -336h-43z" />
<glyph unicode="&#xd3;" horiz-adv-x="1703" d="M113 741q0 158 56.5 299t154 243t235.5 162t293 60t293 -60t235.5 -162t154 -243t56.5 -299t-56.5 -299t-154 -243t-235.5 -162t-293 -60t-293 60t-235.5 162t-154 243t-56.5 299zM160 741q0 -198 89 -362.5t248 -260t355 -95.5t355 95.5t248 260t89 362.5 q0 148 -52.5 281t-143.5 229t-220 152.5t-276 56.5t-276 -56.5t-220 -152.5t-143.5 -229t-52.5 -281zM766 1628l197 336h51l-205 -336h-43z" />
<glyph unicode="&#xd4;" horiz-adv-x="1703" d="M113 741q0 158 56.5 299t154 243t235.5 162t293 60t293 -60t235.5 -162t154 -243t56.5 -299t-56.5 -299t-154 -243t-235.5 -162t-293 -60t-293 60t-235.5 162t-154 243t-56.5 299zM160 741q0 -198 89 -362.5t248 -260t355 -95.5t355 95.5t248 260t89 362.5 q0 148 -52.5 281t-143.5 229t-220 152.5t-276 56.5t-276 -56.5t-220 -152.5t-143.5 -229t-52.5 -281zM582 1628l245 336h50l245 -336h-45l-225 303l-225 -303h-45z" />
<glyph unicode="&#xd5;" horiz-adv-x="1703" d="M113 741q0 158 56.5 299t154 243t235.5 162t293 60t293 -60t235.5 -162t154 -243t56.5 -299t-56.5 -299t-154 -243t-235.5 -162t-293 -60t-293 60t-235.5 162t-154 243t-56.5 299zM160 741q0 -198 89 -362.5t248 -260t355 -95.5t355 95.5t248 260t89 362.5 q0 148 -52.5 281t-143.5 229t-220 152.5t-276 56.5t-276 -56.5t-220 -152.5t-143.5 -229t-52.5 -281zM549 1733v55q25 41 66.5 68.5t91.5 27.5q38 0 73.5 -16t83.5 -47q46 -30 74.5 -43t60.5 -13q89 0 152 111h4v-55q-25 -42 -67 -69.5t-91 -27.5q-27 0 -56.5 10.5 t-48.5 21.5t-52 32q-45 29 -74 42t-61 13q-90 0 -152 -110h-4z" />
<glyph unicode="&#xd6;" horiz-adv-x="1703" d="M113 741q0 158 56.5 299t154 243t235.5 162t293 60t293 -60t235.5 -162t154 -243t56.5 -299t-56.5 -299t-154 -243t-235.5 -162t-293 -60t-293 60t-235.5 162t-154 243t-56.5 299zM160 741q0 -198 89 -362.5t248 -260t355 -95.5t355 95.5t248 260t89 362.5 q0 148 -52.5 281t-143.5 229t-220 152.5t-276 56.5t-276 -56.5t-220 -152.5t-143.5 -229t-52.5 -281zM621 1796q0 22 15.5 37.5t37.5 15.5t37.5 -15.5t15.5 -37.5t-15.5 -37.5t-37.5 -15.5t-37.5 15.5t-15.5 37.5zM977 1796q0 22 15.5 37.5t37.5 15.5t37.5 -15.5t15.5 -37.5 t-15.5 -37.5t-37.5 -15.5t-37.5 15.5t-15.5 37.5z" />
<glyph unicode="&#xd7;" horiz-adv-x="1183" d="M190 367l373 372l-373 373l29 29l373 -373l373 373l28 -29l-372 -373l372 -372l-28 -29l-373 373l-373 -373z" />
<glyph unicode="&#xd8;" horiz-adv-x="1703" d="M113 741q0 158 56.5 299t154 243t235.5 162t293 60q267 0 467 -166l135 162l33 -26l-135 -164q112 -106 175.5 -254.5t63.5 -315.5q0 -158 -56.5 -299t-154 -243t-235.5 -162t-293 -60q-267 0 -467 166l-135 -161l-33 26l135 164q-112 106 -175.5 254t-63.5 315zM160 741 q0 -159 57.5 -297t163.5 -237l909 1098q-185 155 -438 155q-147 0 -276 -56.5t-220 -152.5t-143.5 -229t-52.5 -281zM414 178q185 -155 438 -155q196 0 355 95.5t248 260t89 362.5q0 160 -58 298t-163 237z" />
<glyph unicode="&#xd9;" horiz-adv-x="1466" d="M186 711v772h47v-772q0 -220 33.5 -354t118.5 -216q121 -118 348 -118q269 0 395 172q60 82 83.5 202t23.5 314v772h45v-772q0 -199 -25 -323t-86 -214q-135 -199 -436 -199q-247 0 -385 138q-90 90 -126 229t-36 369zM571 1964h52l196 -336h-43z" />
<glyph unicode="&#xda;" horiz-adv-x="1466" d="M186 711v772h47v-772q0 -220 33.5 -354t118.5 -216q121 -118 348 -118q269 0 395 172q60 82 83.5 202t23.5 314v772h45v-772q0 -199 -25 -323t-86 -214q-135 -199 -436 -199q-247 0 -385 138q-90 90 -126 229t-36 369zM647 1628l197 336h51l-205 -336h-43z" />
<glyph unicode="&#xdb;" horiz-adv-x="1466" d="M186 711v772h47v-772q0 -220 33.5 -354t118.5 -216q121 -118 348 -118q269 0 395 172q60 82 83.5 202t23.5 314v772h45v-772q0 -199 -25 -323t-86 -214q-135 -199 -436 -199q-247 0 -385 138q-90 90 -126 229t-36 369zM463 1628l246 336h49l246 -336h-46l-225 303 l-225 -303h-45z" />
<glyph unicode="&#xdc;" horiz-adv-x="1466" d="M186 711v772h47v-772q0 -220 33.5 -354t118.5 -216q121 -118 348 -118q269 0 395 172q60 82 83.5 202t23.5 314v772h45v-772q0 -199 -25 -323t-86 -214q-135 -199 -436 -199q-247 0 -385 138q-90 90 -126 229t-36 369zM502 1796q0 22 15.5 37.5t37.5 15.5t37.5 -15.5 t15.5 -37.5t-15.5 -37.5t-37.5 -15.5t-37.5 15.5t-15.5 37.5zM858 1796q0 22 15.5 37.5t37.5 15.5t38 -15.5t16 -37.5t-16 -37.5t-38 -15.5t-37.5 15.5t-15.5 37.5z" />
<glyph unicode="&#xdd;" horiz-adv-x="1292" d="M47 1483h55l543 -766h2l543 766h55l-575 -811v-672h-47v672zM561 1628l197 336h51l-205 -336h-43z" />
<glyph unicode="&#xde;" horiz-adv-x="1253" d="M205 0v1483h47v-326h340q163 0 261.5 -27.5t166.5 -82.5q141 -115 141 -306q0 -190 -141 -303q-69 -55 -170.5 -81.5t-259.5 -26.5h-338v-330h-47zM252 375h340q158 0 246 25t151 75q125 101 125 270q0 167 -125 267q-64 52 -155 76t-242 24h-340v-737z" />
<glyph unicode="&#xdf;" horiz-adv-x="1241" d="M199 0v1243q0 165 96 252q102 92 295 92t295 -92q96 -87 96 -252q0 -86 -25 -170q-186 0 -288 -39q-75 -28 -119.5 -82.5t-44.5 -136.5q0 -99 68 -153.5t212 -98.5q39 -12 61.5 -19t59 -20.5t58 -25.5t50.5 -30t45.5 -38t33 -45.5t23.5 -57t7 -67.5q0 -128 -92 -203 t-246 -75q-189 0 -319 86v57q69 -50 156 -74t170 -24q126 0 205 61t79 172q0 46 -16.5 83t-39.5 61t-67.5 47t-80.5 36t-99 33q-62 20 -100 34t-84 39t-71 52.5t-42.5 69.5t-17.5 94q0 96 50 161t136 99q113 45 279 45q12 66 12 125q0 141 -80 221q-85 82 -264 82t-264 -82 q-80 -80 -80 -221v-1239h-47z" />
<glyph unicode="&#xe0;" horiz-adv-x="1073" d="M113 252q0 147 116 223q101 66 273 66q137 0 309 -49v157q0 101 -18.5 159.5t-71.5 102.5q-89 74 -229 74q-173 0 -310 -98v51q136 92 310 92q160 0 262 -82q57 -47 80.5 -116.5t23.5 -167.5v-435q0 -98 27 -148t104 -50q42 0 74 16v-47q-35 -14 -78 -14q-68 0 -111.5 35 t-56.5 102h-2q-170 -146 -369 -146q-139 0 -231 68q-102 74 -102 207zM160 258q0 -81 44 -136t106 -77t136 -22q98 0 194 40.5t171 110.5v272q-171 52 -309 52q-66 0 -124 -12t-108.5 -38.5t-80 -75t-29.5 -114.5zM367 1489h51l196 -336h-43z" />
<glyph unicode="&#xe1;" horiz-adv-x="1073" d="M113 252q0 147 116 223q101 66 273 66q137 0 309 -49v157q0 101 -18.5 159.5t-71.5 102.5q-89 74 -229 74q-173 0 -310 -98v51q136 92 310 92q160 0 262 -82q57 -47 80.5 -116.5t23.5 -167.5v-435q0 -98 27 -148t104 -50q42 0 74 16v-47q-35 -14 -78 -14q-68 0 -111.5 35 t-56.5 102h-2q-170 -146 -369 -146q-139 0 -231 68q-102 74 -102 207zM160 258q0 -81 44 -136t106 -77t136 -22q98 0 194 40.5t171 110.5v272q-171 52 -309 52q-66 0 -124 -12t-108.5 -38.5t-80 -75t-29.5 -114.5zM442 1153l197 336h51l-205 -336h-43z" />
<glyph unicode="&#xe2;" horiz-adv-x="1073" d="M113 252q0 147 116 223q101 66 273 66q137 0 309 -49v157q0 101 -18.5 159.5t-71.5 102.5q-89 74 -229 74q-173 0 -310 -98v51q136 92 310 92q160 0 262 -82q57 -47 80.5 -116.5t23.5 -167.5v-435q0 -98 27 -148t104 -50q42 0 74 16v-47q-35 -14 -78 -14q-68 0 -111.5 35 t-56.5 102h-2q-170 -146 -369 -146q-139 0 -231 68q-102 74 -102 207zM160 258q0 -81 44 -136t106 -77t136 -22q98 0 194 40.5t171 110.5v272q-171 52 -309 52q-66 0 -124 -12t-108.5 -38.5t-80 -75t-29.5 -114.5zM258 1153l246 336h49l246 -336h-45l-226 303l-225 -303h-45 z" />
<glyph unicode="&#xe3;" horiz-adv-x="1073" d="M113 252q0 147 116 223q101 66 273 66q137 0 309 -49v157q0 101 -18.5 159.5t-71.5 102.5q-89 74 -229 74q-173 0 -310 -98v51q136 92 310 92q160 0 262 -82q57 -47 80.5 -116.5t23.5 -167.5v-435q0 -98 27 -148t104 -50q42 0 74 16v-47q-35 -14 -78 -14q-68 0 -111.5 35 t-56.5 102h-2q-170 -146 -369 -146q-139 0 -231 68q-102 74 -102 207zM160 258q0 -81 44 -136t106 -77t136 -22q98 0 194 40.5t171 110.5v272q-171 52 -309 52q-66 0 -124 -12t-108.5 -38.5t-80 -75t-29.5 -114.5zM225 1257v56q25 41 66.5 68.5t91.5 27.5q61 0 158 -63 q46 -30 74.5 -43t60.5 -13q88 0 151 111h4v-55q-25 -42 -66.5 -69.5t-90.5 -27.5q-27 0 -56.5 10t-49.5 21.5t-52 32.5q-45 29 -74 42t-61 13q-89 0 -152 -111h-4z" />
<glyph unicode="&#xe4;" horiz-adv-x="1073" d="M113 252q0 147 116 223q101 66 273 66q137 0 309 -49v157q0 101 -18.5 159.5t-71.5 102.5q-89 74 -229 74q-173 0 -310 -98v51q136 92 310 92q160 0 262 -82q57 -47 80.5 -116.5t23.5 -167.5v-435q0 -98 27 -148t104 -50q42 0 74 16v-47q-35 -14 -78 -14q-68 0 -111.5 35 t-56.5 102h-2q-170 -146 -369 -146q-139 0 -231 68q-102 74 -102 207zM160 258q0 -81 44 -136t106 -77t136 -22q98 0 194 40.5t171 110.5v272q-171 52 -309 52q-66 0 -124 -12t-108.5 -38.5t-80 -75t-29.5 -114.5zM297 1321q0 22 15.5 37.5t37.5 15.5t37.5 -15.5t15.5 -37.5 t-15.5 -37.5t-37.5 -15.5t-37.5 15.5t-15.5 37.5zM653 1321q0 22 16 37.5t38 15.5t37.5 -15.5t15.5 -37.5t-15.5 -37.5t-37.5 -15.5t-38 15.5t-16 37.5z" />
<glyph unicode="&#xe5;" horiz-adv-x="1073" d="M113 252q0 147 116 223q101 66 273 66q137 0 309 -49v157q0 101 -18.5 159.5t-71.5 102.5q-89 74 -229 74q-173 0 -310 -98v51q136 92 310 92q160 0 262 -82q57 -47 80.5 -116.5t23.5 -167.5v-435q0 -98 27 -148t104 -50q42 0 74 16v-47q-35 -14 -78 -14q-68 0 -111.5 35 t-56.5 102h-2q-170 -146 -369 -146q-139 0 -231 68q-102 74 -102 207zM160 258q0 -81 44 -136t106 -77t136 -22q98 0 194 40.5t171 110.5v272q-171 52 -309 52q-66 0 -124 -12t-108.5 -38.5t-80 -75t-29.5 -114.5zM309 1362q0 94 61.5 156.5t157.5 62.5q95 0 157.5 -62.5 t62.5 -156.5q0 -93 -62.5 -156t-157.5 -63q-96 0 -157.5 63t-61.5 156zM350 1362q0 -75 50 -127.5t128 -52.5t128.5 52.5t50.5 127.5t-50.5 127.5t-128.5 52.5t-128 -52.5t-50 -127.5z" />
<glyph unicode="&#xe6;" horiz-adv-x="1826" d="M113 252q0 147 116 223q101 66 273 66q127 0 301 -47v155q0 101 -18 159.5t-70 102.5q-86 74 -223 74q-173 0 -310 -98v51q136 92 310 92q157 0 256 -82q86 -72 98 -209h4q56 131 173.5 211t262.5 80q183 0 306.5 -124.5t123.5 -334.5q0 -33 -4 -73h-862 q3 -212 136.5 -343.5t344.5 -131.5q182 0 322 106v-55q-146 -97 -332 -97q-132 0 -239 52.5t-177 148.5q-213 -201 -459 -201q-139 0 -231 68q-102 74 -102 207zM160 258q0 -81 44 -136t106 -77t136 -22q239 0 435 190q-68 114 -76 236q-169 49 -303 49q-66 0 -124 -12 t-108.5 -38.5t-80 -75t-29.5 -114.5zM850 543h819v22q0 95 -26 170t-66 121t-93 76t-102 41.5t-98 11.5q-76 0 -150 -30t-135.5 -84.5t-101.5 -140t-47 -187.5z" />
<glyph unicode="&#xe7;" horiz-adv-x="1054" d="M115 502q0 226 145.5 377t376.5 151q145 0 272 -65v-54q-133 74 -272 74q-209 0 -342 -137t-133 -346q0 -210 133 -344.5t338 -134.5q167 0 291 83v-55q-135 -74 -295 -74l-27 -96q195 -35 195 -172q0 -72 -50 -117t-131 -45q-73 0 -145 35l12 41q74 -33 135 -33 q58 0 95 31t37 84q0 37 -19 64.5t-51 42.5t-63.5 22t-67.5 10l39 136q-210 13 -341.5 160.5t-131.5 361.5z" />
<glyph unicode="&#xe8;" horiz-adv-x="1144" d="M115 504q0 227 140.5 376.5t344.5 149.5q185 0 309.5 -124.5t124.5 -334.5q0 -33 -4 -73h-868q2 -205 134 -340t343 -135q189 0 332 106v-55q-149 -97 -334 -97q-227 0 -374.5 148t-147.5 379zM164 543h823v22q0 95 -26 170t-66.5 121t-94 76t-103.5 41.5t-99 11.5 q-79 0 -153.5 -30t-135 -84.5t-99.5 -139.5t-46 -188zM422 1489h51l197 -336h-43z" />
<glyph unicode="&#xe9;" horiz-adv-x="1144" d="M115 504q0 227 140.5 376.5t344.5 149.5q185 0 309.5 -124.5t124.5 -334.5q0 -33 -4 -73h-868q2 -205 134 -340t343 -135q189 0 332 106v-55q-149 -97 -334 -97q-227 0 -374.5 148t-147.5 379zM164 543h823v22q0 95 -26 170t-66.5 121t-94 76t-103.5 41.5t-99 11.5 q-79 0 -153.5 -30t-135 -84.5t-99.5 -139.5t-46 -188zM498 1153l196 336h51l-204 -336h-43z" />
<glyph unicode="&#xea;" horiz-adv-x="1144" d="M115 504q0 227 140.5 376.5t344.5 149.5q185 0 309.5 -124.5t124.5 -334.5q0 -33 -4 -73h-868q2 -205 134 -340t343 -135q189 0 332 106v-55q-149 -97 -334 -97q-227 0 -374.5 148t-147.5 379zM164 543h823v22q0 95 -26 170t-66.5 121t-94 76t-103.5 41.5t-99 11.5 q-79 0 -153.5 -30t-135 -84.5t-99.5 -139.5t-46 -188zM313 1153l246 336h49l246 -336h-45l-225 303l-226 -303h-45z" />
<glyph unicode="&#xeb;" horiz-adv-x="1144" d="M115 504q0 227 140.5 376.5t344.5 149.5q185 0 309.5 -124.5t124.5 -334.5q0 -33 -4 -73h-868q2 -205 134 -340t343 -135q189 0 332 106v-55q-149 -97 -334 -97q-227 0 -374.5 148t-147.5 379zM164 543h823v22q0 95 -26 170t-66.5 121t-94 76t-103.5 41.5t-99 11.5 q-79 0 -153.5 -30t-135 -84.5t-99.5 -139.5t-46 -188zM352 1321q0 22 16 37.5t38 15.5t37.5 -15.5t15.5 -37.5t-15.5 -37.5t-37.5 -15.5t-38 15.5t-16 37.5zM709 1321q0 22 15.5 37.5t37.5 15.5t37.5 -15.5t15.5 -37.5t-15.5 -37.5t-37.5 -15.5t-37.5 15.5t-15.5 37.5z" />
<glyph unicode="&#xec;" horiz-adv-x="444" d="M59 1489h52l196 -336h-43zM199 0v1008h47v-1008h-47z" />
<glyph unicode="&#xed;" horiz-adv-x="444" d="M135 1153l197 336h51l-205 -336h-43zM199 0v1008h47v-1008h-47z" />
<glyph unicode="&#xee;" horiz-adv-x="444" d="M-49 1153l246 336h49l246 -336h-46l-225 303l-225 -303h-45zM199 0v1008h47v-1008h-47z" />
<glyph unicode="&#xef;" horiz-adv-x="444" d="M-10 1321q0 22 15.5 37.5t37.5 15.5t37.5 -15.5t15.5 -37.5t-15.5 -37.5t-37.5 -15.5t-37.5 15.5t-15.5 37.5zM199 0v1008h47v-1008h-47zM346 1321q0 22 15.5 37.5t37.5 15.5t38 -15.5t16 -37.5t-16 -37.5t-38 -15.5t-37.5 15.5t-15.5 37.5z" />
<glyph unicode="&#xf0;" horiz-adv-x="1200" d="M102 489q0 222 140.5 364t355.5 142q129 0 238.5 -54t173.5 -153l2 3q-98 300 -324 507l-309 -116l-12 43l284 106q-114 97 -272 168l29 37q155 -68 292 -186l189 71l12 -43l-166 -61q177 -167 271 -385t94 -416q0 -132 -42 -237.5t-113 -170t-159.5 -98t-187.5 -33.5 q-215 0 -355.5 144.5t-140.5 367.5zM150 487q0 -202 125.5 -332t324.5 -130q136 0 241 66t158.5 173.5t53.5 237.5q0 106 -38.5 193t-103 141.5t-145.5 84t-170 29.5q-195 0 -320.5 -131t-125.5 -332z" />
<glyph unicode="&#xf1;" horiz-adv-x="1212" d="M199 0v1008h47v-160l2 -2q212 184 426 184q158 0 250 -92q94 -94 94 -305v-633h-47v625q0 105 -19 169.5t-63 110.5q-77 80 -217 80q-212 0 -426 -194v-791h-47zM303 1257v56q25 41 66.5 68.5t91.5 27.5q38 0 73.5 -16t83.5 -47q46 -30 75 -43t61 -13q88 0 151 111h4v-55 q-25 -42 -66.5 -69.5t-90.5 -27.5q-27 0 -56.5 10t-49.5 21.5t-52 32.5q-45 29 -74 42t-61 13q-89 0 -152 -111h-4z" />
<glyph unicode="&#xf2;" d="M115 504q0 224 145 375t365 151t365 -151t145 -375q0 -147 -65.5 -267.5t-182.5 -190t-262 -69.5t-262 69.5t-182.5 190t-65.5 267.5zM162 504q0 -207 132.5 -344t330.5 -137t330 137t132 344t-132 344t-330 137t-330.5 -137t-132.5 -344zM463 1489h51l197 -336h-43z" />
<glyph unicode="&#xf3;" d="M115 504q0 224 145 375t365 151t365 -151t145 -375q0 -147 -65.5 -267.5t-182.5 -190t-262 -69.5t-262 69.5t-182.5 190t-65.5 267.5zM162 504q0 -207 132.5 -344t330.5 -137t330 137t132 344t-132 344t-330 137t-330.5 -137t-132.5 -344zM539 1153l196 336h51l-204 -336 h-43z" />
<glyph unicode="&#xf4;" d="M115 504q0 224 145 375t365 151t365 -151t145 -375q0 -147 -65.5 -267.5t-182.5 -190t-262 -69.5t-262 69.5t-182.5 190t-65.5 267.5zM162 504q0 -207 132.5 -344t330.5 -137t330 137t132 344t-132 344t-330 137t-330.5 -137t-132.5 -344zM354 1153l246 336h49l246 -336 h-45l-225 303l-226 -303h-45z" />
<glyph unicode="&#xf5;" d="M115 504q0 224 145 375t365 151t365 -151t145 -375q0 -147 -65.5 -267.5t-182.5 -190t-262 -69.5t-262 69.5t-182.5 190t-65.5 267.5zM162 504q0 -207 132.5 -344t330.5 -137t330 137t132 344t-132 344t-330 137t-330.5 -137t-132.5 -344zM322 1257v56q25 42 66 69t91 27 q61 0 158 -63q46 -30 74.5 -43t60.5 -13q89 0 152 111h4v-55q-25 -42 -67 -69.5t-91 -27.5q-27 0 -56.5 10t-49.5 21.5t-52 32.5q-45 29 -74 42t-61 13q-88 0 -151 -111h-4z" />
<glyph unicode="&#xf6;" d="M115 504q0 224 145 375t365 151t365 -151t145 -375q0 -147 -65.5 -267.5t-182.5 -190t-262 -69.5t-262 69.5t-182.5 190t-65.5 267.5zM162 504q0 -207 132.5 -344t330.5 -137t330 137t132 344t-132 344t-330 137t-330.5 -137t-132.5 -344zM393 1321q0 22 15.5 37.5 t37.5 15.5t38 -15.5t16 -37.5t-16 -37.5t-38 -15.5t-37.5 15.5t-15.5 37.5zM750 1321q0 22 15.5 37.5t37.5 15.5t37.5 -15.5t15.5 -37.5t-15.5 -37.5t-37.5 -15.5t-37.5 15.5t-15.5 37.5z" />
<glyph unicode="&#xf7;" horiz-adv-x="1183" d="M111 721v43h962v-43h-962zM524 285q0 28 20 47.5t48 19.5t47.5 -19.5t19.5 -47.5t-19.5 -48t-47.5 -20t-48 20t-20 48zM524 1200q0 28 20 48t48 20t47.5 -20t19.5 -48t-19.5 -47.5t-47.5 -19.5t-48 19.5t-20 47.5z" />
<glyph unicode="&#xf8;" d="M115 504q0 224 145 375t365 151q184 0 319 -110l88 106l33 -27l-88 -106q75 -73 116.5 -173.5t41.5 -215.5q0 -147 -65.5 -267.5t-182.5 -190t-262 -69.5q-184 0 -320 111l-88 -106l-33 26l88 107q-75 73 -116 173.5t-41 215.5zM162 504q0 -106 37 -197.5t104 -156.5 l610 735q-124 100 -288 100q-198 0 -330.5 -137t-132.5 -344zM336 123q124 -100 289 -100q198 0 330 137t132 344q0 106 -37 197.5t-104 156.5z" />
<glyph unicode="&#xf9;" horiz-adv-x="1208" d="M193 408v600h47v-590q0 -229 79 -314q75 -81 224 -81q212 0 422 200v785h47v-1008h-47v166h-2q-201 -189 -428 -189q-163 0 -252 99q-49 53 -69.5 131.5t-20.5 200.5zM442 1489h52l196 -336h-43z" />
<glyph unicode="&#xfa;" horiz-adv-x="1208" d="M193 408v600h47v-590q0 -229 79 -314q75 -81 224 -81q212 0 422 200v785h47v-1008h-47v166h-2q-201 -189 -428 -189q-163 0 -252 99q-49 53 -69.5 131.5t-20.5 200.5zM518 1153l197 336h51l-205 -336h-43z" />
<glyph unicode="&#xfb;" horiz-adv-x="1208" d="M193 408v600h47v-590q0 -229 79 -314q75 -81 224 -81q212 0 422 200v785h47v-1008h-47v166h-2q-201 -189 -428 -189q-163 0 -252 99q-49 53 -69.5 131.5t-20.5 200.5zM334 1153l246 336h49l245 -336h-45l-225 303l-225 -303h-45z" />
<glyph unicode="&#xfc;" horiz-adv-x="1208" d="M193 408v600h47v-590q0 -229 79 -314q75 -81 224 -81q212 0 422 200v785h47v-1008h-47v166h-2q-201 -189 -428 -189q-163 0 -252 99q-49 53 -69.5 131.5t-20.5 200.5zM373 1321q0 22 15.5 37.5t37.5 15.5t37.5 -15.5t15.5 -37.5t-15.5 -37.5t-37.5 -15.5t-37.5 15.5 t-15.5 37.5zM729 1321q0 22 15.5 37.5t37.5 15.5t38 -15.5t16 -37.5t-16 -37.5t-38 -15.5t-37.5 15.5t-15.5 37.5z" />
<glyph unicode="&#xfd;" horiz-adv-x="1081" d="M82 1008h49l408 -846h2l409 846h49l-708 -1459h-51l276 562zM455 1153l196 336h51l-204 -336h-43z" />
<glyph unicode="&#xfe;" horiz-adv-x="1202" d="M199 -451v2016h47v-680l2 -2q158 147 360 147q210 0 346 -148t136 -376q0 -227 -138.5 -378t-361.5 -151q-181 0 -342 107l-2 -2v-533h-47zM246 137q159 -114 346 -114q135 0 238.5 64.5t157.5 174.5t54 246q0 206 -121.5 341.5t-314.5 135.5q-102 0 -195.5 -41.5 t-164.5 -118.5v-688z" />
<glyph unicode="&#xff;" horiz-adv-x="1081" d="M82 1008h49l408 -846h2l409 846h49l-708 -1459h-51l276 562zM309 1321q0 22 15.5 37.5t37.5 15.5t38 -15.5t16 -37.5t-16 -37.5t-38 -15.5t-37.5 15.5t-15.5 37.5zM666 1321q0 22 15.5 37.5t37.5 15.5t37.5 -15.5t15.5 -37.5t-15.5 -37.5t-37.5 -15.5t-37.5 15.5 t-15.5 37.5z" />
<glyph unicode="&#x152;" horiz-adv-x="1947" d="M113 737q0 152 58.5 291t152.5 234q218 221 645 221h833v-45h-719v-645h639v-45h-639v-703h736v-45h-850q-213 0 -358.5 46.5t-248.5 137.5q-114 100 -181.5 245t-67.5 308zM160 741q0 -153 61 -290t172 -234q197 -172 576 -172h67v1393h-67q-406 0 -611 -205 q-95 -95 -146.5 -223.5t-51.5 -268.5z" />
<glyph unicode="&#x153;" horiz-adv-x="2101" d="M115 504q0 224 144 375t362 151q175 0 304 -99.5t173 -258.5h4q45 160 170 259t289 99q183 0 306.5 -124.5t123.5 -334.5q0 -33 -4 -73h-863q3 -212 137 -343.5t345 -131.5q181 0 321 106v-55q-146 -97 -330 -97q-181 0 -315 98t-180 261h-4q-44 -160 -173 -259.5 t-304 -99.5q-218 0 -362 151.5t-144 375.5zM162 504q0 -207 131 -344t328 -137q196 0 326 137t130 344t-130 344t-326 137q-197 0 -328 -137t-131 -344zM1124 543h820v22q0 95 -26 170t-66 120.5t-93 76t-101.5 42t-96.5 11.5q-78 0 -152.5 -30t-136 -84.5t-101.5 -139.5 t-47 -188z" />
<glyph unicode="&#x178;" horiz-adv-x="1292" d="M47 1483h55l543 -766h2l543 766h55l-575 -811v-672h-47v672zM416 1796q0 22 15.5 37.5t37.5 15.5t37.5 -15.5t15.5 -37.5t-15.5 -37.5t-37.5 -15.5t-37.5 15.5t-15.5 37.5zM772 1796q0 22 15.5 37.5t37.5 15.5t38 -15.5t16 -37.5t-16 -37.5t-38 -15.5t-37.5 15.5 t-15.5 37.5z" />
<glyph unicode="&#x2c6;" horiz-adv-x="962" d="M211 1153l246 336h49l246 -336h-45l-226 303l-225 -303h-45z" />
<glyph unicode="&#x2dc;" horiz-adv-x="962" d="M178 1257v56q25 41 66.5 68.5t91.5 27.5q61 0 158 -63q46 -30 74.5 -43t60.5 -13q88 0 151 111h4v-55q-25 -42 -66.5 -69.5t-90.5 -27.5q-27 0 -56.5 10t-49.5 21.5t-52 32.5q-45 29 -74 42t-61 13q-89 0 -152 -111h-4z" />
<glyph unicode="&#x2000;" horiz-adv-x="1028" />
<glyph unicode="&#x2001;" horiz-adv-x="2056" />
<glyph unicode="&#x2002;" horiz-adv-x="1028" />
<glyph unicode="&#x2003;" horiz-adv-x="2056" />
<glyph unicode="&#x2004;" horiz-adv-x="685" />
<glyph unicode="&#x2005;" horiz-adv-x="514" />
<glyph unicode="&#x2006;" horiz-adv-x="342" />
<glyph unicode="&#x2007;" horiz-adv-x="342" />
<glyph unicode="&#x2008;" horiz-adv-x="257" />
<glyph unicode="&#x2009;" horiz-adv-x="411" />
<glyph unicode="&#x200a;" horiz-adv-x="114" />
<glyph unicode="&#x2010;" horiz-adv-x="749" d="M141 545v45h467v-45h-467z" />
<glyph unicode="&#x2011;" horiz-adv-x="749" d="M141 545v45h467v-45h-467z" />
<glyph unicode="&#x2012;" horiz-adv-x="749" d="M141 545v45h467v-45h-467z" />
<glyph unicode="&#x2013;" horiz-adv-x="1032" d="M115 547v43h803v-43h-803z" />
<glyph unicode="&#x2014;" horiz-adv-x="1630" d="M84 547v43h1462v-43h-1462z" />
<glyph unicode="&#x2018;" horiz-adv-x="550" d="M180 1001l137 519h37l-118 -519h-56z" />
<glyph unicode="&#x2019;" horiz-adv-x="550" d="M197 1001l118 519h56l-138 -519h-36z" />
<glyph unicode="&#x201a;" horiz-adv-x="550" d="M180 -182l119 518h55l-137 -518h-37z" />
<glyph unicode="&#x201c;" horiz-adv-x="827" d="M180 1001l137 519h37l-118 -519h-56zM457 1001l137 519h37l-119 -519h-55z" />
<glyph unicode="&#x201d;" horiz-adv-x="827" d="M197 1001l118 519h56l-138 -519h-36zM473 1001l119 519h55l-137 -519h-37z" />
<glyph unicode="&#x201e;" horiz-adv-x="823" d="M180 -182l119 518h55l-137 -518h-37zM453 -182l118 518h56l-138 -518h-36z" />
<glyph unicode="&#x2022;" horiz-adv-x="806" d="M219 608q0 77 54 131t130 54q77 0 131 -54.5t54 -130.5t-54 -130t-131 -54t-130.5 54t-53.5 130z" />
<glyph unicode="&#x2026;" horiz-adv-x="1740" d="M246 43q0 28 18.5 47t46.5 19t47 -19t19 -47t-19 -47t-47 -19t-46.5 19t-18.5 47zM805 43q0 28 18.5 47t46.5 19t47 -19t19 -47t-19 -47t-47 -19t-46.5 19t-18.5 47zM1364 43q0 28 19 47t47 19t46.5 -19t18.5 -47t-18.5 -47t-46.5 -19t-47 19t-19 47z" />
<glyph unicode="&#x202f;" horiz-adv-x="411" />
<glyph unicode="&#x2039;" horiz-adv-x="702" d="M147 504l349 448h55l-348 -448l348 -449h-55z" />
<glyph unicode="&#x203a;" horiz-adv-x="702" d="M152 55l348 449l-348 448h55l348 -448l-348 -449h-55z" />
<glyph unicode="&#x205f;" horiz-adv-x="514" />
<glyph unicode="&#x20ac;" horiz-adv-x="1239" d="M20 565v43h183q-8 78 -8 133q0 84 12 160h-187v43h195q54 253 232.5 407t447.5 154q112 0 217 -32v-52q-98 39 -215 39q-248 0 -414 -142t-219 -374h512v-43h-520q-14 -74 -14 -162q0 -76 8 -131h526v-43h-518q46 -245 215 -393.5t428 -148.5q132 0 238 45v-52 q-89 -39 -238 -39q-280 0 -461.5 162t-228.5 426h-191z" />
<glyph unicode="&#x2122;" horiz-adv-x="1349" d="M78 1444v39h442v-39h-201v-555h-40v555h-201zM631 889v594h45l227 -336l234 336h43v-594h-41v526h-4l-232 -334l-229 340h-4v-532h-39z" />
<glyph unicode="&#x25fc;" horiz-adv-x="1003" d="M0 0v1004h1004v-1004h-1004z" />
</font>
</defs>
</svg>
