<?xml version="1.0" standalone="no"?>
<!DOCTYPE svg PUBLIC "-//W3C//DTD SVG 1.1//EN" "http://www.w3.org/Graphics/SVG/1.1/DTD/svg11.dtd" >
<svg xmlns="http://www.w3.org/2000/svg" xmlns:xlink="http://www.w3.org/1999/xlink" version="1.1">
<metadata></metadata>
<defs>
<font id="azo_sansregular" horiz-adv-x="1212" >
<font-face units-per-em="2048" ascent="1581" descent="-467" />
<missing-glyph horiz-adv-x="495" />
<glyph unicode="&#xfb01;" d="M53 842v166h160v192q0 107 19.5 180.5t70.5 122.5q87 84 236 84q81 0 151 -20v-166q-70 18 -143 18q-46 0 -77 -14.5t-46 -42.5t-21 -59.5t-6 -75.5v-219h258v-166h-258v-842h-184v842h-160zM829 1354q0 54 37.5 91.5t91.5 37.5t91.5 -37.5t37.5 -91.5t-37.5 -91.5 t-91.5 -37.5t-91.5 37.5t-37.5 91.5zM866 0v1008h185v-1008h-185z" />
<glyph unicode="&#xfb02;" d="M53 842v166h160v192q0 107 19.5 180.5t70.5 122.5q87 84 236 84q81 0 151 -20v-166q-70 18 -143 18q-46 0 -77 -14.5t-46 -42.5t-21 -59.5t-6 -75.5v-219h258v-166h-258v-842h-184v842h-160zM866 0v1565h185v-1565h-185z" />
<glyph horiz-adv-x="2" />
<glyph horiz-adv-x="2" />
<glyph horiz-adv-x="682" />
<glyph unicode="&#xd;" horiz-adv-x="714" />
<glyph unicode=" "  horiz-adv-x="495" />
<glyph unicode="&#x09;" horiz-adv-x="495" />
<glyph unicode="&#xa0;" horiz-adv-x="495" />
<glyph unicode="!" horiz-adv-x="626" d="M186 106q0 54 37.5 92t91.5 38t91.5 -38t37.5 -92t-37.5 -91.5t-91.5 -37.5t-91.5 37.5t-37.5 91.5zM209 1483h213l-49 -1028h-115z" />
<glyph unicode="&#x22;" horiz-adv-x="720" d="M104 1520h175l-31 -551h-113zM442 1520h174l-30 -551h-113z" />
<glyph unicode="#" horiz-adv-x="1265" d="M29 457l34 125h254l93 319h-254l34 125h254l131 457h132l-132 -457h277l131 457h131l-131 -457h254l-35 -125h-254l-92 -319h254l-35 -125h-254l-131 -457h-131l131 457h-276l-131 -457h-131l131 457h-254zM449 582h276l92 319h-276z" />
<glyph unicode="$" horiz-adv-x="1175" d="M133 1024q0 154 98 245.5t265 110.5v258h151v-258q179 -13 324 -96v-197q-90 60 -197.5 92.5t-204.5 32.5q-113 0 -179 -44.5t-66 -133.5q0 -22 5 -40.5t12 -33t21 -27.5t26.5 -22.5t34 -18.5t37 -15t42.5 -13t44.5 -11t48 -11t48.5 -11q69 -16 120.5 -32.5t105.5 -45.5 t88.5 -66t56.5 -93t22 -127q0 -161 -106.5 -258.5t-282.5 -112.5v-252h-151v254q-181 16 -328 95v202q92 -63 202.5 -96t213.5 -33q121 0 191.5 48.5t70.5 142.5q0 29 -8.5 52.5t-19 40.5t-34.5 33t-40.5 24.5t-53 19.5t-54.5 15.5t-63 15t-63 14.5q-66 15 -115.5 31.5 t-101.5 45t-85 64t-54 89.5t-21 122z" />
<glyph unicode="%" horiz-adv-x="1908" d="M111 1122q0 164 100.5 273.5t255.5 109.5t255.5 -109.5t100.5 -273.5t-100.5 -273.5t-255.5 -109.5t-255.5 109.5t-100.5 273.5zM244 1122q0 -108 63.5 -182t159.5 -74t159.5 74t63.5 182t-63.5 182t-159.5 74t-159.5 -74t-63.5 -182zM401 0l965 1483h141l-964 -1483 h-142zM1085 360q0 164 100.5 273.5t256.5 109.5q155 0 255.5 -109.5t100.5 -273.5t-100.5 -273.5t-255.5 -109.5q-156 0 -256.5 109.5t-100.5 273.5zM1219 360q0 -108 63.5 -182t159.5 -74t159.5 74t63.5 182t-63.5 182t-159.5 74t-159.5 -74t-63.5 -182z" />
<glyph unicode="&#x26;" horiz-adv-x="1437" d="M119 395q0 231 256 381l49 29l-45 47q-74 75 -112 147.5t-38 159.5q0 153 108.5 249.5t270.5 96.5q166 0 271.5 -99.5t105.5 -246.5q0 -196 -203 -328l-84 -55l291 -293l127 406h191l-177 -547l336 -338l-2 -4h-233l-176 176q-64 -91 -175 -145t-266 -54 q-119 0 -215 34.5t-156 93t-92 133t-32 157.5zM303 401q0 -106 85 -181t233 -75q210 0 299 164l-375 377l-78 -45q-164 -96 -164 -240zM414 1157q0 -50 24 -95.5t78 -100.5l64 -66l92 61q129 85 129 199q0 82 -56 131t-141 49q-87 0 -138.5 -51t-51.5 -127z" />
<glyph unicode="'" horiz-adv-x="382" d="M104 1520h175l-31 -551h-113z" />
<glyph unicode="(" horiz-adv-x="716" d="M150 543q0 309 81.5 558.5t212.5 420.5h183q-138 -179 -223 -431.5t-85 -547.5t85 -547.5t223 -431.5h-183q-131 171 -212.5 420.5t-81.5 558.5z" />
<glyph unicode=")" horiz-adv-x="716" d="M90 -436q138 179 222.5 431.5t84.5 547.5t-84.5 547.5t-222.5 431.5h182q131 -172 213 -421t82 -558t-82 -558t-213 -421h-182z" />
<glyph unicode="*" horiz-adv-x="935" d="M63 1147l43 135l291 -123l-24 -82zM176 805l205 237l70 -49l-164 -270zM399 1491h138l-27 -311h-84zM485 993l70 49l205 -237l-111 -82zM539 1159l290 123l43 -135l-309 -70z" />
<glyph unicode="+" horiz-adv-x="1204" d="M109 668v147h417v430h152v-430h418v-147h-418v-430h-152v430h-417z" />
<glyph unicode="," horiz-adv-x="602" d="M115 -301l114 580h187l-166 -580h-135z" />
<glyph unicode="-" horiz-adv-x="720" d="M117 485v164h487v-164h-487z" />
<glyph unicode="." horiz-adv-x="602" d="M168 113q0 55 40 95t95 40t95 -40t40 -95q0 -56 -40 -96t-95 -40t-95 40t-40 96z" />
<glyph unicode="/" horiz-adv-x="913" d="M37 -78l688 1639h152l-689 -1639h-151z" />
<glyph unicode="0" horiz-adv-x="1265" d="M127 741q0 392 141 584q65 88 159.5 134t205.5 46t205 -46t159 -134q142 -194 142 -584q0 -389 -142 -583q-66 -89 -159.5 -135t-204.5 -46t-205.5 46t-159.5 135q-141 192 -141 583zM322 741q0 -346 106 -483q80 -100 205 -100t205 100q106 137 106 483q0 347 -106 484 q-80 100 -205 100t-205 -100q-106 -137 -106 -484z" />
<glyph unicode="1" horiz-adv-x="1042" d="M158 1112v186l534 207v-1505h-194v1243z" />
<glyph unicode="2" horiz-adv-x="1150" d="M49 4l490 588q132 158 189.5 263.5t57.5 205.5q0 126 -80 195t-212 69q-82 0 -169.5 -28t-162.5 -83v197q63 41 152.5 67.5t189.5 26.5q134 0 240 -48t171.5 -148t65.5 -238q0 -142 -70 -275t-215 -307l-258 -309l2 -4h594v-176h-983z" />
<glyph unicode="3" horiz-adv-x="1136" d="M109 115v223q183 -180 405 -180q135 0 219 68t84 184q0 113 -80.5 180t-234.5 67h-140v172h134q137 0 213.5 68.5t76.5 179.5q0 114 -78 181t-206 67q-163 0 -305 -100v198q137 82 315 82q205 0 337 -113t132 -296q0 -124 -64.5 -214t-173.5 -122v-4q132 -28 200.5 -124 t68.5 -226q0 -192 -139.5 -310.5t-356.5 -118.5q-123 0 -230.5 38.5t-176.5 99.5z" />
<glyph unicode="4" horiz-adv-x="1308" d="M37 362l764 1121h178v-953h266v-172h-266v-358h-193v358h-747zM348 535l2 -5h436v351q0 78 5 303l-5 2q-54 -88 -184 -279z" />
<glyph unicode="5" horiz-adv-x="1114" d="M115 76l14 203q164 -121 358 -121q147 0 239.5 70.5t92.5 191.5q0 66 -30 117.5t-77.5 83t-112.5 52t-127.5 28.5t-129.5 8q-80 0 -166 -13l60 787h737l-15 -176h-542l-31 -428q96 0 183.5 -14t170 -47.5t142.5 -84t96.5 -129t36.5 -176.5q0 -204 -146 -327.5 t-381 -123.5q-214 0 -372 99z" />
<glyph unicode="6" horiz-adv-x="1226" d="M104 467q0 104 40.5 212t140.5 269l331 535h224l-353 -561q-40 -62 -55 -91l4 -2q90 66 226 66q125 0 228 -57.5t162.5 -160.5t59.5 -231q0 -203 -143 -336t-361 -133q-219 0 -361.5 135.5t-142.5 354.5zM301 449q0 -119 87 -209t222 -90q128 0 219 81t91 209 q0 124 -86.5 207.5t-219.5 83.5q-131 0 -222 -80.5t-91 -201.5z" />
<glyph unicode="7" horiz-adv-x="1142" d="M98 1307v176h967l2 -4l-618 -1479h-203l547 1307h-695z" />
<glyph unicode="8" horiz-adv-x="1236" d="M121 416q0 131 67.5 228t188.5 138v4q-215 88 -215 314q0 175 126.5 290t329.5 115t330 -115t127 -290q0 -226 -215 -314v-4q121 -41 188.5 -138t67.5 -228q0 -191 -137.5 -315t-360.5 -124t-360 124t-137 315zM313 420q0 -120 87.5 -195t217.5 -75t218 75.5t88 194.5 q0 120 -89 197t-217 77t-216.5 -77t-88.5 -197zM346 1092q0 -104 79 -173t193 -69t193.5 69t79.5 173q0 105 -78 173t-195 68q-116 0 -194 -68t-78 -173z" />
<glyph unicode="9" horiz-adv-x="1200" d="M92 1034q0 134 66 242t182 168.5t260 60.5q217 0 356.5 -132.5t139.5 -344.5q0 -119 -43.5 -224t-134.5 -251l-347 -553h-223l397 633l-4 4q-81 -49 -200 -49q-89 0 -171 33t-143.5 90.5t-98 141.5t-36.5 181zM285 1040q0 -122 85.5 -204t221.5 -82t221.5 82.5 t85.5 201.5q0 118 -87 205.5t-218 87.5q-127 0 -218 -81.5t-91 -209.5z" />
<glyph unicode=":" horiz-adv-x="602" d="M168 111q0 55 39 94t94 39t94 -39t39 -94q0 -56 -39 -95t-94 -39t-94 39t-39 95zM168 897q0 55 39 94t94 39t94 -39t39 -94t-39 -94t-94 -39t-94 39t-39 94z" />
<glyph unicode=";" horiz-adv-x="602" d="M115 -301l114 580h187l-166 -580h-135zM168 897q0 55 39 94t94 39t94 -39t39 -94t-39 -94t-94 -39t-94 39t-39 94z" />
<glyph unicode="&#x3c;" horiz-adv-x="1406" d="M184 688v107l1039 442v-158l-793 -336v-4l793 -336v-157z" />
<glyph unicode="=" horiz-adv-x="1204" d="M109 459v147h987v-147h-987zM109 877v147h987v-147h-987z" />
<glyph unicode="&#x3e;" horiz-adv-x="1406" d="M184 246v157l793 336v4l-793 336v158l1039 -442v-107z" />
<glyph unicode="?" horiz-adv-x="956" d="M109 1423q58 37 137.5 59.5t161.5 22.5q202 0 337.5 -129t135.5 -315q0 -179 -126 -303t-315 -146l9 -221h-173l-43 369q134 0 234 30t159.5 96t59.5 163q0 121 -82 198.5t-203 77.5q-66 0 -140.5 -24t-131.5 -66zM258 106q0 54 37.5 92t91.5 38t91.5 -38t37.5 -92 t-37.5 -91.5t-91.5 -37.5t-91.5 37.5t-37.5 91.5z" />
<glyph unicode="@" horiz-adv-x="1652" d="M70 504q0 213 97.5 387.5t271.5 275.5t388 101q161 0 302.5 -60t240.5 -161.5t156 -239.5t57 -291q0 -183 -80 -294t-231 -111q-85 0 -144.5 34.5t-89.5 90.5h-4q-109 -127 -272 -127q-141 0 -231.5 97.5t-90.5 252.5q0 85 28.5 164t80 140.5t128.5 98.5t167 37 q113 0 211 -72l114 21l-34 -399q-2 -20 -2 -37q0 -97 40 -148t113 -51q89 0 142 73.5t53 219.5q0 179 -80 329.5t-230.5 242t-341.5 91.5q-145 0 -269 -53.5t-208.5 -144t-132 -212t-47.5 -255.5q0 -135 47.5 -256.5t131.5 -212t207.5 -144t266.5 -53.5q253 0 435 154 l55 -84q-98 -82 -224 -125t-264 -43q-215 0 -389 101t-271 275.5t-97 387.5zM575 463q0 -105 55.5 -170.5t151.5 -65.5q61 0 119.5 29.5t99.5 85.5q-4 35 3 115l20 243q-35 35 -84.5 57.5t-103.5 22.5q-115 0 -188 -96t-73 -221z" />
<glyph unicode="A" horiz-adv-x="1429" d="M10 0l611 1483h186l612 -1483h-209l-166 414h-667l-168 -414h-199zM444 584h533l-121 307q-84 212 -141 366h-4q-42 -114 -146 -372z" />
<glyph unicode="B" horiz-adv-x="1298" d="M166 0v1483h397q141 0 232 -17t163 -61q175 -105 175 -303q0 -120 -63 -199.5t-163 -114.5v-4q134 -32 209.5 -119.5t75.5 -226.5q0 -106 -44 -194.5t-126 -145.5q-76 -54 -186 -76t-277 -22h-393zM360 176h211q127 0 203 14.5t127 49.5q96 67 96 194q0 122 -91.5 187 t-258.5 65h-287v-510zM360 836h293q78 0 140.5 23t103.5 76.5t41 131.5q0 125 -104 188q-51 30 -117 41t-180 11h-177v-471z" />
<glyph unicode="C" horiz-adv-x="1394" d="M84 737q0 157 56 297.5t155 244.5t245 165t316 61q234 0 418 -104v-213q-86 63 -195.5 100t-224.5 37q-166 0 -298 -77t-204.5 -210t-72.5 -297t73 -296.5t209 -209.5t309 -77q241 0 426 149v-215q-88 -56 -202.5 -85.5t-233.5 -29.5q-166 0 -311 58t-246.5 159 t-160 241.5t-58.5 301.5z" />
<glyph unicode="D" horiz-adv-x="1505" d="M166 0v1483h407q323 0 525 -121q159 -96 245.5 -257.5t86.5 -356.5q0 -185 -77 -341.5t-218 -256.5q-115 -81 -263 -115.5t-348 -34.5h-358zM360 176h195q143 0 249 22t191 76q109 70 174.5 192.5t65.5 274.5q0 154 -66 273.5t-172 189.5q-89 59 -198.5 81t-247.5 22 h-191v-1131z" />
<glyph unicode="E" horiz-adv-x="1128" d="M166 0v1483h856v-176h-662v-451h580v-170h-580v-510h680v-176h-874z" />
<glyph unicode="F" horiz-adv-x="1138" d="M166 0v1483h876v-176h-682v-480h601v-170h-601v-657h-194z" />
<glyph unicode="G" horiz-adv-x="1505" d="M84 737q0 162 58 304t160 244t248 161t316 59q257 0 455 -123v-221q-92 76 -211.5 120t-247.5 44q-170 0 -304 -78t-206.5 -211t-72.5 -295q0 -118 41 -224.5t114.5 -187t186 -128t247.5 -47.5q171 0 303 69v346h-331v170h526v-612q-100 -69 -237 -109.5t-277 -40.5 q-162 0 -304.5 57.5t-244 157t-160.5 241.5t-59 304z" />
<glyph unicode="H" horiz-adv-x="1527" d="M166 0v1483h194v-625h807v625h195v-1483h-195v682h-807v-682h-194z" />
<glyph unicode="I" horiz-adv-x="526" d="M166 0v1483h194v-1483h-194z" />
<glyph unicode="J" horiz-adv-x="815" d="M59 20v185q112 -47 211 -47q47 0 80.5 12.5t53.5 33.5t31.5 56t15.5 71.5t4 88.5v1063h194v-1053q0 -128 -19 -204.5t-59 -125.5q-101 -123 -297 -123q-97 0 -215 43z" />
<glyph unicode="K" horiz-adv-x="1284" d="M166 0v1483h194v-672l5 -2l647 674h241l-665 -688l723 -795h-254l-692 766l-5 -2v-764h-194z" />
<glyph unicode="L" horiz-adv-x="1120" d="M166 0v1483h194v-1307h701v-176h-895z" />
<glyph unicode="M" horiz-adv-x="1759" d="M166 0v1483h188l527 -754l526 754h186v-1483h-194v836q0 145 4 321l-4 2q-165 -245 -199 -293l-323 -463l-324 463q-34 48 -199 293l-4 -2q4 -176 4 -321v-836h-188z" />
<glyph unicode="N" horiz-adv-x="1581" d="M166 0v1483h184l621 -824q134 -176 256 -346l4 2q-4 258 -4 422v746h188v-1483h-184l-621 823q-134 176 -256 346l-4 -2q4 -258 4 -422v-745h-188z" />
<glyph unicode="O" horiz-adv-x="1671" d="M82 741q0 159 58 300.5t157.5 243t239.5 161t299 59.5q211 0 384 -100.5t271 -276t98 -387.5t-98 -387.5t-271 -276t-384 -100.5q-159 0 -299 59.5t-239.5 161t-157.5 243t-58 300.5zM276 741q0 -161 71.5 -294.5t200.5 -211t288 -77.5t287.5 77.5t200 211t71.5 294.5 q0 162 -71.5 295.5t-200 211t-287.5 77.5q-119 0 -223.5 -45.5t-178 -124t-116 -186t-42.5 -228.5z" />
<glyph unicode="P" horiz-adv-x="1273" d="M166 0v1483h387q146 0 248.5 -14.5t189.5 -63.5q215 -120 215 -367q0 -122 -54 -217t-146 -151q-87 -53 -202 -68.5t-290 -15.5h-154v-586h-194zM360 756h179q144 0 220 10.5t134 44.5q119 72 119 219q0 159 -138 230q-61 31 -135.5 39t-201.5 8h-177v-551z" />
<glyph unicode="Q" horiz-adv-x="1671" d="M82 741q0 159 58 300.5t157.5 243t239.5 161t299 59.5q211 0 384 -100.5t271 -276t98 -387.5q0 -260 -144.5 -459t-379.5 -270v-4q215 -146 473 -237l-190 -115q-270 107 -529 321h2q-156 3 -293 63.5t-235 161.5t-154.5 241.5t-56.5 297.5zM276 741q0 -161 71.5 -294.5 t200.5 -211t288 -77.5t287.5 77.5t200 211t71.5 294.5q0 162 -71.5 295.5t-200 211t-287.5 77.5q-119 0 -223.5 -45.5t-178 -124t-116 -186t-42.5 -228.5z" />
<glyph unicode="R" horiz-adv-x="1323" d="M166 0v1483h401q138 0 235 -14t179 -60q96 -53 150.5 -140t54.5 -206q0 -116 -51.5 -205.5t-139.5 -142.5q-74 -46 -170 -62l475 -653h-235l-453 635h-252v-635h-194zM360 795h252q202 0 291 67q88 66 88 185q0 143 -121 210q-56 30 -127.5 40t-189.5 10h-193v-512z" />
<glyph unicode="S" horiz-adv-x="1148" d="M94 1092q0 194 130 303.5t349 109.5q111 0 226 -28t200 -82v-205q-96 67 -212 102t-218 35q-129 0 -205.5 -56.5t-76.5 -166.5q0 -49 17.5 -87t42.5 -62t70.5 -45t82 -32.5t95.5 -27.5q29 -8 44 -12q75 -21 128 -41t114 -55t98.5 -78t62.5 -108.5t25 -147.5 q0 -200 -135.5 -315.5t-360.5 -115.5q-111 0 -229 29.5t-211 83.5v213q97 -73 216.5 -110t225.5 -37q137 0 219 61.5t82 179.5q0 37 -9.5 68t-24 54t-40 42.5t-50.5 33t-62 27t-68 22.5t-74 21q-27 7 -40 11q-59 17 -104 33t-95 40.5t-86 55.5t-66 71.5t-45.5 95 t-15.5 120.5z" />
<glyph unicode="T" horiz-adv-x="1271" d="M41 1307v176h1190v-176h-498v-1307h-194v1307h-498z" />
<glyph unicode="U" horiz-adv-x="1495" d="M150 698v785h194v-764q0 -144 12.5 -232.5t44.5 -150.5q95 -178 353 -178q255 0 348 178q33 62 44 148.5t11 226.5v772h189v-762q0 -183 -19.5 -302t-79.5 -210q-72 -109 -202.5 -170.5t-299.5 -61.5t-297.5 62t-199.5 170q-59 91 -78.5 208.5t-19.5 280.5z" />
<glyph unicode="V" horiz-adv-x="1359" d="M10 1483h209l316 -832q76 -200 145 -393h4q53 146 150 399l317 826h199l-570 -1483h-198z" />
<glyph unicode="W" horiz-adv-x="2074" d="M25 1483h206l248 -803q64 -206 117 -387h4q37 127 119 389l252 801h143l252 -803q78 -248 119 -387h4q45 156 117 389l247 801h197l-461 -1483h-207l-237 754q-59 188 -105 344h-4q-65 -224 -104 -346l-236 -752h-211z" />
<glyph unicode="X" horiz-adv-x="1349" d="M-4 0l555 786l-488 697h232l227 -328q111 -159 160 -235h4q63 97 160 237l225 326h217l-485 -697l555 -786h-234l-284 406q-100 143 -168 245h-4q-70 -106 -164 -239l-289 -412h-219z" />
<glyph unicode="Y" horiz-adv-x="1341" d="M4 1483h225l252 -363q191 -278 193 -282h4q73 113 192 284l250 361h217l-567 -811v-672h-195v670z" />
<glyph unicode="Z" horiz-adv-x="1308" d="M59 4l840 1299l-2 4h-784v176h1126l2 -4l-840 -1299l2 -4h822v-176h-1164z" />
<glyph unicode="[" horiz-adv-x="737" d="M197 -436v1958h444v-148h-274v-1663h274v-147h-444z" />
<glyph unicode="\" horiz-adv-x="913" d="M37 1561h151l689 -1639h-152z" />
<glyph unicode="]" horiz-adv-x="737" d="M96 -289h275v1663h-275v148h445v-1958h-445v147z" />
<glyph unicode="^" horiz-adv-x="1177" d="M145 741l377 764h133l377 -764h-153l-289 564h-2l-289 -564h-154z" />
<glyph unicode="_" horiz-adv-x="972" d="M0 -184h973v-107h-973v107z" />
<glyph unicode="`" horiz-adv-x="1028" d="M268 1489h207l158 -336h-139z" />
<glyph unicode="a" horiz-adv-x="1089" d="M94 272q0 161 133 246q105 68 283 68q104 0 215 -27v84q0 112 -57 166q-61 55 -187 55q-171 0 -309 -100v180q143 86 336 86q201 0 301 -92q100 -90 100 -264v-428q0 -49 19.5 -78t58.5 -29q30 0 60 15v-154q-45 -18 -99 -18q-62 0 -114 27t-80 79h-4q-48 -45 -132 -78 t-178 -33q-143 0 -239 72q-107 79 -107 223zM281 289q0 -71 53.5 -109.5t138.5 -38.5q69 0 136.5 24.5t115.5 63.5v189q-89 26 -197 26q-107 0 -177 -36.5t-70 -118.5z" />
<glyph unicode="b" horiz-adv-x="1218" d="M162 0v1565h184v-615l4 -2q126 82 285 82q101 0 191 -37.5t156.5 -103.5t105 -162.5t38.5 -208.5q0 -234 -151.5 -387.5t-382.5 -153.5q-120 0 -252 54zM346 205q50 -29 119.5 -47.5t132.5 -18.5q152 0 247 104.5t95 264.5q0 155 -90.5 255.5t-237.5 100.5 q-150 0 -266 -94v-565z" />
<glyph unicode="c" horiz-adv-x="1044" d="M92 498q0 152 74 274.5t202 190t283 67.5q150 0 273 -63v-191q-136 86 -281 86q-161 0 -262.5 -104.5t-101.5 -259.5t103.5 -254t266.5 -99t291 99v-197q-128 -70 -301 -70q-238 0 -392.5 148t-154.5 373z" />
<glyph unicode="d" horiz-adv-x="1222" d="M96 487q0 153 67 277t189.5 195t278.5 71q120 0 241 -53l5 2v586h184v-1565h-184v61l-5 2q-124 -86 -282 -86q-136 0 -248 61.5t-179 179t-67 269.5zM283 498q0 -155 89.5 -256t241.5 -101q137 0 263 86v576q-122 63 -248 63q-157 0 -251.5 -104.5t-94.5 -263.5z" />
<glyph unicode="e" horiz-adv-x="1153" d="M92 504q0 154 69.5 275.5t183.5 186t249 64.5q125 0 228 -55t167 -167.5t64 -264.5q0 -55 -6 -92h-771q20 -147 120.5 -227.5t252.5 -80.5q184 0 348 125v-196q-68 -43 -165.5 -69t-194.5 -26q-236 0 -390.5 146t-154.5 381zM281 596h593q-6 72 -33.5 126t-69.5 84 t-87.5 44t-93.5 14q-109 0 -197.5 -68.5t-111.5 -199.5z" />
<glyph unicode="f" horiz-adv-x="704" d="M53 842v166h160v192q0 107 19.5 180.5t70.5 122.5q87 84 236 84q81 0 151 -20v-166q-70 18 -143 18q-46 0 -77 -14.5t-46 -42.5t-21 -59.5t-6 -75.5v-219h258v-166h-258v-842h-184v842h-160z" />
<glyph unicode="g" horiz-adv-x="1218" d="M98 502q0 107 36 202.5t102 168t165.5 115t219.5 42.5q139 0 256 -57l178 31v-1000q0 -221 -137 -349t-369 -128q-172 0 -320 76v196q158 -104 320 -104q146 0 233.5 82t87.5 223v74l-4 2q-116 -78 -274 -78q-136 0 -249 63.5t-179 179.5t-66 261zM285 514 q0 -154 92.5 -254t240.5 -100q69 0 137.5 22.5t114.5 59.5v555q-49 30 -118 49.5t-136 19.5q-149 0 -240 -100.5t-91 -251.5z" />
<glyph unicode="h" d="M162 0v1565h184v-684l4 -2q69 69 159.5 110t192.5 41q173 0 269 -110q43 -50 63.5 -117.5t20.5 -179.5v-623h-185v588q0 84 -11 129.5t-38 75.5q-56 65 -153 65q-88 0 -175.5 -47.5t-146.5 -120.5v-690h-184z" />
<glyph unicode="i" horiz-adv-x="507" d="M125 1354q0 54 37.5 91.5t91.5 37.5t91.5 -37.5t37.5 -91.5t-37.5 -91.5t-91.5 -37.5t-91.5 37.5t-37.5 91.5zM162 0v1008h184v-1008h-184z" />
<glyph unicode="j" horiz-adv-x="509" d="M-90 -291q68 -14 115 -14q82 0 110.5 48t28.5 144v1121h184v-1112q0 -194 -69 -273q-82 -96 -248 -96q-65 0 -121 16v166zM127 1354q0 54 37.5 91.5t91.5 37.5t91.5 -37.5t37.5 -91.5t-37.5 -91.5t-91.5 -37.5t-91.5 37.5t-37.5 91.5z" />
<glyph unicode="k" horiz-adv-x="1081" d="M162 0v1565h184v-1000l4 -2l451 445h235l-461 -451l510 -557h-241l-494 547l-4 -2v-545h-184z" />
<glyph unicode="l" horiz-adv-x="507" d="M162 0v1565h184v-1565h-184z" />
<glyph unicode="m" horiz-adv-x="1890" d="M162 0v1008h184v-123l4 -2q147 147 342 147q99 0 182 -43.5t127 -130.5q183 174 383 174q173 0 265 -106q45 -50 64.5 -120t19.5 -175v-629h-185v596q0 142 -51 201q-53 61 -154 61q-83 0 -166.5 -46t-140.5 -112q2 -23 2 -71v-629h-184v596q0 81 -10.5 124.5t-36.5 74.5 q-55 63 -154 63q-85 0 -168 -45.5t-139 -112.5v-700h-184z" />
<glyph unicode="n" d="M162 0v1008h184v-127l4 -2q69 69 159.5 110t192.5 41q173 0 269 -110q43 -50 63.5 -117.5t20.5 -179.5v-623h-185v588q0 149 -47 205q-54 65 -161 65q-85 0 -173 -47.5t-143 -120.5v-690h-184z" />
<glyph unicode="o" horiz-adv-x="1249" d="M92 504q0 223 152.5 374.5t380.5 151.5q150 0 272 -69t191 -189.5t69 -267.5t-69 -267.5t-191 -190t-272 -69.5t-272.5 69.5t-191.5 190t-69 267.5zM276 504q0 -153 99.5 -256t249.5 -103t249 103t99 256t-99 255.5t-249 102.5t-249.5 -102.5t-99.5 -255.5z" />
<glyph unicode="p" horiz-adv-x="1218" d="M162 -451v1459h184v-66l4 -2q129 90 287 90q135 0 245.5 -65t176 -185t65.5 -272q0 -119 -41.5 -219.5t-112.5 -168t-167 -105.5t-205 -38q-134 0 -248 56l-4 -2v-482h-184zM346 209q126 -70 256 -70q150 0 243 99.5t93 255.5q0 157 -92 263.5t-240 106.5 q-68 0 -137.5 -24t-122.5 -68v-563z" />
<glyph unicode="q" horiz-adv-x="1222" d="M96 496q0 236 152 385t381 149q132 0 252 -57l180 31v-1455h-184v506l-5 2q-130 -80 -278 -80q-102 0 -193 37.5t-158.5 104t-107 164.5t-39.5 213zM283 506q0 -155 92 -261t241 -106q68 0 138 22.5t123 63.5v572q-123 69 -254 69q-152 0 -246 -101.5t-94 -258.5z" />
<glyph unicode="r" horiz-adv-x="751" d="M162 0v1008h184v-148l4 -2q53 74 131.5 116t167.5 42q35 0 66 -8v-183q-37 9 -72 9q-194 0 -297 -179v-655h-184z" />
<glyph unicode="s" horiz-adv-x="1021" d="M102 721q1 101 56.5 172t147 104t210.5 33q94 0 191 -20.5t170 -59.5v-184q-82 48 -180 73t-189 25q-101 0 -160 -32t-59 -97q0 -24 7.5 -42.5t25 -31t35 -21.5t48 -15.5t53 -10.5t61.5 -10t63 -10q65 -11 111.5 -23t95 -34.5t78 -52.5t48.5 -77t19 -108 q0 -84 -35.5 -148t-96.5 -101t-134.5 -55t-157.5 -18q-218 0 -375 80v193q84 -52 185 -79.5t198 -27.5q108 0 169 34.5t61 105.5q0 25 -7.5 44.5t-26 33.5t-35.5 23t-49.5 16.5t-54.5 11.5t-64 10t-65 10q-64 11 -111 23.5t-93 35t-75 52.5t-47 75t-18 103z" />
<glyph unicode="t" horiz-adv-x="796" d="M53 842v166h187v274l184 31v-305h303v-166h-303v-457q0 -53 5 -91t20 -74.5t46.5 -55.5t79.5 -19q85 0 152 43v-174q-76 -37 -182 -37q-147 0 -230 95q-75 84 -75 278v492h-187z" />
<glyph unicode="u" d="M158 391v617h184v-582q0 -83 11.5 -130.5t37.5 -78.5q56 -70 160 -70q88 0 172 49t143 123v689h185v-1008h-185v127l-4 2q-152 -152 -348 -152q-80 0 -152.5 28.5t-121.5 84.5q-82 98 -82 301z" />
<glyph unicode="v" horiz-adv-x="1120" d="M45 1008h201l186 -455q78 -194 129 -324h4q52 133 135 336l183 443h192l-422 -1008h-184z" />
<glyph unicode="w" horiz-adv-x="1689" d="M53 1008h201l149 -449q41 -121 101 -311h4q65 189 110 311l166 449h131l166 -449q50 -134 111 -311h4q56 184 98 309l150 451h192l-350 -1008h-182l-158 432q-35 93 -98 283h-4q-56 -170 -99 -283l-157 -432h-185z" />
<glyph unicode="x" horiz-adv-x="1028" d="M-6 0l403 535l-356 473h217l109 -148q95 -130 149 -207h4q27 38 150 209l106 146h209l-352 -469l403 -539h-217l-149 203q-124 170 -156 215h-4q-26 -37 -87 -119.5t-73 -99.5l-147 -199h-209z" />
<glyph unicode="y" horiz-adv-x="1126" d="M45 1008h205l176 -381q60 -130 137 -303h4q67 150 138 303l176 381h194l-682 -1459h-200l272 560z" />
<glyph unicode="z" horiz-adv-x="964" d="M39 4l551 832l-2 4h-508v168h833l2 -4l-550 -832l2 -4h536v-168h-862z" />
<glyph unicode="{" horiz-adv-x="782" d="M68 469v147h51q53 0 85.5 9.5t49 32.5t22 52t5.5 78v433q0 159 72.5 241t228.5 82q75 0 123 -10v-145q-36 8 -99 8q-89 0 -122 -44.5t-33 -152.5v-401q0 -109 -27.5 -170.5t-99.5 -83.5v-4q72 -22 99.5 -83.5t27.5 -170.5v-402q0 -108 33 -152t122 -44q63 0 99 8v-146 q-48 -10 -123 -10q-156 0 -228.5 82t-72.5 242v432q0 49 -5.5 78t-22 52t-49 32.5t-85.5 9.5h-51z" />
<glyph unicode="|" horiz-adv-x="655" d="M252 -451v2089h151v-2089h-151z" />
<glyph unicode="}" horiz-adv-x="782" d="M78 -303q36 -8 98 -8q89 0 122.5 44t33.5 152v402q0 109 27.5 170.5t99.5 83.5v4q-72 22 -99.5 83.5t-27.5 170.5v401q0 108 -33.5 152.5t-122.5 44.5q-62 0 -98 -8v145q48 10 123 10q156 0 228.5 -82t72.5 -241v-433q0 -49 5.5 -78t22 -52t49 -32.5t85.5 -9.5h51v-147 h-51q-53 0 -85.5 -9.5t-49 -32.5t-22 -52t-5.5 -78v-432q0 -160 -72.5 -242t-228.5 -82q-75 0 -123 10v146z" />
<glyph unicode="~" horiz-adv-x="1134" d="M154 604v207q71 80 194 80q95 0 240 -74q49 -25 70.5 -35.5t58 -21t69.5 -10.5q66 0 110 35t81 96l4 -2v-207q-74 -80 -195 -80q-94 0 -239 74q-48 25 -70.5 35.5t-59 21t-69.5 10.5q-115 0 -190 -131z" />
<glyph unicode="&#xa1;" horiz-adv-x="626" d="M186 901q0 54 37.5 91.5t91.5 37.5t91.5 -37.5t37.5 -91.5t-37.5 -91.5t-91.5 -37.5t-91.5 37.5t-37.5 91.5zM209 -475l49 1028h115l49 -1028h-213z" />
<glyph unicode="&#xa2;" horiz-adv-x="1060" d="M84 733q0 194 114.5 334.5t301.5 183.5v269h149v-252q148 0 273 -66v-192q-137 90 -281 90q-167 0 -269 -104t-102 -259q0 -157 103.5 -255.5t269.5 -98.5q169 0 297 106v-198q-124 -73 -291 -76v-252h-149v264q-188 40 -302 178t-114 328z" />
<glyph unicode="&#xa3;" horiz-adv-x="1175" d="M164 0v145q77 62 131.5 157t54.5 200q0 59 -20 131h-166v155h108q-23 58 -35.5 94.5t-24 93t-11.5 107.5q0 130 64.5 227t173 146t245.5 49q96 0 186.5 -24t149.5 -60v-207q-75 55 -162.5 83t-169.5 28q-130 0 -211.5 -68.5t-81.5 -181.5q0 -13 1.5 -27.5t3 -26.5 t5.5 -29t6.5 -27t9 -30t9 -28.5t10.5 -30.5t10.5 -28t11.5 -31t11 -29h381v-155h-334q15 -77 15 -123q0 -96 -36.5 -181.5t-95.5 -148.5v-4h674v-176h-913z" />
<glyph unicode="&#xa4;" horiz-adv-x="1241" d="M98 319l156 156q-70 106 -70 242q0 135 70 241l-156 156l121 121l154 -154q109 72 248 72q138 0 247 -72l154 154l121 -121l-156 -156q70 -106 70 -241q0 -136 -70 -242l156 -156l-121 -120l-154 153q-107 -71 -247 -71q-141 0 -248 71l-154 -153zM332 717 q0 -124 82 -207.5t207 -83.5t206.5 83.5t81.5 207.5t-81.5 207.5t-206.5 83.5t-207 -83.5t-82 -207.5z" />
<glyph unicode="&#xa5;" horiz-adv-x="1370" d="M68 1483h223l203 -291q151 -220 192 -283h4q69 106 193 285l200 289h217l-354 -504h238v-150h-342l-60 -86v-145h402v-149h-402v-449h-194v449h-402v149h402v143l-62 88h-340v150h234z" />
<glyph unicode="&#xa6;" horiz-adv-x="655" d="M252 352h151v-803h-151v803zM252 836v802h151v-802h-151z" />
<glyph unicode="&#xa7;" horiz-adv-x="1157" d="M113 625q0 200 215 286v4q-119 89 -119 242q0 154 114.5 247t290.5 93q160 0 289 -74v-184q-142 94 -287 94q-98 0 -160.5 -44.5t-62.5 -125.5q0 -26 8 -48.5t18.5 -39.5t32.5 -34t38.5 -28t49.5 -25t51.5 -21t58 -21.5t57.5 -21.5q60 -22 103 -41.5t94 -52.5t82.5 -69 t53 -89.5t21.5 -116.5q0 -109 -57.5 -178.5t-155.5 -102.5v-4q119 -97 119 -247q0 -156 -113.5 -248t-296.5 -92q-179 0 -313 77v189q159 -103 311 -103q100 0 163.5 45t63.5 129q0 23 -4.5 42.5t-16.5 37t-22 30.5t-33.5 27.5t-37 23t-46.5 22t-48 19.5t-55 21l-56 21 q-58 22 -101 42t-93 52.5t-81.5 68t-53 87t-21.5 111.5zM297 637q0 -21 5 -40t11.5 -34t20.5 -30t24.5 -25.5t32.5 -23t35 -19.5t41 -18.5t41.5 -16.5t46 -16.5t45.5 -16.5q21 -8 92 -37q87 18 136 65t49 120q0 48 -21 84.5t-63.5 63.5t-87.5 46.5t-112 44.5l-9 3t-8 3t-9 3 q-15 5 -73 28q-197 -42 -197 -184z" />
<glyph unicode="&#xa8;" horiz-adv-x="1028" d="M201 1321q0 46 33 79.5t79 33.5t79.5 -33.5t33.5 -79.5t-33.5 -79.5t-79.5 -33.5t-79 33.5t-33 79.5zM602 1321q0 46 33.5 79.5t79.5 33.5t79 -33.5t33 -79.5t-33 -79.5t-79 -33.5t-79.5 33.5t-33.5 79.5z" />
<glyph unicode="&#xa9;" horiz-adv-x="1654" d="M70 741q0 158 57.5 299.5t157.5 243.5t241 161.5t301 59.5t301 -59.5t241 -161.5t158 -243.5t58 -299.5t-58 -299.5t-158 -243.5t-241 -161.5t-301 -59.5t-301 59.5t-241 161.5t-157.5 243.5t-57.5 299.5zM166 741q0 -186 83 -338.5t235 -241.5t343 -89t343 89 t235.5 241.5t83.5 338.5t-83.5 339t-235.5 242t-343 89q-143 0 -267 -52t-210 -142t-135 -213.5t-49 -262.5zM434 748q0 181 123 301t311 120q124 0 226 -55v-135q-104 74 -228 74q-133 0 -218 -87t-85 -216q0 -130 86 -214.5t223 -84.5q134 0 234 84v-140q-98 -61 -240 -61 q-188 0 -310 117.5t-122 296.5z" />
<glyph unicode="&#xaa;" horiz-adv-x="743" d="M100 1016q0 101 84 158q64 43 187 43q69 0 133 -15v47q0 135 -150 135q-106 0 -200 -63v131q87 55 217 55q131 0 202 -59q68 -59 68 -172v-272q0 -66 47 -66q20 0 37 10v-110q-30 -15 -70 -15q-89 0 -129 64h-2q-78 -66 -196 -66q-90 0 -154 47q-74 57 -74 148zM236 1020 q0 -43 32 -65.5t84 -22.5q89 0 152 53v115q-53 16 -119 16q-64 0 -106.5 -22.5t-42.5 -73.5z" />
<glyph unicode="&#xab;" horiz-adv-x="1122" d="M94 504l340 448h160l-340 -448l340 -449h-160zM512 504l340 448h160l-340 -448l340 -449h-160z" />
<glyph unicode="&#xac;" horiz-adv-x="1204" d="M111 668v147h987v-577h-152v430h-835z" />
<glyph unicode="&#xad;" horiz-adv-x="720" d="M117 485v164h487v-164h-487z" />
<glyph unicode="&#xae;" horiz-adv-x="917" d="M76 1124q0 164 108.5 272.5t274.5 108.5t274.5 -108.5t108.5 -272.5t-108.5 -272.5t-274.5 -108.5t-274.5 108.5t-108.5 272.5zM137 1124q0 -139 91 -230t231 -91t230.5 91t90.5 230t-90.5 230.5t-230.5 91.5t-231 -91.5t-91 -230.5zM319 918v413h148q66 0 111 -35.5 t45 -97.5q0 -44 -25.5 -75.5t-65.5 -45.5l101 -159h-84l-88 149h-68v-149h-74zM393 1130h68q39 0 62.5 17.5t23.5 50.5q0 32 -23.5 49t-62.5 17h-68v-134z" />
<glyph unicode="&#xaf;" horiz-adv-x="1028" d="M233 1251v140h562v-140h-562z" />
<glyph unicode="&#xb0;" horiz-adv-x="774" d="M80 1204q0 127 87.5 214t219.5 87t219.5 -87t87.5 -214t-87.5 -214t-219.5 -87t-219.5 87t-87.5 214zM178 1204q0 -85 60 -145t149 -60t149 60t60 145t-60 145t-149 60t-149 -60t-60 -145z" />
<glyph unicode="&#xb1;" horiz-adv-x="1204" d="M135 160v147h934v-147h-934zM135 856v148h391v368h152v-368h391v-148h-391v-369h-152v369h-391z" />
<glyph unicode="&#xb2;" horiz-adv-x="749" d="M39 868l297 346q143 166 143 275q0 65 -43.5 101t-116.5 36q-107 0 -213 -76v156q103 61 226 61q137 0 220 -74.5t83 -199.5q0 -150 -152 -326l-137 -159l2 -4h320v-140h-627z" />
<glyph unicode="&#xb3;" horiz-adv-x="727" d="M74 920v161q127 -92 254 -92q77 0 124.5 35.5t47.5 97.5q0 57 -47 91t-138 34h-90v123h84q81 0 124.5 35.5t43.5 93.5q0 60 -45 94.5t-121 34.5q-101 0 -188 -61v147q85 53 209 53q129 0 215 -69t86 -178q0 -65 -32.5 -119.5t-96.5 -73.5v-4q57 -17 92.5 -54t47 -74.5 t11.5 -80.5q0 -119 -91.5 -191.5t-235.5 -72.5q-150 0 -254 70z" />
<glyph unicode="&#xb4;" horiz-adv-x="1028" d="M395 1153l158 336h207l-225 -336h-140z" />
<glyph unicode="&#xb5;" horiz-adv-x="1216" d="M162 -451v1459h184v-582q0 -83 11.5 -130.5t37.5 -78.5q56 -70 160 -70q88 0 172 49t143 123v689h185v-1008h-185v127l-4 2q-152 -152 -342 -152q-108 0 -184 48l-4 -2l18 -474h-192z" />
<glyph unicode="&#xb6;" horiz-adv-x="1167" d="M115 1112q0 154 109.5 262.5t264.5 108.5h474v-1934h-152v1794h-170v-1794h-152v1192q-155 0 -264.5 108.5t-109.5 262.5z" />
<glyph unicode="&#xb7;" horiz-adv-x="602" d="M166 618q0 56 40 96t95 40t95 -40t40 -96t-40 -95.5t-95 -39.5t-95 39.5t-40 95.5z" />
<glyph unicode="&#xb8;" horiz-adv-x="1028" d="M346 -416l31 105q76 -39 131 -39q42 0 70 18.5t28 52.5q0 28 -18.5 48.5t-48.5 31t-59.5 16t-61.5 7.5l74 242l92 -21l-41 -133q182 -41 182 -184q0 -82 -58.5 -131.5t-156.5 -49.5q-88 0 -164 37z" />
<glyph unicode="&#xb9;" horiz-adv-x="667" d="M96 1497v141l359 129v-903h-152v707z" />
<glyph unicode="&#xba;" horiz-adv-x="837" d="M70 1163q0 149 96.5 245.5t251.5 96.5q154 0 251 -96.5t97 -245.5t-97 -245.5t-251 -96.5q-155 0 -251.5 96.5t-96.5 245.5zM209 1163q0 -95 58 -156t151 -61t151 61t58 156t-58 156t-151 61t-151 -61t-58 -156z" />
<glyph unicode="&#xbb;" horiz-adv-x="1122" d="M111 55l340 449l-340 448h159l340 -448l-340 -449h-159zM528 55l340 449l-340 448h160l340 -448l-340 -449h-160z" />
<glyph unicode="&#xbc;" horiz-adv-x="1921" d="M131 1235v141l358 129v-903h-151v707zM354 -27l977 1510h168l-977 -1510h-168zM1034 209l479 680h142v-561h153v-123h-153v-205h-152v205h-467zM1262 332l2 -4h239v147q0 95 4 205l-4 2q-63 -97 -119 -176z" />
<glyph unicode="&#xbd;" horiz-adv-x="2002" d="M131 1235v141l358 129v-903h-151v707zM354 -27l977 1510h168l-977 -1510h-168zM1221 4l297 346q143 166 143 275q0 65 -43.5 101t-116.5 36q-107 0 -213 -76v156q103 61 225 61q137 0 220.5 -74.5t83.5 -199.5q0 -150 -152 -326l-137 -160l2 -4h319v-139h-626z" />
<glyph unicode="&#xbe;" horiz-adv-x="2023" d="M139 657v162q127 -92 254 -92q77 0 124.5 35.5t47.5 97.5q0 58 -46.5 91.5t-137.5 33.5h-90v123h84q81 0 124.5 35.5t43.5 93.5q0 60 -45 94.5t-121 34.5q-102 0 -189 -61v147q85 53 209 53q129 0 215 -69.5t86 -178.5q0 -65 -32.5 -119t-96.5 -73v-4q57 -17 92.5 -54 t47.5 -74.5t12 -80.5q0 -119 -92 -191.5t-236 -72.5q-151 0 -254 69zM457 -27l977 1510h168l-977 -1510h-168zM1137 209l479 680h141v-561h154v-123h-154v-205h-151v205h-467zM1364 332l2 -4h240v147q0 95 4 205l-4 2q-63 -97 -119 -176z" />
<glyph unicode="&#xbf;" horiz-adv-x="956" d="M86 -53q0 179 125.5 302.5t314.5 145.5l-8 221h172l43 -368q-134 0 -234 -30t-159 -96t-59 -163q0 -121 82 -198.5t202 -77.5q66 0 141 24t132 66l20 -189q-58 -37 -137.5 -59.5t-161.5 -22.5q-202 0 -337.5 129.5t-135.5 315.5zM451 901q0 54 37.5 91.5t91.5 37.5 t91.5 -37.5t37.5 -91.5t-37.5 -91.5t-91.5 -37.5t-91.5 37.5t-37.5 91.5z" />
<glyph unicode="&#xc0;" horiz-adv-x="1429" d="M10 0l611 1483h186l612 -1483h-209l-166 414h-667l-168 -414h-199zM444 584h533l-121 307q-84 212 -141 366h-4q-42 -114 -146 -372zM469 1964h207l158 -336h-140z" />
<glyph unicode="&#xc1;" horiz-adv-x="1429" d="M10 0l611 1483h186l612 -1483h-209l-166 414h-667l-168 -414h-199zM444 584h533l-121 307q-84 212 -141 366h-4q-42 -114 -146 -372zM596 1628l158 336h207l-226 -336h-139z" />
<glyph unicode="&#xc2;" horiz-adv-x="1429" d="M10 0l611 1483h186l612 -1483h-209l-166 414h-667l-168 -414h-199zM385 1628l231 336h197l231 -336h-153l-176 215l-176 -215h-154zM444 584h533l-121 307q-84 212 -141 366h-4q-42 -114 -146 -372z" />
<glyph unicode="&#xc3;" horiz-adv-x="1429" d="M10 0l611 1483h186l612 -1483h-209l-166 414h-667l-168 -414h-199zM393 1675v160q64 88 170 88q70 0 166 -49q36 -18 50.5 -25t39.5 -14.5t47 -7.5q50 0 88.5 26.5t77.5 71.5l4 -2v-160q-64 -88 -170 -88q-70 0 -166 49q-3 2 -15 8l-15 7.5t-13.5 6.5t-14.5 6.5 t-12.5 5.5t-13.5 5t-12.5 3.5t-13.5 3t-13 1.5t-14 1q-50 0 -88 -26.5t-78 -72.5zM444 584h533l-121 307q-84 212 -141 366h-4q-42 -114 -146 -372z" />
<glyph unicode="&#xc4;" horiz-adv-x="1429" d="M10 0l611 1483h186l612 -1483h-209l-166 414h-667l-168 -414h-199zM401 1796q0 46 33.5 79.5t79.5 33.5t79.5 -33.5t33.5 -79.5t-33.5 -79.5t-79.5 -33.5t-79.5 33.5t-33.5 79.5zM444 584h533l-121 307q-84 212 -141 366h-4q-42 -114 -146 -372zM803 1796q0 46 33 79.5 t79 33.5t79.5 -33.5t33.5 -79.5t-33.5 -79.5t-79.5 -33.5t-79 33.5t-33 79.5z" />
<glyph unicode="&#xc5;" horiz-adv-x="1429" d="M10 0l611 1483h186l612 -1483h-209l-166 414h-667l-168 -414h-199zM444 584h533l-121 307q-84 212 -141 366h-4q-42 -114 -146 -372zM475 1837q0 100 69.5 167t170.5 67t170 -67t69 -167t-69 -166.5t-170 -66.5q-102 0 -171 67t-69 166zM586 1837q0 -56 35.5 -93.5 t93.5 -37.5t93.5 37.5t35.5 93.5t-35.5 93.5t-93.5 37.5t-93.5 -37.5t-35.5 -93.5z" />
<glyph unicode="&#xc6;" horiz-adv-x="1918" d="M10 0l860 1483h942v-176h-636v-451h555v-170h-555v-510h655v-176h-850v414h-520l-240 -414h-211zM559 584h422v338q0 183 4 395h-4q-94 -171 -209 -367z" />
<glyph unicode="&#xc7;" horiz-adv-x="1394" d="M84 737q0 157 56 297.5t155 244.5t245 165t316 61q234 0 418 -104v-213q-86 63 -195.5 100t-224.5 37q-166 0 -298 -77t-204.5 -210t-72.5 -297t73 -296.5t209 -209.5t309 -77q241 0 426 149v-215q-180 -115 -462 -115l-21 -65q182 -41 182 -184q0 -82 -58.5 -131.5 t-156.5 -49.5q-88 0 -164 37l31 105q76 -39 131 -39q42 0 70.5 18.5t28.5 52.5q0 28 -19 49t-50.5 31.5t-60 15.5t-59.5 7l49 162q-290 40 -471.5 248t-181.5 503z" />
<glyph unicode="&#xc8;" horiz-adv-x="1128" d="M166 0v1483h856v-176h-662v-451h580v-170h-580v-510h680v-176h-874zM346 1964h207l158 -336h-140z" />
<glyph unicode="&#xc9;" horiz-adv-x="1128" d="M166 0v1483h856v-176h-662v-451h580v-170h-580v-510h680v-176h-874zM473 1628l158 336h207l-226 -336h-139z" />
<glyph unicode="&#xca;" horiz-adv-x="1128" d="M166 0v1483h856v-176h-662v-451h580v-170h-580v-510h680v-176h-874zM262 1628l232 336h196l232 -336h-154l-176 215l-176 -215h-154z" />
<glyph unicode="&#xcb;" horiz-adv-x="1128" d="M166 0v1483h856v-176h-662v-451h580v-170h-580v-510h680v-176h-874zM279 1796q0 46 33 79.5t79 33.5t79.5 -33.5t33.5 -79.5t-33.5 -79.5t-79.5 -33.5t-79 33.5t-33 79.5zM680 1796q0 46 33.5 79.5t79.5 33.5t79 -33.5t33 -79.5t-33 -79.5t-79 -33.5t-79.5 33.5 t-33.5 79.5z" />
<glyph unicode="&#xcc;" horiz-adv-x="526" d="M16 1964h207l158 -336h-139zM166 0v1483h194v-1483h-194z" />
<glyph unicode="&#xcd;" horiz-adv-x="526" d="M143 1628l158 336h207l-225 -336h-140zM166 0v1483h194v-1483h-194z" />
<glyph unicode="&#xce;" horiz-adv-x="526" d="M-68 1628l232 336h196l232 -336h-154l-176 215l-176 -215h-154zM166 0v1483h194v-1483h-194z" />
<glyph unicode="&#xcf;" horiz-adv-x="526" d="M-51 1796q0 46 33 79.5t79 33.5t79.5 -33.5t33.5 -79.5t-33.5 -79.5t-79.5 -33.5t-79 33.5t-33 79.5zM166 0v1483h194v-1483h-194zM350 1796q0 46 33.5 79.5t79.5 33.5t79 -33.5t33 -79.5t-33 -79.5t-79 -33.5t-79.5 33.5t-33.5 79.5z" />
<glyph unicode="&#xd0;" horiz-adv-x="1527" d="M6 676v160h182v647h408q322 0 524 -121q159 -96 245.5 -257.5t86.5 -356.5q0 -185 -77 -341.5t-218 -256.5q-115 -81 -263 -115.5t-347 -34.5h-359v676h-182zM383 176h195q143 0 249 22t191 76q109 70 174 192t65 275q0 154 -65.5 273.5t-171.5 189.5q-89 59 -199 81 t-248 22h-190v-471h319v-160h-319v-500z" />
<glyph unicode="&#xd1;" horiz-adv-x="1581" d="M166 0v1483h184l621 -824q134 -176 256 -346l4 2q-4 258 -4 422v746h188v-1483h-184l-621 823q-134 176 -256 346l-4 -2q4 -258 4 -422v-745h-188zM469 1675v160q64 88 170 88q70 0 166 -49q36 -18 50.5 -25t39.5 -14.5t47 -7.5q50 0 88.5 26.5t77.5 71.5l4 -2v-160 q-64 -88 -170 -88q-70 0 -166 49q-3 2 -15 8l-15 7.5t-13.5 6.5t-14.5 6.5t-12.5 5.5t-13.5 5t-12.5 3.5t-13.5 3t-13 1.5t-14 1q-50 0 -88 -26.5t-78 -72.5z" />
<glyph unicode="&#xd2;" horiz-adv-x="1671" d="M82 741q0 159 58 300.5t157.5 243t239.5 161t299 59.5q211 0 384 -100.5t271 -276t98 -387.5t-98 -387.5t-271 -276t-384 -100.5q-159 0 -299 59.5t-239.5 161t-157.5 243t-58 300.5zM276 741q0 -161 71.5 -294.5t200.5 -211t288 -77.5t287.5 77.5t200 211t71.5 294.5 q0 162 -71.5 295.5t-200 211t-287.5 77.5q-119 0 -223.5 -45.5t-178 -124t-116 -186t-42.5 -228.5zM590 1964h207l157 -336h-139z" />
<glyph unicode="&#xd3;" horiz-adv-x="1671" d="M82 741q0 159 58 300.5t157.5 243t239.5 161t299 59.5q211 0 384 -100.5t271 -276t98 -387.5t-98 -387.5t-271 -276t-384 -100.5q-159 0 -299 59.5t-239.5 161t-157.5 243t-58 300.5zM276 741q0 -161 71.5 -294.5t200.5 -211t288 -77.5t287.5 77.5t200 211t71.5 294.5 q0 162 -71.5 295.5t-200 211t-287.5 77.5q-119 0 -223.5 -45.5t-178 -124t-116 -186t-42.5 -228.5zM717 1628l157 336h207l-225 -336h-139z" />
<glyph unicode="&#xd4;" horiz-adv-x="1671" d="M82 741q0 159 58 300.5t157.5 243t239.5 161t299 59.5q211 0 384 -100.5t271 -276t98 -387.5t-98 -387.5t-271 -276t-384 -100.5q-159 0 -299 59.5t-239.5 161t-157.5 243t-58 300.5zM276 741q0 -161 71.5 -294.5t200.5 -211t288 -77.5t287.5 77.5t200 211t71.5 294.5 q0 162 -71.5 295.5t-200 211t-287.5 77.5q-119 0 -223.5 -45.5t-178 -124t-116 -186t-42.5 -228.5zM506 1628l231 336h197l231 -336h-153l-176 215l-177 -215h-153z" />
<glyph unicode="&#xd5;" horiz-adv-x="1671" d="M82 741q0 159 58 300.5t157.5 243t239.5 161t299 59.5q211 0 384 -100.5t271 -276t98 -387.5t-98 -387.5t-271 -276t-384 -100.5q-159 0 -299 59.5t-239.5 161t-157.5 243t-58 300.5zM276 741q0 -161 71.5 -294.5t200.5 -211t288 -77.5t287.5 77.5t200 211t71.5 294.5 q0 162 -71.5 295.5t-200 211t-287.5 77.5q-119 0 -223.5 -45.5t-178 -124t-116 -186t-42.5 -228.5zM514 1675v160q64 88 170 88q70 0 166 -49q36 -18 50.5 -25t39.5 -14.5t47 -7.5q50 0 88.5 26.5t77.5 71.5l4 -2v-160q-64 -88 -170 -88q-70 0 -166 49q-3 2 -15 8l-15 7.5 t-13.5 6.5t-14.5 6.5t-12.5 5.5t-13.5 5t-12.5 3.5t-13.5 3t-13 1.5t-14 1q-50 0 -88 -26.5t-78 -72.5z" />
<glyph unicode="&#xd6;" horiz-adv-x="1671" d="M82 741q0 159 58 300.5t157.5 243t239.5 161t299 59.5q211 0 384 -100.5t271 -276t98 -387.5t-98 -387.5t-271 -276t-384 -100.5q-159 0 -299 59.5t-239.5 161t-157.5 243t-58 300.5zM276 741q0 -161 71.5 -294.5t200.5 -211t288 -77.5t287.5 77.5t200 211t71.5 294.5 q0 162 -71.5 295.5t-200 211t-287.5 77.5q-119 0 -223.5 -45.5t-178 -124t-116 -186t-42.5 -228.5zM522 1796q0 46 33.5 79.5t79.5 33.5t79.5 -33.5t33.5 -79.5t-33.5 -79.5t-79.5 -33.5t-79.5 33.5t-33.5 79.5zM924 1796q0 46 33 79.5t79 33.5t79.5 -33.5t33.5 -79.5 t-33.5 -79.5t-79.5 -33.5t-79 33.5t-33 79.5z" />
<glyph unicode="&#xd7;" horiz-adv-x="1204" d="M174 420l324 323l-324 324l105 104l323 -323l324 323l104 -104l-323 -324l323 -323l-104 -105l-324 324l-323 -324z" />
<glyph unicode="&#xd8;" horiz-adv-x="1671" d="M82 741q0 159 58 300.5t157.5 243t239.5 161t299 59.5q252 0 440 -139l127 150l106 -91l-127 -149q99 -105 153 -242t54 -293q0 -212 -98 -387.5t-271 -276t-384 -100.5q-252 0 -441 140l-127 -150l-106 90l127 150q-99 105 -153 242t-54 292zM276 741q0 -228 136 -389 l743 873q-140 100 -319 100q-119 0 -223.5 -45.5t-178 -124t-116 -186t-42.5 -228.5zM516 258q140 -100 320 -100q159 0 287.5 77.5t200 211t71.5 294.5q0 229 -135 389z" />
<glyph unicode="&#xd9;" horiz-adv-x="1495" d="M150 698v785h194v-764q0 -144 12.5 -232.5t44.5 -150.5q95 -178 353 -178q255 0 348 178q33 62 44 148.5t11 226.5v772h189v-762q0 -183 -19.5 -302t-79.5 -210q-72 -109 -202.5 -170.5t-299.5 -61.5t-297.5 62t-199.5 170q-59 91 -78.5 208.5t-19.5 280.5zM502 1964h207 l157 -336h-139z" />
<glyph unicode="&#xda;" horiz-adv-x="1495" d="M150 698v785h194v-764q0 -144 12.5 -232.5t44.5 -150.5q95 -178 353 -178q255 0 348 178q33 62 44 148.5t11 226.5v772h189v-762q0 -183 -19.5 -302t-79.5 -210q-72 -109 -202.5 -170.5t-299.5 -61.5t-297.5 62t-199.5 170q-59 91 -78.5 208.5t-19.5 280.5zM629 1628 l157 336h207l-225 -336h-139z" />
<glyph unicode="&#xdb;" horiz-adv-x="1495" d="M150 698v785h194v-764q0 -144 12.5 -232.5t44.5 -150.5q95 -178 353 -178q255 0 348 178q33 62 44 148.5t11 226.5v772h189v-762q0 -183 -19.5 -302t-79.5 -210q-72 -109 -202.5 -170.5t-299.5 -61.5t-297.5 62t-199.5 170q-59 91 -78.5 208.5t-19.5 280.5zM418 1628 l231 336h197l231 -336h-153l-176 215l-177 -215h-153z" />
<glyph unicode="&#xdc;" horiz-adv-x="1495" d="M150 698v785h194v-764q0 -144 12.5 -232.5t44.5 -150.5q95 -178 353 -178q255 0 348 178q33 62 44 148.5t11 226.5v772h189v-762q0 -183 -19.5 -302t-79.5 -210q-72 -109 -202.5 -170.5t-299.5 -61.5t-297.5 62t-199.5 170q-59 91 -78.5 208.5t-19.5 280.5zM434 1796 q0 46 33.5 79.5t79.5 33.5t79 -33.5t33 -79.5t-33 -79.5t-79 -33.5t-79.5 33.5t-33.5 79.5zM836 1796q0 46 33 79.5t79 33.5t79.5 -33.5t33.5 -79.5t-33.5 -79.5t-79.5 -33.5t-79 33.5t-33 79.5z" />
<glyph unicode="&#xdd;" horiz-adv-x="1341" d="M4 1483h225l252 -363q191 -278 193 -282h4q73 113 192 284l250 361h217l-567 -811v-672h-195v670zM557 1628l158 336h207l-226 -336h-139z" />
<glyph unicode="&#xde;" horiz-adv-x="1273" d="M166 0v1483h194v-289h193q146 0 248.5 -14.5t189.5 -63.5q215 -120 215 -366q0 -122 -54 -217.5t-146 -151.5q-87 -53 -202 -68.5t-290 -15.5h-154v-297h-194zM360 467h179q144 0 220 10.5t134 44.5q119 72 119 219q0 159 -138 230q-61 31 -135.5 39t-201.5 8h-177v-551z " />
<glyph unicode="&#xdf;" horiz-adv-x="1277" d="M162 0v1180q0 205 117 307q115 100 329 100t334 -96q117 -95 117 -283q0 -117 -39 -217q-123 -10 -215 -45q-68 -25 -98.5 -59t-30.5 -86q0 -16 3 -29.5t7 -24.5t14 -22t16 -18.5t22.5 -16.5t24.5 -14t30 -14t32 -13t37 -14t39 -14q52 -19 88 -36t78.5 -45t68 -60t43 -79 t17.5 -104q0 -152 -107 -236t-270 -84q-85 0 -171.5 22t-139.5 54v197q64 -48 153.5 -77.5t163.5 -29.5q80 0 132.5 37.5t52.5 110.5q0 30 -11.5 54t-27.5 40t-53.5 34.5t-67 29.5t-90.5 32q-131 47 -199.5 117t-68.5 186q0 167 147 258q95 60 227 82q8 46 8 84 q0 102 -65 158q-62 53 -199 53t-200 -57q-64 -58 -64 -182v-1180h-184z" />
<glyph unicode="&#xe0;" horiz-adv-x="1089" d="M94 272q0 161 133 246q105 68 283 68q104 0 215 -27v84q0 112 -57 166q-61 55 -187 55q-171 0 -309 -100v180q143 86 336 86q201 0 301 -92q100 -90 100 -264v-428q0 -49 19.5 -78t58.5 -29q30 0 60 15v-154q-45 -18 -99 -18q-62 0 -114 27t-80 79h-4q-48 -45 -132 -78 t-178 -33q-143 0 -239 72q-107 79 -107 223zM281 289q0 -71 53.5 -109.5t138.5 -38.5q69 0 136.5 24.5t115.5 63.5v189q-89 26 -197 26q-107 0 -177 -36.5t-70 -118.5zM295 1489h207l157 -336h-139z" />
<glyph unicode="&#xe1;" horiz-adv-x="1089" d="M94 272q0 161 133 246q105 68 283 68q104 0 215 -27v84q0 112 -57 166q-61 55 -187 55q-171 0 -309 -100v180q143 86 336 86q201 0 301 -92q100 -90 100 -264v-428q0 -49 19.5 -78t58.5 -29q30 0 60 15v-154q-45 -18 -99 -18q-62 0 -114 27t-80 79h-4q-48 -45 -132 -78 t-178 -33q-143 0 -239 72q-107 79 -107 223zM281 289q0 -71 53.5 -109.5t138.5 -38.5q69 0 136.5 24.5t115.5 63.5v189q-89 26 -197 26q-107 0 -177 -36.5t-70 -118.5zM422 1153l158 336h206l-225 -336h-139z" />
<glyph unicode="&#xe2;" horiz-adv-x="1089" d="M94 272q0 161 133 246q105 68 283 68q104 0 215 -27v84q0 112 -57 166q-61 55 -187 55q-171 0 -309 -100v180q143 86 336 86q201 0 301 -92q100 -90 100 -264v-428q0 -49 19.5 -78t58.5 -29q30 0 60 15v-154q-45 -18 -99 -18q-62 0 -114 27t-80 79h-4q-48 -45 -132 -78 t-178 -33q-143 0 -239 72q-107 79 -107 223zM211 1153l231 336h197l231 -336h-153l-176 215l-176 -215h-154zM281 289q0 -71 53.5 -109.5t138.5 -38.5q69 0 136.5 24.5t115.5 63.5v189q-89 26 -197 26q-107 0 -177 -36.5t-70 -118.5z" />
<glyph unicode="&#xe3;" horiz-adv-x="1089" d="M94 272q0 161 133 246q105 68 283 68q104 0 215 -27v84q0 112 -57 166q-61 55 -187 55q-171 0 -309 -100v180q143 86 336 86q201 0 301 -92q100 -90 100 -264v-428q0 -49 19.5 -78t58.5 -29q30 0 60 15v-154q-45 -18 -99 -18q-62 0 -114 27t-80 79h-4q-48 -45 -132 -78 t-178 -33q-143 0 -239 72q-107 79 -107 223zM219 1200v160q64 88 170 88q70 0 166 -49q36 -18 50.5 -25t39.5 -14.5t47 -7.5q50 0 88.5 26.5t77.5 71.5l4 -2v-160q-64 -88 -170 -88q-70 0 -166 49q-36 18 -50.5 25t-39.5 14.5t-47 7.5q-50 0 -88.5 -26.5t-77.5 -71.5z M281 289q0 -71 53.5 -109.5t138.5 -38.5q69 0 136.5 24.5t115.5 63.5v189q-89 26 -197 26q-107 0 -177 -36.5t-70 -118.5z" />
<glyph unicode="&#xe4;" horiz-adv-x="1089" d="M94 272q0 161 133 246q105 68 283 68q104 0 215 -27v84q0 112 -57 166q-61 55 -187 55q-171 0 -309 -100v180q143 86 336 86q201 0 301 -92q100 -90 100 -264v-428q0 -49 19.5 -78t58.5 -29q30 0 60 15v-154q-45 -18 -99 -18q-62 0 -114 27t-80 79h-4q-48 -45 -132 -78 t-178 -33q-143 0 -239 72q-107 79 -107 223zM227 1321q0 46 33.5 79.5t79.5 33.5t79.5 -33.5t33.5 -79.5t-33.5 -79.5t-79.5 -33.5t-79.5 33.5t-33.5 79.5zM281 289q0 -71 53.5 -109.5t138.5 -38.5q69 0 136.5 24.5t115.5 63.5v189q-89 26 -197 26q-107 0 -177 -36.5 t-70 -118.5zM629 1321q0 46 33 79.5t79 33.5t79.5 -33.5t33.5 -79.5t-33.5 -79.5t-79.5 -33.5t-79 33.5t-33 79.5z" />
<glyph unicode="&#xe5;" horiz-adv-x="1089" d="M94 272q0 161 133 246q105 68 283 68q104 0 215 -27v84q0 112 -57 166q-61 55 -187 55q-171 0 -309 -100v180q143 86 336 86q201 0 301 -92q100 -90 100 -264v-428q0 -49 19.5 -78t58.5 -29q30 0 60 15v-154q-45 -18 -99 -18q-62 0 -114 27t-80 79h-4q-48 -45 -132 -78 t-178 -33q-143 0 -239 72q-107 79 -107 223zM281 289q0 -71 53.5 -109.5t138.5 -38.5q69 0 136.5 24.5t115.5 63.5v189q-89 26 -197 26q-107 0 -177 -36.5t-70 -118.5zM301 1362q0 99 69 166t171 67q101 0 170 -66.5t69 -166.5t-69 -167t-170 -67t-170.5 67t-69.5 167z M412 1362q0 -56 35.5 -93.5t93.5 -37.5t93.5 37.5t35.5 93.5t-35.5 93.5t-93.5 37.5t-93.5 -37.5t-35.5 -93.5z" />
<glyph unicode="&#xe6;" horiz-adv-x="1757" d="M94 274q0 159 133 244q105 68 283 68q94 0 203 -25v80q0 111 -58 166t-182 55q-166 0 -301 -100v182q139 86 324 86q72 0 135.5 -13t125 -51.5t93.5 -99.5h4q68 79 160.5 121.5t197.5 42.5q191 0 320 -131t129 -354q0 -57 -6 -94h-758q22 -145 119.5 -226.5t245.5 -81.5 q183 0 344 125v-196q-68 -43 -165 -69t-192 -26q-117 0 -225 42.5t-184 127.5q-173 -170 -398 -170q-143 0 -239 72q-109 81 -109 225zM281 287q0 -71 53 -108.5t137 -37.5q172 0 295 123q-34 77 -45 154q-89 26 -193 26q-68 0 -120.5 -13.5t-89.5 -50.5t-37 -93zM899 596 h584q-5 106 -80 187t-197 81q-52 0 -101 -16t-92 -47.5t-73.5 -84.5t-40.5 -120z" />
<glyph unicode="&#xe7;" horiz-adv-x="1044" d="M92 498q0 152 74 274.5t202 190t283 67.5q150 0 273 -63v-191q-136 86 -281 86q-161 0 -262.5 -104.5t-101.5 -259.5t103.5 -254t266.5 -99t291 99v-197q-128 -70 -305 -70l-21 -65q183 -41 183 -184q0 -82 -58.5 -131.5t-156.5 -49.5q-88 0 -164 37l31 105 q76 -39 131 -39q42 0 70 18.5t28 52.5q0 28 -18.5 48.5t-49 31t-60 16t-61.5 7.5l50 162q-198 29 -322.5 171t-124.5 341z" />
<glyph unicode="&#xe8;" horiz-adv-x="1153" d="M92 504q0 154 69.5 275.5t183.5 186t249 64.5q125 0 228 -55t167 -167.5t64 -264.5q0 -55 -6 -92h-771q20 -147 120.5 -227.5t252.5 -80.5q184 0 348 125v-196q-68 -43 -165.5 -69t-194.5 -26q-236 0 -390.5 146t-154.5 381zM281 596h593q-6 72 -33.5 126t-69.5 84 t-87.5 44t-93.5 14q-109 0 -197.5 -68.5t-111.5 -199.5zM336 1489h207l157 -336h-139z" />
<glyph unicode="&#xe9;" horiz-adv-x="1153" d="M92 504q0 154 69.5 275.5t183.5 186t249 64.5q125 0 228 -55t167 -167.5t64 -264.5q0 -55 -6 -92h-771q20 -147 120.5 -227.5t252.5 -80.5q184 0 348 125v-196q-68 -43 -165.5 -69t-194.5 -26q-236 0 -390.5 146t-154.5 381zM281 596h593q-6 72 -33.5 126t-69.5 84 t-87.5 44t-93.5 14q-109 0 -197.5 -68.5t-111.5 -199.5zM463 1153l158 336h206l-225 -336h-139z" />
<glyph unicode="&#xea;" horiz-adv-x="1153" d="M92 504q0 154 69.5 275.5t183.5 186t249 64.5q125 0 228 -55t167 -167.5t64 -264.5q0 -55 -6 -92h-771q20 -147 120.5 -227.5t252.5 -80.5q184 0 348 125v-196q-68 -43 -165.5 -69t-194.5 -26q-236 0 -390.5 146t-154.5 381zM252 1153l231 336h197l231 -336h-153 l-176 215l-176 -215h-154zM281 596h593q-6 72 -33.5 126t-69.5 84t-87.5 44t-93.5 14q-109 0 -197.5 -68.5t-111.5 -199.5z" />
<glyph unicode="&#xeb;" horiz-adv-x="1153" d="M92 504q0 154 69.5 275.5t183.5 186t249 64.5q125 0 228 -55t167 -167.5t64 -264.5q0 -55 -6 -92h-771q20 -147 120.5 -227.5t252.5 -80.5q184 0 348 125v-196q-68 -43 -165.5 -69t-194.5 -26q-236 0 -390.5 146t-154.5 381zM268 1321q0 46 33.5 79.5t79.5 33.5 t79.5 -33.5t33.5 -79.5t-33.5 -79.5t-79.5 -33.5t-79.5 33.5t-33.5 79.5zM281 596h593q-6 72 -33.5 126t-69.5 84t-87.5 44t-93.5 14q-109 0 -197.5 -68.5t-111.5 -199.5zM670 1321q0 46 33 79.5t79 33.5t79.5 -33.5t33.5 -79.5t-33.5 -79.5t-79.5 -33.5t-79 33.5t-33 79.5z " />
<glyph unicode="&#xec;" horiz-adv-x="507" d="M8 1489h207l158 -336h-140zM162 0v1008h184v-1008h-184z" />
<glyph unicode="&#xed;" horiz-adv-x="507" d="M135 1153l158 336h207l-226 -336h-139zM162 0v1008h184v-1008h-184z" />
<glyph unicode="&#xee;" horiz-adv-x="507" d="M-76 1153l232 336h196l232 -336h-154l-176 215l-176 -215h-154zM162 0v1008h184v-1008h-184z" />
<glyph unicode="&#xef;" horiz-adv-x="507" d="M-59 1321q0 46 33 79.5t79 33.5t79.5 -33.5t33.5 -79.5t-33.5 -79.5t-79.5 -33.5t-79 33.5t-33 79.5zM162 0v1008h184v-1008h-184zM342 1321q0 46 33.5 79.5t79.5 33.5t79 -33.5t33 -79.5t-33 -79.5t-79 -33.5t-79.5 33.5t-33.5 79.5z" />
<glyph unicode="&#xf0;" horiz-adv-x="1187" d="M76 481q0 217 137 362.5t346 145.5q174 0 279 -98l4 4q-72 163 -219 301l-320 -121l-27 127l232 88q-92 65 -213 123l111 123q164 -84 278 -178l217 82l27 -127l-140 -53q157 -161 238.5 -354t81.5 -382q0 -134 -41 -239.5t-112.5 -172t-165 -101t-201.5 -34.5 q-230 0 -371 142.5t-141 361.5zM260 492q0 -149 92 -248t240 -99q151 0 241.5 101.5t90.5 249.5q0 153 -97 243t-239 90q-146 0 -237 -94.5t-91 -242.5z" />
<glyph unicode="&#xf1;" d="M162 0v1008h184v-127l4 -2q69 69 159.5 110t192.5 41q173 0 269 -110q43 -50 63.5 -117.5t20.5 -179.5v-623h-185v588q0 149 -47 205q-54 65 -161 65q-85 0 -173 -47.5t-143 -120.5v-690h-184zM285 1200v160q64 88 170 88q70 0 166 -49q36 -18 50.5 -25t39.5 -14.5 t47 -7.5q50 0 88.5 26.5t77.5 71.5l4 -2v-160q-64 -88 -170 -88q-70 0 -166 49q-36 18 -50.5 25t-39.5 14.5t-47 7.5q-50 0 -88.5 -26.5t-77.5 -71.5z" />
<glyph unicode="&#xf2;" horiz-adv-x="1249" d="M92 504q0 223 152.5 374.5t380.5 151.5q150 0 272 -69t191 -189.5t69 -267.5t-69 -267.5t-191 -190t-272 -69.5t-272.5 69.5t-191.5 190t-69 267.5zM276 504q0 -153 99.5 -256t249.5 -103t249 103t99 256t-99 255.5t-249 102.5t-249.5 -102.5t-99.5 -255.5zM379 1489h207 l157 -336h-139z" />
<glyph unicode="&#xf3;" horiz-adv-x="1249" d="M92 504q0 223 152.5 374.5t380.5 151.5q150 0 272 -69t191 -189.5t69 -267.5t-69 -267.5t-191 -190t-272 -69.5t-272.5 69.5t-191.5 190t-69 267.5zM276 504q0 -153 99.5 -256t249.5 -103t249 103t99 256t-99 255.5t-249 102.5t-249.5 -102.5t-99.5 -255.5zM506 1153 l158 336h206l-225 -336h-139z" />
<glyph unicode="&#xf4;" horiz-adv-x="1249" d="M92 504q0 223 152.5 374.5t380.5 151.5q150 0 272 -69t191 -189.5t69 -267.5t-69 -267.5t-191 -190t-272 -69.5t-272.5 69.5t-191.5 190t-69 267.5zM276 504q0 -153 99.5 -256t249.5 -103t249 103t99 256t-99 255.5t-249 102.5t-249.5 -102.5t-99.5 -255.5zM295 1153 l231 336h197l231 -336h-153l-176 215l-176 -215h-154z" />
<glyph unicode="&#xf5;" horiz-adv-x="1249" d="M92 504q0 223 152.5 374.5t380.5 151.5q150 0 272 -69t191 -189.5t69 -267.5t-69 -267.5t-191 -190t-272 -69.5t-272.5 69.5t-191.5 190t-69 267.5zM276 504q0 -153 99.5 -256t249.5 -103t249 103t99 256t-99 255.5t-249 102.5t-249.5 -102.5t-99.5 -255.5zM303 1200v160 q64 88 170 88q70 0 166 -49q36 -18 50.5 -25t39.5 -14.5t47 -7.5q50 0 88.5 26.5t77.5 71.5l4 -2v-160q-64 -88 -170 -88q-70 0 -166 49q-36 18 -50.5 25t-39.5 14.5t-47 7.5q-50 0 -88.5 -26.5t-77.5 -71.5z" />
<glyph unicode="&#xf6;" horiz-adv-x="1249" d="M92 504q0 223 152.5 374.5t380.5 151.5q150 0 272 -69t191 -189.5t69 -267.5t-69 -267.5t-191 -190t-272 -69.5t-272.5 69.5t-191.5 190t-69 267.5zM276 504q0 -153 99.5 -256t249.5 -103t249 103t99 256t-99 255.5t-249 102.5t-249.5 -102.5t-99.5 -255.5zM311 1321 q0 46 33.5 79.5t79.5 33.5t79.5 -33.5t33.5 -79.5t-33.5 -79.5t-79.5 -33.5t-79.5 33.5t-33.5 79.5zM713 1321q0 46 33 79.5t79 33.5t79.5 -33.5t33.5 -79.5t-33.5 -79.5t-79.5 -33.5t-79 33.5t-33 79.5z" />
<glyph unicode="&#xf7;" horiz-adv-x="1204" d="M109 668v147h987v-147h-987zM487 303q0 47 34 81t81 34t81 -34t34 -81t-34 -81t-81 -34t-81 34t-34 81zM487 1180q0 47 34 80.5t81 33.5t81 -33.5t34 -80.5t-34 -81t-81 -34t-81 34t-34 81z" />
<glyph unicode="&#xf8;" horiz-adv-x="1249" d="M92 504q0 223 152.5 374.5t380.5 151.5q166 0 297 -86l102 117l100 -86l-100 -115q133 -146 133 -356q0 -147 -69 -267.5t-191 -190t-272 -69.5q-166 0 -297 86l-103 -116l-100 86l100 114q-63 69 -98 162t-35 195zM276 504q0 -126 68 -219l463 528q-84 49 -182 49 q-150 0 -249.5 -102.5t-99.5 -255.5zM442 195q85 -50 183 -50q150 0 249 103t99 256q0 126 -68 219z" />
<glyph unicode="&#xf9;" d="M158 391v617h184v-582q0 -83 11.5 -130.5t37.5 -78.5q56 -70 160 -70q88 0 172 49t143 123v689h185v-1008h-185v127l-4 2q-152 -152 -348 -152q-80 0 -152.5 28.5t-121.5 84.5q-82 98 -82 301zM360 1489h207l158 -336h-139z" />
<glyph unicode="&#xfa;" d="M158 391v617h184v-582q0 -83 11.5 -130.5t37.5 -78.5q56 -70 160 -70q88 0 172 49t143 123v689h185v-1008h-185v127l-4 2q-152 -152 -348 -152q-80 0 -152.5 28.5t-121.5 84.5q-82 98 -82 301zM487 1153l158 336h207l-225 -336h-140z" />
<glyph unicode="&#xfb;" d="M158 391v617h184v-582q0 -83 11.5 -130.5t37.5 -78.5q56 -70 160 -70q88 0 172 49t143 123v689h185v-1008h-185v127l-4 2q-152 -152 -348 -152q-80 0 -152.5 28.5t-121.5 84.5q-82 98 -82 301zM276 1153l232 336h197l231 -336h-154l-176 215l-176 -215h-154z" />
<glyph unicode="&#xfc;" d="M158 391v617h184v-582q0 -83 11.5 -130.5t37.5 -78.5q56 -70 160 -70q88 0 172 49t143 123v689h185v-1008h-185v127l-4 2q-152 -152 -348 -152q-80 0 -152.5 28.5t-121.5 84.5q-82 98 -82 301zM293 1321q0 46 33.5 79.5t79.5 33.5t79 -33.5t33 -79.5t-33 -79.5t-79 -33.5 t-79.5 33.5t-33.5 79.5zM694 1321q0 46 33.5 79.5t79.5 33.5t79.5 -33.5t33.5 -79.5t-33.5 -79.5t-79.5 -33.5t-79.5 33.5t-33.5 79.5z" />
<glyph unicode="&#xfd;" horiz-adv-x="1126" d="M45 1008h205l176 -381q60 -130 137 -303h4q67 150 138 303l176 381h194l-682 -1459h-200l272 560zM446 1153l158 336h207l-225 -336h-140z" />
<glyph unicode="&#xfe;" horiz-adv-x="1220" d="M162 -451v2016h184v-619l4 -2q130 86 287 86q101 0 190.5 -38t155.5 -105t104.5 -164.5t38.5 -210.5q0 -235 -151.5 -385t-378.5 -150q-120 0 -246 52l-4 -2v-478h-184zM346 207q121 -68 254 -68q151 0 245.5 101.5t94.5 259.5q0 157 -91.5 260.5t-240.5 103.5 q-141 0 -262 -88v-569z" />
<glyph unicode="&#xff;" horiz-adv-x="1126" d="M45 1008h205l176 -381q60 -130 137 -303h4q67 150 138 303l176 381h194l-682 -1459h-200l272 560zM252 1321q0 46 33.5 79.5t79.5 33.5t79 -33.5t33 -79.5t-33 -79.5t-79 -33.5t-79.5 33.5t-33.5 79.5zM653 1321q0 46 33.5 79.5t79.5 33.5t79.5 -33.5t33.5 -79.5 t-33.5 -79.5t-79.5 -33.5t-79.5 33.5t-33.5 79.5z" />
<glyph unicode="&#x152;" horiz-adv-x="1902" d="M82 739q0 188 75.5 340.5t217.5 253.5q115 82 256 116t317 34h848v-176h-637v-451h555v-170h-555v-510h656v-176h-875q-164 0 -290 28t-236 95q-160 99 -246 257.5t-86 358.5zM276 741q0 -152 63.5 -269.5t176.5 -192.5q89 -58 188.5 -79.5t260.5 -23.5v1131 q-158 -2 -260.5 -23.5t-188.5 -77.5q-115 -74 -177.5 -194t-62.5 -271z" />
<glyph unicode="&#x153;" horiz-adv-x="2007" d="M92 502q0 111 40.5 208.5t110 168t168 111t210.5 40.5q137 0 249 -60.5t181 -166.5h4q64 107 171.5 167t233.5 60q125 0 226.5 -56.5t163 -166.5t61.5 -254q0 -52 -8 -102h-754q22 -145 119.5 -226.5t244.5 -81.5q178 0 342 125v-196q-68 -43 -164 -69t-190 -26 q-147 0 -262 60t-182 168h-4q-70 -106 -183.5 -167t-251.5 -61q-226 0 -376 150.5t-150 374.5zM276 506q0 -154 99 -257.5t248 -103.5q147 0 244.5 102t97.5 255q0 154 -99 257t-248 103t-245.5 -101.5t-96.5 -254.5zM1151 596h584q-5 107 -80 187.5t-199 80.5 q-110 0 -197.5 -68.5t-107.5 -199.5z" />
<glyph unicode="&#x178;" horiz-adv-x="1341" d="M4 1483h225l252 -363q191 -278 193 -282h4q73 113 192 284l250 361h217l-567 -811v-672h-195v670zM362 1796q0 46 33.5 79.5t79.5 33.5t79.5 -33.5t33.5 -79.5t-33.5 -79.5t-79.5 -33.5t-79.5 33.5t-33.5 79.5zM764 1796q0 46 33.5 79.5t79.5 33.5t79 -33.5t33 -79.5 t-33 -79.5t-79 -33.5t-79.5 33.5t-33.5 79.5z" />
<glyph unicode="&#x2c6;" horiz-adv-x="1028" d="M184 1153l232 336h196l232 -336h-154l-176 215l-176 -215h-154z" />
<glyph unicode="&#x2dc;" horiz-adv-x="1028" d="M193 1200v160q64 88 169 88q70 0 166 -49q35 -18 51 -25.5t40.5 -14.5t46.5 -7q50 0 87.5 26t77.5 72l5 -2v-160q-64 -88 -170 -88q-70 0 -166 49q-35 18 -51 25.5t-40.5 14.5t-46.5 7q-50 0 -87.5 -26t-77.5 -72z" />
<glyph unicode="&#x2000;" horiz-adv-x="1035" />
<glyph unicode="&#x2001;" horiz-adv-x="2071" />
<glyph unicode="&#x2002;" horiz-adv-x="1035" />
<glyph unicode="&#x2003;" horiz-adv-x="2071" />
<glyph unicode="&#x2004;" horiz-adv-x="690" />
<glyph unicode="&#x2005;" horiz-adv-x="517" />
<glyph unicode="&#x2006;" horiz-adv-x="345" />
<glyph unicode="&#x2007;" horiz-adv-x="345" />
<glyph unicode="&#x2008;" horiz-adv-x="258" />
<glyph unicode="&#x2009;" horiz-adv-x="414" />
<glyph unicode="&#x200a;" horiz-adv-x="115" />
<glyph unicode="&#x2010;" horiz-adv-x="720" d="M117 485v164h487v-164h-487z" />
<glyph unicode="&#x2011;" horiz-adv-x="720" d="M117 485v164h487v-164h-487z" />
<glyph unicode="&#x2012;" horiz-adv-x="720" d="M117 485v164h487v-164h-487z" />
<glyph unicode="&#x2013;" horiz-adv-x="1015" d="M106 494v147h803v-147h-803z" />
<glyph unicode="&#x2014;" horiz-adv-x="1609" d="M74 504v127h1462v-127h-1462z" />
<glyph unicode="&#x2018;" horiz-adv-x="548" d="M127 969l168 551h125l-113 -551h-180z" />
<glyph unicode="&#x2019;" horiz-adv-x="548" d="M129 969l113 551h180l-168 -551h-125z" />
<glyph unicode="&#x201a;" horiz-adv-x="548" d="M129 -215l113 551h180l-168 -551h-125z" />
<glyph unicode="&#x201c;" horiz-adv-x="880" d="M127 969l168 551h125l-113 -551h-180zM459 969l168 551h125l-113 -551h-180z" />
<glyph unicode="&#x201d;" horiz-adv-x="880" d="M129 969l113 551h180l-168 -551h-125zM461 969l112 551h181l-168 -551h-125z" />
<glyph unicode="&#x201e;" horiz-adv-x="880" d="M129 -215l113 551h180l-168 -551h-125zM461 -215l112 551h181l-168 -551h-125z" />
<glyph unicode="&#x2022;" horiz-adv-x="786" d="M170 608q0 92 65.5 157.5t157.5 65.5t157.5 -65.5t65.5 -157.5t-65.5 -157.5t-157.5 -65.5t-157.5 65.5t-65.5 157.5z" />
<glyph unicode="&#x2026;" horiz-adv-x="1671" d="M168 113q0 55 40 95t95 40t95 -40t40 -95q0 -56 -40 -96t-95 -40t-95 40t-40 96zM702 113q0 55 40 95t96 40t95.5 -40t39.5 -95q0 -56 -40 -96t-95 -40q-56 0 -96 40.5t-40 95.5zM1237 113q0 55 39.5 95t95.5 40t95.5 -40t39.5 -95q0 -56 -40 -96t-95 -40t-95 40t-40 96z " />
<glyph unicode="&#x202f;" horiz-adv-x="414" />
<glyph unicode="&#x2039;" horiz-adv-x="704" d="M94 504l340 448h160l-340 -448l340 -449h-160z" />
<glyph unicode="&#x203a;" horiz-adv-x="704" d="M111 55l340 449l-340 448h159l340 -448l-340 -449h-159z" />
<glyph unicode="&#x205f;" horiz-adv-x="517" />
<glyph unicode="&#x20ac;" horiz-adv-x="1226" d="M35 504v149h153q-4 54 -4 92q0 51 4 97h-153v149h180q64 237 248.5 375.5t458.5 138.5q106 0 221 -28v-193q-115 41 -232 41q-178 0 -305.5 -88.5t-185.5 -245.5h416v-149h-451q-6 -47 -6 -97q0 -34 4 -92h453v-149h-418q56 -162 184 -254t307 -92q146 0 258 47v-191 q-129 -37 -266 -37q-265 0 -445 143.5t-243 383.5h-178z" />
<glyph unicode="&#x2122;" horiz-adv-x="1290" d="M49 1384v99h467v-99h-180v-495h-107v495h-180zM608 889v594h101l192 -266l193 266h102v-594h-106v266q0 66 4 152l-4 2q-46 -68 -95 -138l-94 -131l-94 131q-24 34 -94 138l-4 -2q4 -86 4 -152v-266h-105z" />
<glyph unicode="&#x25fc;" horiz-adv-x="1003" d="M0 0v1004h1004v-1004h-1004z" />
</font>
</defs>
</svg>
