<?xml version="1.0" standalone="no"?>
<!DOCTYPE svg PUBLIC "-//W3C//DTD SVG 1.1//EN" "http://www.w3.org/Graphics/SVG/1.1/DTD/svg11.dtd" >
<svg xmlns="http://www.w3.org/2000/svg" xmlns:xlink="http://www.w3.org/1999/xlink" version="1.1">
<metadata></metadata>
<defs>
<font id="azo_sansbold" horiz-adv-x="1148" >
<font-face units-per-em="2048" ascent="1581" descent="-467" />
<missing-glyph horiz-adv-x="485" />
<glyph unicode="&#xfb01;" horiz-adv-x="1339" d="M41 750v258h143v149q0 234 107 336q97 94 284 94q96 0 173 -28v-252q-70 18 -136 18q-67 0 -91.5 -37.5t-24.5 -109.5v-170h233v-258h-233v-750h-312v750h-143zM874 1327q0 73 53.5 125.5t127.5 52.5t127 -52.5t53 -125.5t-53 -125.5t-127 -52.5t-127.5 52.5t-53.5 125.5 zM899 0v1008h311v-1008h-311z" />
<glyph unicode="&#xfb02;" horiz-adv-x="1339" d="M41 750v258h143v149q0 234 107 336q97 94 284 94q96 0 173 -28v-252q-70 18 -136 18q-67 0 -91.5 -37.5t-24.5 -109.5v-170h233v-258h-233v-750h-312v750h-143zM899 0v1565h311v-1565h-311z" />
<glyph horiz-adv-x="0" />
<glyph horiz-adv-x="0" />
<glyph horiz-adv-x="682" />
<glyph unicode="&#xd;" horiz-adv-x="731" />
<glyph unicode=" "  horiz-adv-x="485" />
<glyph unicode="&#x09;" horiz-adv-x="485" />
<glyph unicode="&#xa0;" horiz-adv-x="485" />
<glyph unicode="!" horiz-adv-x="598" d="M119 156q0 73 53 125.5t127 52.5t127 -52.5t53 -125.5t-53 -126t-127 -53t-127 53t-53 126zM119 1483h360l-76 -989h-208z" />
<glyph unicode="&#x22;" horiz-adv-x="765" d="M61 1520h263l-43 -578h-177zM442 1520h263l-43 -578h-177z" />
<glyph unicode="#" horiz-adv-x="1298" d="M18 422l56 190h219l74 258h-220l56 191h219l121 422h205l-121 -422h229l121 422h205l-121 -422h219l-55 -191h-219l-74 -258h219l-55 -190h-219l-121 -422h-205l121 422h-230l-120 -422h-205l121 422h-220zM498 612h229l74 258h-230z" />
<glyph unicode="$" horiz-adv-x="1222" d="M141 999q0 151 97.5 251t259.5 128v260h239v-258q171 -23 305 -90v-297q-103 64 -218 97.5t-203 33.5q-158 0 -158 -106q0 -24 10.5 -42.5t26.5 -30t46 -22t56 -17t70.5 -17.5t77.5 -21q84 -24 145 -53.5t110.5 -72.5t75 -103.5t25.5 -138.5q0 -160 -100 -262.5 t-269 -131.5v-262h-239v260q-183 24 -314 91v303q104 -67 223 -102.5t209 -35.5q79 0 123.5 29t44.5 90q0 26 -11 45.5t-27 32t-47.5 24t-57.5 18.5t-73 19t-79 21q-82 24 -141.5 52.5t-108.5 70.5t-73.5 101.5t-24.5 135.5z" />
<glyph unicode="%" horiz-adv-x="1906" d="M88 1122q0 167 101 275t268 108t267.5 -108t100.5 -275t-100.5 -275t-267.5 -108t-268 108t-101 275zM299 1122q0 -81 44 -136.5t114 -55.5t113.5 55t43.5 137t-43.5 137.5t-113.5 55.5t-114 -55.5t-44 -137.5zM365 0l968 1483h209l-969 -1483h-208zM1081 360 q0 167 101 275t268 108t268 -108t101 -275t-101 -275t-268 -108t-268 108t-101 275zM1292 360q0 -81 44 -136.5t114 -55.5t114 55.5t44 136.5q0 82 -44 137.5t-114 55.5t-114 -55.5t-44 -137.5z" />
<glyph unicode="&#x26;" horiz-adv-x="1458" d="M72 414q0 125 73.5 222.5t200.5 160.5l-18 18q-148 152 -148 315q0 160 123.5 268.5t314.5 108.5t314 -110t123 -267q0 -107 -58.5 -194t-152.5 -148l-60 -38l187 -193l133 332h315l-233 -549l332 -336l-2 -4h-383l-111 111q-147 -134 -408 -134q-135 0 -242 38 t-170.5 101t-96.5 139.5t-33 158.5zM385 426q0 -73 59.5 -128.5t178.5 -55.5q130 0 194 77l-289 291l-26 -12q-60 -28 -88.5 -76t-28.5 -96zM487 1118q0 -64 74 -141l41 -43l55 41q46 35 68.5 67.5t22.5 73.5q0 55 -37.5 90t-94.5 35q-60 0 -94.5 -35t-34.5 -88z" />
<glyph unicode="'" horiz-adv-x="385" d="M61 1520h263l-43 -578h-177z" />
<glyph unicode="(" horiz-adv-x="763" d="M139 543q0 311 82.5 559.5t218.5 419.5h289q-139 -180 -224 -432t-85 -547t85 -547t224 -432h-289q-136 171 -218.5 419.5t-82.5 559.5z" />
<glyph unicode=")" horiz-adv-x="763" d="M35 -436q139 180 224 432t85 547t-85 547t-224 432h289q136 -171 218.5 -419.5t82.5 -559.5t-82.5 -559.5t-218.5 -419.5h-289z" />
<glyph unicode="*" horiz-adv-x="921" d="M51 1122l58 181l268 -123l-35 -113zM150 825l198 213l96 -67l-141 -258zM365 1487h190l-37 -291h-117zM475 971l96 67l199 -213l-154 -112zM543 1180l268 123l57 -181l-290 -55z" />
<glyph unicode="+" horiz-adv-x="1228" d="M111 629v225h383v391h241v-391h383v-225h-383v-391h-241v391h-383z" />
<glyph unicode="," horiz-adv-x="626" d="M86 -301l115 614h284l-184 -614h-215z" />
<glyph unicode="-" horiz-adv-x="694" d="M94 440v254h506v-254h-506z" />
<glyph unicode="." horiz-adv-x="626" d="M125 162q0 76 55.5 130t132.5 54t133 -54t56 -130t-56 -130.5t-133 -54.5t-132.5 54.5t-55.5 130.5z" />
<glyph unicode="/" horiz-adv-x="954" d="M12 -78l693 1639h237l-692 -1639h-238z" />
<glyph unicode="0" horiz-adv-x="1286" d="M98 741q0 378 135 564q71 97 178 148.5t232 51.5q126 0 232.5 -51.5t177.5 -148.5q135 -186 135 -564q0 -377 -135 -563q-71 -98 -178 -149.5t-232 -51.5q-124 0 -231.5 52t-178.5 149q-135 186 -135 563zM424 739q0 -291 70 -391q59 -80 149 -80q91 0 150 80 q37 52 53 145t16 250q0 293 -69 392q-55 79 -150 79q-94 0 -149 -79q-70 -102 -70 -396z" />
<glyph unicode="1" horiz-adv-x="1058" d="M133 983v295l627 227v-1505h-326v1092z" />
<glyph unicode="2" horiz-adv-x="1191" d="M35 4l452 598q125 167 173.5 253t48.5 165q0 92 -61 143t-161 51q-81 0 -172.5 -34.5t-173.5 -98.5v305q168 119 377 119q224 0 372 -125.5t148 -330.5q0 -120 -56 -242t-177 -283l-178 -235l2 -4h463v-285h-1055z" />
<glyph unicode="3" horiz-adv-x="1167" d="M98 92v314q232 -142 412 -142q106 0 168.5 47t62.5 131q0 82 -64 128t-192 46h-147v246h139q116 0 176 48.5t60 129.5q0 84 -60 131.5t-161 47.5q-73 0 -155 -24t-151 -62v290q136 82 330 82q226 0 374 -117t148 -294q0 -109 -59 -196.5t-160 -125.5v-4 q121 -41 184.5 -135.5t63.5 -214.5q0 -128 -72.5 -229.5t-195.5 -156.5t-273 -55q-120 0 -235.5 31t-192.5 84z" />
<glyph unicode="4" horiz-adv-x="1341" d="M0 322l756 1161h288v-918h226v-248h-226v-317h-323v317h-719zM449 569l2 -4h276v215q0 84 4 224l-4 2q-45 -76 -133 -213z" />
<glyph unicode="5" horiz-adv-x="1161" d="M88 68l23 290q190 -94 362 -94q125 0 201 48.5t76 133.5q0 49 -29 87t-73 60t-103.5 36t-113 19t-109.5 5q-96 0 -175 -12l62 842h809l-21 -285h-485l-23 -295q86 -3 167 -19t158 -51t134.5 -85t92 -126.5t34.5 -170.5q0 -214 -163 -344t-420 -130q-113 0 -222.5 25.5 t-181.5 65.5z" />
<glyph unicode="6" horiz-adv-x="1282" d="M86 496q0 121 42.5 233.5t141.5 261.5l322 492h379l-391 -580l2 -2q67 31 155 31q188 0 320.5 -131t132.5 -330q0 -213 -157.5 -353.5t-395.5 -140.5q-155 0 -279 61t-198 180t-74 278zM420 471q0 -90 62.5 -155.5t160.5 -65.5q94 0 159.5 60.5t65.5 154.5 q0 92 -63 154.5t-160 62.5q-95 0 -160 -60t-65 -151z" />
<glyph unicode="7" horiz-adv-x="1163" d="M84 1198v285h1044l2 -4l-600 -1479h-342l486 1198h-590z" />
<glyph unicode="8" horiz-adv-x="1318" d="M100 426q0 122 65 217.5t185 140.5v4q-97 38 -150 119.5t-53 184.5q0 117 67.5 212t184.5 148t260 53t260 -53t184.5 -148t67.5 -212q0 -103 -53 -184.5t-149 -119.5v-4q120 -45 185 -140.5t65 -217.5q0 -198 -158.5 -323.5t-401.5 -125.5t-401 125.5t-158 323.5z M434 449q0 -88 64 -145.5t161 -57.5t161.5 57.5t64.5 145.5t-65.5 147t-160.5 59t-160 -59t-65 -147zM463 1063q0 -76 57 -127t139 -51t139.5 51t57.5 127q0 75 -57 125.5t-140 50.5t-139.5 -50.5t-56.5 -125.5z" />
<glyph unicode="9" horiz-adv-x="1257" d="M74 1006q0 142 72 256t198.5 177.5t282.5 63.5q152 0 275.5 -59.5t198.5 -175.5t75 -269q0 -118 -45.5 -233.5t-133.5 -259.5l-313 -506h-377l350 565l-2 4q-53 -18 -127 -18q-115 0 -218 54t-169.5 160t-66.5 241zM393 1018q0 -90 63 -151.5t162 -61.5q97 0 160.5 60 t63.5 149q0 88 -63.5 153.5t-160.5 65.5q-93 0 -159 -61t-66 -154z" />
<glyph unicode=":" horiz-adv-x="626" d="M137 154q0 72 52 124t124 52t124 -52t52 -124t-52 -124.5t-124 -52.5t-124 52.5t-52 124.5zM137 854q0 72 52 124t124 52t124 -52t52 -124t-52 -124t-124 -52t-124 52t-52 124z" />
<glyph unicode=";" horiz-adv-x="626" d="M86 -301l115 614h284l-184 -614h-215zM137 854q0 72 52 124t124 52t124 -52t52 -124t-52 -124t-124 -52t-124 52t-52 124z" />
<glyph unicode="&#x3c;" horiz-adv-x="1466" d="M168 659v164l1130 434v-237l-718 -277v-4l718 -276v-238z" />
<glyph unicode="=" horiz-adv-x="1228" d="M111 406v223h1007v-223h-1007zM111 854v223h1007v-223h-1007z" />
<glyph unicode="&#x3e;" horiz-adv-x="1466" d="M168 225v238l719 276v4l-719 277v237l1130 -434v-164z" />
<glyph unicode="?" horiz-adv-x="1052" d="M115 1403q66 45 160.5 73.5t187.5 28.5q215 0 358.5 -129t143.5 -321q0 -119 -60.5 -218t-151.5 -156t-194 -71v-153h-289l-49 364q416 0 416 209q0 78 -54 129t-147 51q-131 0 -282 -98zM262 156q0 73 53 125.5t127 52.5t127.5 -52.5t53.5 -125.5t-53.5 -126t-127.5 -53 t-127 53t-53 126z" />
<glyph unicode="@" horiz-adv-x="1628" d="M47 504q0 161 58.5 303t160 243t244.5 159.5t305 58.5q217 0 393.5 -101t274.5 -272t98 -375q0 -195 -89.5 -302t-244.5 -107q-80 0 -145.5 28t-104.5 76h-4q-46 -50 -112.5 -78t-139.5 -28q-143 0 -235 100t-92 256q0 112 46.5 209.5t139 161t211.5 63.5q112 0 197 -59 l170 26l-37 -407q-2 -23 -2 -49q0 -68 32 -114t97 -46q75 0 122.5 65t47.5 197q0 121 -43 233t-121 199t-197 139t-260 52t-260 -51.5t-198.5 -138.5t-124 -201.5t-44.5 -241.5q0 -125 43.5 -238.5t122 -200.5t197 -138.5t258.5 -51.5q243 0 420 143l74 -116 q-99 -77 -225 -118.5t-263 -41.5q-164 0 -307.5 58.5t-244.5 159.5t-159.5 243t-58.5 303zM621 467q0 -84 41 -136t114 -52q103 0 162 81q-5 35 2 109l18 205q-63 55 -139 55q-62 0 -108.5 -41t-68 -99.5t-21.5 -121.5z" />
<glyph unicode="A" horiz-adv-x="1531" d="M6 0l602 1483h316l602 -1483h-348l-119 311h-598l-121 -311h-334zM561 567h400l-62 166q-80 218 -135 377h-4q-64 -187 -139 -385z" />
<glyph unicode="B" horiz-adv-x="1308" d="M135 0v1483h432q317 0 468 -95t151 -282q0 -214 -223 -295v-4q141 -41 211.5 -132.5t70.5 -225.5q0 -214 -168 -331.5t-502 -117.5h-440zM461 279h121q134 0 208 19.5t102 58t28 106.5q0 182 -265 182h-194v-366zM461 868h172q106 0 166.5 41.5t60.5 126.5q0 90 -66 129 t-233 39h-100v-336z" />
<glyph unicode="C" horiz-adv-x="1394" d="M72 739q0 160 59.5 301t164.5 243.5t256.5 162t326.5 59.5q222 0 411 -92v-330q-86 58 -193 93.5t-216 35.5q-213 0 -348.5 -133t-135.5 -336q0 -132 59.5 -239t173.5 -170.5t263 -63.5q218 0 420 138v-332q-185 -99 -434 -99q-234 0 -419 100t-286.5 274t-101.5 388z " />
<glyph unicode="D" horiz-adv-x="1521" d="M135 0v1483h416q441 0 674 -191.5t233 -548.5q0 -352 -229 -547.5t-692 -195.5h-402zM461 285h90q301 0 441.5 116.5t140.5 341.5q0 117 -44.5 212t-127.5 153q-73 52 -173 71t-239 19h-88v-913z" />
<glyph unicode="E" d="M135 0v1483h916v-285h-590v-291h508v-270h-508v-352h612v-285h-938z" />
<glyph unicode="F" horiz-adv-x="1159" d="M135 0v1483h940v-285h-614v-319h528v-271h-528v-608h-326z" />
<glyph unicode="G" horiz-adv-x="1507" d="M72 735q0 162 60.5 304.5t167 245t258 161.5t325.5 59q250 0 454 -112v-328q-98 67 -214.5 107t-233.5 40q-220 0 -356 -136.5t-136 -338.5q0 -130 58 -237t171 -172.5t261 -65.5q101 0 182 33v223h-258v270h573v-688q-102 -57 -235 -90t-268 -33q-175 0 -326 57.5 t-257 157.5t-166 240.5t-60 302.5z" />
<glyph unicode="H" horiz-adv-x="1562" d="M135 0v1483h326v-574h641v574h325v-1483h-325v625h-641v-625h-326z" />
<glyph unicode="I" horiz-adv-x="595" d="M135 0v1483h326v-1483h-326z" />
<glyph unicode="J" horiz-adv-x="827" d="M27 16v293q98 -39 188 -39t121 45.5t31 165.5v1002h325v-996q0 -252 -98 -374q-112 -136 -348 -136q-120 0 -219 39z" />
<glyph unicode="K" horiz-adv-x="1380" d="M135 0v1483h326v-656l4 -2l518 658h387l-561 -688l608 -795h-401l-551 741l-4 -2v-739h-326z" />
<glyph unicode="L" horiz-adv-x="1136" d="M135 0v1483h326v-1198h649v-285h-975z" />
<glyph unicode="M" horiz-adv-x="1773" d="M135 0v1483h314l440 -627l440 627h309v-1483h-325v594q0 157 4 369l-4 2q-162 -241 -217 -318l-215 -305l-215 305q-55 77 -217 318l-5 -2q5 -265 5 -369v-594h-314z" />
<glyph unicode="N" horiz-adv-x="1613" d="M135 0v1483h307l445 -598q116 -157 278 -383l4 2q-4 282 -4 428v551h314v-1483h-308l-444 598q-116 156 -278 383l-5 -2q5 -352 5 -428v-551h-314z" />
<glyph unicode="O" horiz-adv-x="1687" d="M70 741q0 213 101 388t278.5 275.5t394.5 100.5t394.5 -100.5t278.5 -275.5t101 -388t-101 -388t-278.5 -275.5t-394.5 -100.5t-394.5 100.5t-278.5 275.5t-101 388zM395 741q0 -197 129 -333t320 -136t319.5 135.5t128.5 333.5t-128.5 333.5t-319.5 135.5t-320 -136 t-129 -333z" />
<glyph unicode="P" horiz-adv-x="1308" d="M135 0v1483h440q680 0 680 -473q0 -250 -175.5 -365t-516.5 -115h-102v-530h-326zM461 795h119q197 0 273.5 45.5t76.5 152.5q0 119 -83 162t-276 43h-110v-403z" />
<glyph unicode="Q" horiz-adv-x="1687" d="M70 741q0 213 101 388t278.5 275.5t394.5 100.5t394.5 -100.5t278.5 -275.5t101 -388q0 -229 -116 -412.5t-312 -275.5v-4q189 -124 416 -219l-297 -174q-257 118 -480 321q-214 4 -388 105t-272.5 274.5t-98.5 384.5zM395 741q0 -197 129 -333t320 -136t319.5 135.5 t128.5 333.5t-128.5 333.5t-319.5 135.5t-320 -136t-129 -333z" />
<glyph unicode="R" horiz-adv-x="1337" d="M135 0v1483h465q639 0 639 -447q0 -145 -78 -254t-223 -155l418 -627h-375l-375 586h-145v-586h-326zM461 829h164q144 0 216 43t72 142q0 98 -74 141t-253 43h-125v-369z" />
<glyph unicode="S" horiz-adv-x="1179" d="M78 1057q0 206 142.5 327t377.5 121q113 0 236.5 -27.5t216.5 -78.5v-322q-112 70 -237 107t-218 37q-87 0 -138.5 -34.5t-51.5 -105.5q0 -32 12 -56.5t28.5 -40t51 -30.5t61.5 -23.5t78 -23.5t84 -26q73 -24 128.5 -49t109 -62.5t88.5 -82.5t56 -108t21 -139 q0 -214 -148 -338.5t-390 -124.5q-113 0 -237.5 27.5t-223.5 77.5v328q113 -72 241 -110t224 -38q94 0 150.5 39t56.5 119q0 29 -7.5 51.5t-25.5 40t-36 29.5t-52 24.5t-59.5 20.5t-72 21.5t-77.5 23.5q-68 23 -120 46t-105 59t-87 79t-55.5 105t-21.5 137z" />
<glyph unicode="T" horiz-adv-x="1345" d="M31 1198v285h1284v-285h-479v-1198h-326v1198h-479z" />
<glyph unicode="U" horiz-adv-x="1533" d="M121 711v772h325v-760q0 -121 15 -202.5t52 -139.5t101 -84.5t160 -26.5q177 0 251.5 105t74.5 346v762h313v-764q0 -172 -27 -294.5t-88 -209.5q-79 -113 -217 -175.5t-315 -62.5q-178 0 -317.5 63t-217.5 179q-110 164 -110 492z" />
<glyph unicode="V" horiz-adv-x="1447" d="M-6 1483h350l238 -652q81 -221 143 -403h4q45 130 148 406l243 649h334l-565 -1483h-328z" />
<glyph unicode="W" horiz-adv-x="2156" d="M14 1483h342l189 -637q45 -153 106 -383h4q54 196 113 385l197 635h237l195 -635q58 -187 112 -385h4q52 196 111 389l191 631h327l-456 -1483h-345l-159 522q-59 189 -105 355h-4q-53 -191 -106 -361l-160 -516h-340z" />
<glyph unicode="X" horiz-adv-x="1421" d="M-35 0l541 793l-465 690h381l133 -203q95 -146 164 -256h2q62 102 162 254l133 205h364l-465 -690l543 -793h-387l-211 317q-47 70 -155 242h-5q-54 -87 -153 -240l-211 -319h-371z" />
<glyph unicode="Y" horiz-adv-x="1411" d="M-27 1483h379l180 -269q101 -149 179 -272h4q92 146 178 275l178 266h367l-568 -811v-672h-325v670z" />
<glyph unicode="Z" horiz-adv-x="1331" d="M16 4l703 1190l-2 4h-635v285h1171l2 -4l-702 -1190l2 -4h682v-285h-1219z" />
<glyph unicode="[" horiz-adv-x="741" d="M154 -436v1958h501v-224h-215v-1511h215v-223h-501z" />
<glyph unicode="\" horiz-adv-x="954" d="M12 1561h238l692 -1639h-237z" />
<glyph unicode="]" horiz-adv-x="741" d="M86 -213h215v1511h-215v224h502v-1958h-502v223z" />
<glyph unicode="^" horiz-adv-x="1144" d="M104 741l363 764h211l362 -764h-241l-226 451h-2l-225 -451h-242z" />
<glyph unicode="_" horiz-adv-x="1032" d="M0 -170h1032v-135h-1032v135z" />
<glyph unicode="`" horiz-adv-x="1089" d="M262 1489h279l172 -336h-213z" />
<glyph unicode="a" horiz-adv-x="1099" d="M63 279q0 159 123 243q106 72 283 72q87 0 174 -19v39q0 73 -39 107q-46 43 -155 43q-146 0 -295 -80v268q156 78 352 78q220 0 336 -96q112 -90 112 -279v-342q0 -80 62 -80q25 0 51 13v-234q-58 -30 -149 -30q-142 0 -218 79h-4q-118 -84 -280 -84q-137 0 -234 66 q-119 82 -119 236zM373 307q0 -48 36.5 -74t92.5 -26q75 0 141 41v147q-49 15 -111 15q-68 0 -113.5 -24.5t-45.5 -78.5z" />
<glyph unicode="b" horiz-adv-x="1239" d="M129 -12v1577h311v-602l4 -2q103 69 248 69q94 0 180 -36t151.5 -100t104.5 -161t39 -211q0 -238 -154 -391.5t-390 -153.5q-124 0 -250 52zM440 268q70 -39 160 -39q120 0 187 81t67 198q0 114 -65 188t-177 74q-90 0 -172 -49v-453z" />
<glyph unicode="c" horiz-adv-x="1048" d="M68 502q0 154 78.5 276t209.5 187t289 65q165 0 299 -67v-289q-148 94 -285 94q-124 0 -202 -74.5t-78 -189.5q0 -116 79.5 -189t205.5 -73q74 0 152.5 26.5t141.5 73.5v-287q-141 -78 -329 -78q-243 0 -402 149t-159 376z" />
<glyph unicode="d" horiz-adv-x="1241" d="M74 483q0 236 152.5 391.5t379.5 155.5q106 0 191 -37l4 2v570h311v-1565h-305v53l-4 2q-113 -78 -256 -78q-95 0 -181 36t-151 100.5t-103 160.5t-38 209zM387 498q0 -116 64 -191.5t176 -75.5q93 0 174 52v450q-76 39 -162 39q-119 0 -185.5 -77.5t-66.5 -196.5z" />
<glyph unicode="e" d="M66 500q0 117 43.5 218t116 168.5t168.5 105.5t200 38q95 0 180 -31.5t153 -92t108 -158t40 -220.5q0 -66 -6 -106h-684q25 -101 103 -152t190 -51q179 0 342 111v-260q-71 -44 -175 -68.5t-208 -24.5q-251 0 -411 144.5t-160 378.5zM383 618h405q-13 81 -67.5 128 t-130.5 47q-74 0 -130.5 -45.5t-76.5 -129.5z" />
<glyph unicode="f" horiz-adv-x="761" d="M41 750v258h143v149q0 234 107 336q97 94 284 94q96 0 173 -28v-252q-70 18 -136 18q-67 0 -91.5 -37.5t-24.5 -109.5v-170h233v-258h-233v-750h-312v750h-143z" />
<glyph unicode="g" horiz-adv-x="1226" d="M74 504q0 225 146.5 375.5t377.5 150.5q135 0 252 -57l244 43v-996q0 -234 -146.5 -363.5t-392.5 -129.5q-193 0 -344 74v295q167 -103 326 -103q116 0 180.5 58t64.5 169v56l-4 2q-44 -32 -107.5 -50t-127.5 -18q-123 0 -229 58.5t-173 173.5t-67 262zM389 516 q0 -112 64.5 -182t171.5 -70q89 0 157 43v422q-72 37 -153 37q-115 0 -177.5 -72.5t-62.5 -177.5z" />
<glyph unicode="h" horiz-adv-x="1228" d="M129 0v1565h311v-647l4 -3q140 115 308 115q167 0 264 -102q46 -50 67 -120.5t21 -178.5v-629h-311v578q0 100 -35 141q-37 43 -107 43q-104 0 -211 -84v-678h-311z" />
<glyph unicode="i" horiz-adv-x="569" d="M104 1327q0 73 53.5 125.5t127.5 52.5t127 -52.5t53 -125.5t-53 -125.5t-127 -52.5t-127.5 52.5t-53.5 125.5zM129 0v1008h311v-1008h-311z" />
<glyph unicode="j" horiz-adv-x="575" d="M-92 -201q55 -10 102 -10q76 0 100.5 38.5t24.5 123.5v1057h311v-1037q0 -134 -22.5 -211t-69.5 -125q-54 -55 -135 -81.5t-170 -26.5q-79 0 -141 16v256zM111 1327q0 73 53 125.5t127 52.5t127 -52.5t53 -125.5t-53 -125.5t-127 -52.5t-127 52.5t-53 125.5z" />
<glyph unicode="k" horiz-adv-x="1189" d="M129 0v1565h311v-983l4 -2l353 428h354l-385 -451l414 -557h-369l-367 514l-4 -2v-512h-311z" />
<glyph unicode="l" horiz-adv-x="569" d="M129 0v1565h311v-1565h-311z" />
<glyph unicode="m" horiz-adv-x="1867" d="M129 0v1008h307v-90l4 -3q136 115 303 115q89 0 170 -36t123 -107q162 143 355 143q163 0 260 -100q92 -96 92 -297v-633h-311v582q0 97 -37 137q-40 43 -107 43q-103 0 -198 -84q2 -14 2 -45v-633h-312v582q0 97 -37 137q-40 43 -106 43q-100 0 -197 -82v-680h-311z" />
<glyph unicode="n" horiz-adv-x="1228" d="M129 0v1008h307v-93l4 -2q145 117 312 117t264 -102q46 -50 67 -120.5t21 -178.5v-629h-311v578q0 100 -35 141q-37 43 -107 43q-104 0 -211 -84v-678h-311z" />
<glyph unicode="o" horiz-adv-x="1253" d="M66 504q0 147 72.5 267.5t201.5 189.5t287 69t287 -69t201.5 -189.5t72.5 -267.5q0 -224 -160.5 -375.5t-400.5 -151.5t-400.5 151.5t-160.5 375.5zM377 504q0 -108 72.5 -183t177.5 -75t177.5 75t72.5 183t-72.5 183t-177.5 75t-177.5 -75t-72.5 -183z" />
<glyph unicode="p" horiz-adv-x="1236" d="M129 -451v1459h305v-52l4 -2q111 76 250 76q96 0 183 -37.5t152 -103.5t103.5 -164t38.5 -213q0 -158 -70 -281t-189.5 -188.5t-266.5 -65.5q-115 0 -195 39l-4 -2v-465h-311zM440 268q76 -39 160 -39q118 0 185 75.5t67 191.5q0 118 -66 196t-178 78q-93 0 -168 -55 v-447z" />
<glyph unicode="q" horiz-adv-x="1241" d="M74 489q0 236 152 388.5t386 152.5q143 0 269 -63l231 41v-1459h-311v488l-4 2q-107 -62 -238 -62q-99 0 -188 37t-154.5 102.5t-104 162.5t-38.5 210zM387 498q0 -115 65 -192t179 -77q96 0 170 52v450q-88 39 -164 39q-117 0 -183.5 -77.5t-66.5 -194.5z" />
<glyph unicode="r" horiz-adv-x="821" d="M129 0v1008h305v-136l4 -2q107 150 293 150q35 0 66 -8v-293q-42 10 -84 10q-171 0 -273 -119v-610h-311z" />
<glyph unicode="s" horiz-adv-x="1011" d="M68 696q1 104 59 180.5t156.5 115t224.5 38.5q218 0 385 -80v-268q-93 53 -198.5 81t-180.5 28q-62 0 -96.5 -18.5t-34.5 -53.5q0 -18 9.5 -31t23.5 -21t40 -14.5t50.5 -11t64 -12t70.5 -15.5q155 -38 232 -104.5t77 -190.5q-1 -161 -127 -251.5t-325 -90.5 q-97 0 -203 20.5t-191 61.5v273q96 -56 205 -85.5t189 -29.5q137 0 137 78q0 19 -9.5 32.5t-24.5 21.5t-41.5 15t-52 11t-65 12t-71.5 16q-151 37 -227 105.5t-76 187.5z" />
<glyph unicode="t" horiz-adv-x="839" d="M41 750v258h164v262l311 53v-315h266v-258h-266v-338q0 -82 25.5 -127t91.5 -45q65 0 149 41v-248q-36 -24 -99.5 -40t-127.5 -16q-168 0 -262 101q-88 95 -88 301v371h-164z" />
<glyph unicode="u" horiz-adv-x="1239" d="M129 387v621h311v-574q0 -103 39 -145q39 -45 111 -45q55 0 110 26t95 64v674h311v-1008h-307v94l-4 2q-137 -119 -308 -119q-164 0 -262 101q-50 52 -73 125t-23 184z" />
<glyph unicode="v" horiz-adv-x="1140" d="M12 1008h328l119 -324q38 -102 112 -319h4q64 176 121 321l125 322h307l-409 -1008h-297z" />
<glyph unicode="w" horiz-adv-x="1695" d="M25 1008h323l103 -318q42 -126 88 -291h4q53 171 94 291l108 318h232l106 -318q50 -148 93 -291h4q41 145 88 291l102 318h301l-344 -1008h-291l-90 268q-40 120 -90 289h-4q-44 -150 -92 -287l-92 -270h-299z" />
<glyph unicode="x" horiz-adv-x="1112" d="M-16 0l389 539l-344 469h346l76 -113q41 -59 110 -170h4q59 91 111 168l78 115h325l-342 -467l391 -541h-356l-117 174q-46 69 -108 168h-4q-49 -79 -109 -168l-117 -174h-333z" />
<glyph unicode="y" horiz-adv-x="1142" d="M12 1008h328l104 -250q63 -153 129 -320h5q56 138 137 326l106 244h309l-655 -1459h-317l264 562z" />
<glyph unicode="z" horiz-adv-x="1013" d="M29 4l452 741l-2 5h-405v258h893l2 -4l-453 -742l2 -4h438v-258h-925z" />
<glyph unicode="{" horiz-adv-x="765" d="M39 430v225h59q78 0 106.5 33t28.5 113v409q0 154 89.5 244t265.5 90q77 0 139 -12v-219q-31 8 -78 8q-69 0 -99 -33t-30 -114v-361q0 -117 -31.5 -179.5t-109.5 -88.5v-4q78 -26 109.5 -89t31.5 -180v-360q0 -81 30.5 -114.5t98.5 -33.5q43 0 78 9v-219 q-67 -13 -139 -13q-176 0 -265.5 90t-89.5 244v410q0 80 -28.5 112.5t-106.5 32.5h-59z" />
<glyph unicode="|" horiz-adv-x="657" d="M209 -451v2089h240v-2089h-240z" />
<glyph unicode="}" horiz-adv-x="765" d="M39 -227q34 -9 78 -9q68 0 98.5 33.5t30.5 114.5v360q0 117 31.5 180t109.5 89v4q-78 26 -109.5 88.5t-31.5 179.5v361q0 81 -30 114t-99 33q-47 0 -78 -8v219q62 12 139 12q176 0 265 -90t89 -244v-409q0 -80 29 -113t107 -33h59v-225h-59q-78 0 -107 -32.5t-29 -112.5 v-410q0 -154 -89 -244t-265 -90q-72 0 -139 13v219z" />
<glyph unicode="~" horiz-adv-x="1138" d="M156 569v281q79 76 200 76q57 0 108.5 -16.5t127.5 -51.5q4 -2 25 -12t26 -12t22.5 -10t24.5 -10t22.5 -7.5t25 -7t23 -3t25.5 -1.5q116 0 193 120l4 -2v-280q-76 -76 -201 -76q-57 0 -108 16.5t-127 51.5q-48 23 -69 32.5t-57.5 20t-68.5 10.5q-111 0 -192 -121z" />
<glyph unicode="&#xa1;" horiz-adv-x="598" d="M119 -475l76 989h208l76 -989h-360zM119 852q0 73 53 125.5t127 52.5t127 -52.5t53 -125.5t-53 -125.5t-127 -52.5t-127 52.5t-53 125.5z" />
<glyph unicode="&#xa2;" horiz-adv-x="1056" d="M61 735q0 187 111 323t285 183v279h239v-256q141 -13 242 -66v-289q-152 95 -285 95q-125 0 -202.5 -75t-77.5 -190q0 -116 79 -189t205 -73q74 0 153 27t142 74v-287q-101 -60 -256 -74v-254h-239v270q-180 47 -288 183t-108 319z" />
<glyph unicode="&#xa3;" horiz-adv-x="1208" d="M113 0v238q172 84 172 274q0 35 -11 92h-161v238h88q-37 122 -37 209q0 203 148 328.5t376 125.5q112 0 209 -29.5t164 -74.5v-316q-83 60 -175.5 93.5t-172.5 33.5q-100 0 -162 -50t-62 -138q0 -56 37 -182h338v-238h-278q6 -38 6 -69q0 -157 -115 -246v-4h637v-285 h-1001z" />
<glyph unicode="&#xa4;" horiz-adv-x="1224" d="M59 352l160 162q-45 92 -45 203t45 203l-160 161l187 187l160 -162q89 47 206 47q118 0 207 -47l160 162l186 -187l-159 -161q45 -92 45 -203t-45 -203l159 -162l-186 -186l-160 162q-89 -47 -207 -47q-117 0 -206 47l-160 -162zM406 717q0 -94 57 -156.5t149 -62.5 t149.5 62.5t57.5 156.5t-57.5 156.5t-149.5 62.5t-149 -62.5t-57 -156.5z" />
<glyph unicode="&#xa5;" horiz-adv-x="1421" d="M23 1483h376l138 -203q86 -127 178 -272h4q78 124 178 274l135 201h365l-334 -475h170v-209h-315l-44 -62v-106h359v-211h-359v-420h-325v420h-359v211h359v104l-45 64h-314v209h166z" />
<glyph unicode="&#xa6;" horiz-adv-x="657" d="M209 352h240v-803h-240v803zM209 836v802h240v-802h-240z" />
<glyph unicode="&#xa7;" horiz-adv-x="1193" d="M102 614q0 101 51.5 174t139.5 113v4q-94 91 -94 228q0 166 128 267t316 101q170 0 297 -67v-265q-149 80 -272 80q-70 0 -114 -29.5t-44 -82.5q0 -21 6.5 -38.5t22.5 -33t31 -27t44.5 -26t50 -23.5t60.5 -26t63 -27q57 -25 99 -48t85 -56.5t70.5 -69t44.5 -85t17 -106.5 q0 -101 -50 -176t-136 -116v-5q90 -90 90 -221q0 -169 -132.5 -269.5t-334.5 -100.5q-159 0 -308 69v271q71 -37 155 -63t151 -26q70 0 113.5 30t43.5 83q0 25 -11.5 46.5t-27.5 36.5t-48 33t-57 29t-72 31.5t-77 34.5q-67 31 -115 61.5t-93.5 73t-69 98t-23.5 123.5z M403 631q0 -22 7 -40.5t24 -35t32.5 -29t45.5 -27.5t49.5 -23.5t58.5 -24.5t58 -25q125 39 125 129q0 21 -6 38t-22 33t-30.5 27.5t-44 26t-48.5 23t-59 25.5t-61 26q-129 -38 -129 -123z" />
<glyph unicode="&#xa8;" horiz-adv-x="1089" d="M158 1327q0 65 46.5 111.5t110.5 46.5q65 0 111.5 -46.5t46.5 -111.5t-46.5 -111.5t-111.5 -46.5q-64 0 -110.5 46.5t-46.5 111.5zM616 1327q0 65 47 111.5t111 46.5t111 -46.5t47 -111.5t-47 -111.5t-111 -46.5t-111 46.5t-47 111.5z" />
<glyph unicode="&#xa9;" horiz-adv-x="1634" d="M49 741q0 213 100 388t276 275.5t392 100.5t392 -100.5t276 -275.5t100 -388t-100 -388t-276 -275.5t-392 -100.5t-392 100.5t-276 275.5t-100 388zM180 741q0 -179 79.5 -325t225.5 -231t332 -85t332 85t225.5 231t79.5 325t-79.5 325t-225.5 231t-332 85t-332 -85 t-225.5 -231t-79.5 -325zM408 750q0 183 125.5 301t314.5 118q145 0 248 -63v-199q-118 78 -232 78q-107 0 -175 -65.5t-68 -167.5q0 -100 67.5 -166t177.5 -66q130 0 240 80v-199q-104 -67 -264 -67q-188 0 -311 118.5t-123 297.5z" />
<glyph unicode="&#xaa;" horiz-adv-x="772" d="M84 1020q0 97 82 156q69 49 182 49q54 0 109 -15v23q0 88 -121 88q-98 0 -191 -49v186q96 47 232 47q140 0 221 -63q76 -62 76 -182v-211q0 -52 37 -52q12 0 34 11v-162q-41 -23 -106 -23q-92 0 -143 51h-4q-72 -53 -173 -53q-93 0 -155 45q-80 59 -80 154zM295 1034 q0 -28 22 -42.5t56 -14.5q48 0 84 22v88q-30 9 -68 9q-41 0 -67.5 -15t-26.5 -47z" />
<glyph unicode="&#xab;" horiz-adv-x="1181" d="M45 504l334 448h250l-332 -448l332 -449h-250zM518 504l334 448h250l-332 -448l332 -449h-250z" />
<glyph unicode="&#xac;" horiz-adv-x="1228" d="M111 629v225h1007v-616h-239v391h-768z" />
<glyph unicode="&#xad;" horiz-adv-x="694" d="M94 440v254h506v-254h-506z" />
<glyph unicode="&#xae;" horiz-adv-x="903" d="M68 1124q0 163 110 272t275 109t275 -109t110 -272t-110 -272t-275 -109t-275 109t-110 272zM145 1124q0 -132 86 -219.5t222 -87.5t221.5 87.5t85.5 219.5t-85.5 220t-221.5 88t-222 -88t-86 -220zM301 918v413h162q68 0 114 -36t46 -99q0 -83 -80 -117l98 -161h-117 l-80 145h-41v-145h-102zM403 1137h50q65 0 65 53q0 51 -65 51h-50v-104z" />
<glyph unicode="&#xaf;" horiz-adv-x="1089" d="M231 1219v204h627v-204h-627z" />
<glyph unicode="&#xb0;" horiz-adv-x="722" d="M51 1204q0 127 88 214t221 87t221.5 -87t88.5 -214t-88.5 -214t-221.5 -87t-221 87t-88 214zM184 1204q0 -71 51 -122.5t125 -51.5t125.5 51.5t51.5 122.5t-51.5 122.5t-125.5 51.5t-125 -51.5t-51 -122.5z" />
<glyph unicode="&#xb1;" horiz-adv-x="1228" d="M145 131v223h938v-223h-938zM145 817v225h349v330h241v-330h348v-225h-348v-330h-241v330h-349z" />
<glyph unicode="&#xb2;" horiz-adv-x="768" d="M16 868l285 359q71 90 99 141t28 92q0 43 -29 67.5t-84 24.5q-108 0 -229 -79v217q124 77 260 77q154 0 240 -77.5t86 -204.5q0 -70 -31.5 -140.5t-105.5 -162.5l-84 -103l2 -4h245v-211h-680z" />
<glyph unicode="&#xb3;" horiz-adv-x="751" d="M74 926v221q135 -88 250 -88q61 0 94 22t33 62q0 78 -144 78h-94v172h88q133 0 133 82q0 39 -33.5 61.5t-91.5 22.5q-93 0 -203 -54v207q101 55 230 55q146 0 243 -71t97 -178q0 -64 -35 -113.5t-94 -73.5v-4q72 -29 109.5 -83.5t37.5 -123.5q0 -122 -104.5 -196 t-251.5 -74q-145 0 -264 76z" />
<glyph unicode="&#xb4;" horiz-adv-x="1089" d="M377 1153l172 336h278l-237 -336h-213z" />
<glyph unicode="&#xb5;" horiz-adv-x="1236" d="M133 -451v1459h311v-574q0 -103 39 -145q39 -45 111 -45q55 0 110 26t95 64v674h311v-1008h-307v94l-4 2q-56 -53 -131.5 -86t-145.5 -33q-50 0 -88 15l-4 -2l35 -441h-332z" />
<glyph unicode="&#xb6;" horiz-adv-x="1247" d="M86 1112q0 154 110 262.5t265 108.5h626v-1934h-237v1727h-152v-1727h-237v1192q-155 0 -265 108.5t-110 262.5z" />
<glyph unicode="&#xb7;" horiz-adv-x="626" d="M125 618q0 76 55.5 130.5t132.5 54.5t133 -54.5t56 -130.5t-56 -130t-133 -54t-132.5 54t-55.5 130z" />
<glyph unicode="&#xb8;" horiz-adv-x="1089" d="M365 -414l43 135q71 -38 133 -38q34 0 57 13.5t23 39.5q0 74 -183 86l84 262l115 -27l-43 -133q86 -17 133 -65t47 -121q0 -86 -63.5 -138.5t-167.5 -52.5q-90 0 -178 39z" />
<glyph unicode="&#xb9;" horiz-adv-x="677" d="M78 1413v211l422 143v-903h-236v613z" />
<glyph unicode="&#xba;" horiz-adv-x="825" d="M45 1163q0 147 104.5 244.5t264.5 97.5q159 0 262.5 -97t103.5 -245q0 -147 -104 -244.5t-264 -97.5q-159 0 -263 97t-104 245zM270 1165q0 -67 40 -110t104 -43q63 0 102 42t39 107q0 66 -40 110t-103 44t-102.5 -42.5t-39.5 -107.5z" />
<glyph unicode="&#xbb;" horiz-adv-x="1181" d="M80 55l332 449l-332 448h250l334 -448l-334 -449h-250zM553 55l332 449l-332 448h250l334 -448l-334 -449h-250z" />
<glyph unicode="&#xbc;" horiz-adv-x="2023" d="M115 1151v211l422 143v-903h-236v612zM383 -27l969 1510h262l-969 -1510h-262zM1102 180l471 709h219v-537h119v-176h-119v-176h-236v176h-452zM1413 356l2 -4h141v105q0 37 5 125l-5 2q-49 -88 -77 -129z" />
<glyph unicode="&#xbd;" horiz-adv-x="2060" d="M115 1151v211l422 143v-903h-236v612zM383 -27l969 1510h262l-969 -1510h-262zM1243 4l285 358q71 90 99 141.5t28 92.5q0 43 -29 67.5t-84 24.5q-106 0 -229 -80v217q126 78 260 78q154 0 239.5 -77.5t85.5 -204.5q0 -71 -32 -141.5t-105 -162.5l-84 -102l2 -4h246v-211 h-680z" />
<glyph unicode="&#xbe;" horiz-adv-x="2084" d="M141 664v221q135 -88 250 -88q61 0 94 22t33 62q0 77 -143 77h-94v172h88q133 0 133 82q0 39 -33.5 61.5t-91.5 22.5q-95 0 -203 -53v207q101 55 229 55q146 0 243 -71.5t97 -178.5q0 -64 -35 -113t-94 -73v-4q72 -29 110 -83.5t38 -123.5q0 -122 -104.5 -196t-251.5 -74 q-146 0 -265 76zM444 -27l969 1510h262l-968 -1510h-263zM1163 180l471 709h219v-537h119v-176h-119v-176h-235v176h-453zM1475 356l2 -4h141v105q0 55 4 125l-4 2q-45 -79 -78 -129z" />
<glyph unicode="&#xbf;" horiz-adv-x="1052" d="M98 -47q0 90 35 170t92.5 135.5t130 92t148.5 46.5v154h289l49 -365q-416 0 -416 -209q0 -78 54 -129t147 -51q129 0 282 99l39 -291q-66 -46 -160.5 -74.5t-187.5 -28.5q-215 0 -358.5 129.5t-143.5 321.5zM440 852q0 73 53.5 125.5t127.5 52.5t127 -52.5t53 -125.5 t-53 -125.5t-127 -52.5t-127.5 52.5t-53.5 125.5z" />
<glyph unicode="&#xc0;" horiz-adv-x="1531" d="M6 0l602 1483h316l602 -1483h-348l-119 311h-598l-121 -311h-334zM483 1964h279l172 -336h-213zM561 567h400l-62 166q-80 218 -135 377h-4q-64 -187 -139 -385z" />
<glyph unicode="&#xc1;" horiz-adv-x="1531" d="M6 0l602 1483h316l602 -1483h-348l-119 311h-598l-121 -311h-334zM561 567h400l-62 166q-80 218 -135 377h-4q-64 -187 -139 -385zM598 1628l172 336h279l-238 -336h-213z" />
<glyph unicode="&#xc2;" horiz-adv-x="1531" d="M6 0l602 1483h316l602 -1483h-348l-119 311h-598l-121 -311h-334zM403 1628l242 336h242l241 -336h-208l-154 187l-154 -187h-209zM561 567h400l-62 166q-80 218 -135 377h-4q-64 -187 -139 -385z" />
<glyph unicode="&#xc3;" horiz-adv-x="1531" d="M6 0l602 1483h316l602 -1483h-348l-119 311h-598l-121 -311h-334zM426 1642v232q76 76 182 76q70 0 174 -49q39 -19 53.5 -26t40.5 -14.5t48 -7.5q91 0 178 103l4 -2v-232q-75 -75 -182 -75q-70 0 -174 49q-36 18 -53 25.5t-42 14.5t-47 7q-91 0 -178 -103zM561 567h400 l-62 166q-80 218 -135 377h-4q-64 -187 -139 -385z" />
<glyph unicode="&#xc4;" horiz-adv-x="1531" d="M6 0l602 1483h316l602 -1483h-348l-119 311h-598l-121 -311h-334zM379 1802q0 64 46.5 111t111.5 47q64 0 110.5 -46.5t46.5 -111.5q0 -64 -46 -110.5t-111 -46.5t-111.5 46.5t-46.5 110.5zM561 567h400l-62 166q-80 218 -135 377h-4q-64 -187 -139 -385zM838 1802 q0 65 46.5 111.5t110.5 46.5q65 0 111.5 -47t46.5 -111t-46.5 -110.5t-111.5 -46.5t-111 46.5t-46 110.5z" />
<glyph unicode="&#xc5;" horiz-adv-x="1531" d="M6 0l602 1483h316l602 -1483h-348l-119 311h-598l-121 -311h-334zM500 1837q0 108 75.5 181t190.5 73t190.5 -73t75.5 -181t-75.5 -181t-190.5 -73t-190.5 73t-75.5 181zM561 567h400l-62 166q-80 218 -135 377h-4q-64 -187 -139 -385zM647 1837q0 -53 32.5 -88t86.5 -35 t86.5 35t32.5 88t-32.5 88t-86.5 35t-86.5 -35t-32.5 -88z" />
<glyph unicode="&#xc6;" horiz-adv-x="1961" d="M-16 0l815 1483h1065v-285h-570v-291h488v-270h-488v-352h592v-285h-917v311h-482l-168 -311h-335zM625 567h344v238q0 159 4 405h-4l-213 -401z" />
<glyph unicode="&#xc7;" horiz-adv-x="1394" d="M72 739q0 160 59.5 301t164.5 243.5t256.5 162t326.5 59.5q222 0 411 -92v-330q-86 58 -193 93.5t-216 35.5q-213 0 -348.5 -133t-135.5 -336q0 -132 59.5 -239t173.5 -170.5t263 -63.5q218 0 420 138v-332q-179 -96 -430 -99l-17 -53q86 -17 133.5 -65t47.5 -121 q0 -86 -64 -138.5t-168 -52.5q-90 0 -178 39l43 135q71 -38 133 -38q34 0 57 13.5t23 39.5q0 74 -182 86l51 162q-309 37 -499.5 246.5t-190.5 508.5z" />
<glyph unicode="&#xc8;" d="M135 0v1483h916v-285h-590v-291h508v-270h-508v-352h612v-285h-938zM319 1964h279l172 -336h-213z" />
<glyph unicode="&#xc9;" d="M135 0v1483h916v-285h-590v-291h508v-270h-508v-352h612v-285h-938zM434 1628l172 336h279l-238 -336h-213z" />
<glyph unicode="&#xca;" d="M135 0v1483h916v-285h-590v-291h508v-270h-508v-352h612v-285h-938zM240 1628l241 336h242l242 -336h-209l-154 187l-153 -187h-209z" />
<glyph unicode="&#xcb;" d="M135 0v1483h916v-285h-590v-291h508v-270h-508v-352h612v-285h-938zM215 1802q0 64 46.5 111t111.5 47q64 0 110.5 -46.5t46.5 -111.5q0 -64 -46 -110.5t-111 -46.5t-111.5 46.5t-46.5 110.5zM674 1802q0 65 46.5 111.5t110.5 46.5q65 0 111.5 -47t46.5 -111 t-46.5 -110.5t-111.5 -46.5t-111 46.5t-46 110.5z" />
<glyph unicode="&#xcc;" horiz-adv-x="595" d="M14 1964h279l172 -336h-213zM135 0v1483h326v-1483h-326z" />
<glyph unicode="&#xcd;" horiz-adv-x="595" d="M129 1628l172 336h279l-238 -336h-213zM135 0v1483h326v-1483h-326z" />
<glyph unicode="&#xce;" horiz-adv-x="595" d="M-66 1628l242 336h242l241 -336h-208l-154 187l-154 -187h-209zM135 0v1483h326v-1483h-326z" />
<glyph unicode="&#xcf;" horiz-adv-x="595" d="M-90 1802q0 64 47 111t111 47t110.5 -46.5t46.5 -111.5q0 -64 -46.5 -110.5t-110.5 -46.5q-65 0 -111.5 46.5t-46.5 110.5zM135 0v1483h326v-1483h-326zM369 1802q0 65 46.5 111.5t110.5 46.5t111 -47t47 -111t-46.5 -110.5t-111.5 -46.5q-64 0 -110.5 46.5t-46.5 110.5z " />
<glyph unicode="&#xd0;" horiz-adv-x="1552" d="M4 641v227h162v615h416q404 0 622 -150q137 -96 211 -248t74 -342q0 -174 -63.5 -319t-182.5 -242q-225 -182 -676 -182h-401v641h-162zM492 285h90q305 0 438 116q68 58 105.5 146t37.5 196q0 117 -44.5 212t-127.5 153q-73 52 -172.5 71t-238.5 19h-88v-330h268v-227 h-268v-356z" />
<glyph unicode="&#xd1;" horiz-adv-x="1613" d="M135 0v1483h307l445 -598q116 -157 278 -383l4 2q-4 282 -4 428v551h314v-1483h-308l-444 598q-116 156 -278 383l-5 -2q5 -352 5 -428v-551h-314zM467 1642v232q76 76 182 76q70 0 174 -49q39 -19 53.5 -26t40.5 -14.5t48 -7.5q91 0 178 103l4 -2v-232q-75 -75 -182 -75 q-70 0 -174 49q-36 18 -53 25.5t-42 14.5t-47 7q-91 0 -178 -103z" />
<glyph unicode="&#xd2;" horiz-adv-x="1687" d="M70 741q0 213 101 388t278.5 275.5t394.5 100.5t394.5 -100.5t278.5 -275.5t101 -388t-101 -388t-278.5 -275.5t-394.5 -100.5t-394.5 100.5t-278.5 275.5t-101 388zM395 741q0 -197 129 -333t320 -136t319.5 135.5t128.5 333.5t-128.5 333.5t-319.5 135.5t-320 -136 t-129 -333zM561 1964h279l172 -336h-213z" />
<glyph unicode="&#xd3;" horiz-adv-x="1687" d="M70 741q0 213 101 388t278.5 275.5t394.5 100.5t394.5 -100.5t278.5 -275.5t101 -388t-101 -388t-278.5 -275.5t-394.5 -100.5t-394.5 100.5t-278.5 275.5t-101 388zM395 741q0 -197 129 -333t320 -136t319.5 135.5t128.5 333.5t-128.5 333.5t-319.5 135.5t-320 -136 t-129 -333zM676 1628l172 336h278l-237 -336h-213z" />
<glyph unicode="&#xd4;" horiz-adv-x="1687" d="M70 741q0 213 101 388t278.5 275.5t394.5 100.5t394.5 -100.5t278.5 -275.5t101 -388t-101 -388t-278.5 -275.5t-394.5 -100.5t-394.5 100.5t-278.5 275.5t-101 388zM395 741q0 -197 129 -333t320 -136t319.5 135.5t128.5 333.5t-128.5 333.5t-319.5 135.5t-320 -136 t-129 -333zM481 1628l242 336h242l241 -336h-209l-153 187l-154 -187h-209z" />
<glyph unicode="&#xd5;" horiz-adv-x="1687" d="M70 741q0 213 101 388t278.5 275.5t394.5 100.5t394.5 -100.5t278.5 -275.5t101 -388t-101 -388t-278.5 -275.5t-394.5 -100.5t-394.5 100.5t-278.5 275.5t-101 388zM395 741q0 -197 129 -333t320 -136t319.5 135.5t128.5 333.5t-128.5 333.5t-319.5 135.5t-320 -136 t-129 -333zM504 1642v232q76 76 182 76q70 0 174 -49q4 -2 11 -6q78 -38 115 -41q8 -1 15 -1q92 0 179 103l4 -2v-232q-75 -75 -183 -75q-70 0 -174 49q-37 18 -52.5 25t-41 14.5t-47.5 7.5q-91 0 -178 -103z" />
<glyph unicode="&#xd6;" horiz-adv-x="1687" d="M70 741q0 213 101 388t278.5 275.5t394.5 100.5t394.5 -100.5t278.5 -275.5t101 -388t-101 -388t-278.5 -275.5t-394.5 -100.5t-394.5 100.5t-278.5 275.5t-101 388zM395 741q0 -197 129 -333t320 -136t319.5 135.5t128.5 333.5t-128.5 333.5t-319.5 135.5t-320 -136 t-129 -333zM457 1802q0 65 46.5 111.5t110.5 46.5t111 -47t47 -111t-46.5 -110.5t-111.5 -46.5q-64 0 -110.5 46.5t-46.5 110.5zM915 1802q0 64 46.5 111t111.5 47t111.5 -47t46.5 -111t-46.5 -110.5t-111.5 -46.5t-111.5 46.5t-46.5 110.5z" />
<glyph unicode="&#xd7;" horiz-adv-x="1228" d="M164 457l287 286l-287 285l166 164l284 -285l285 285l166 -164l-287 -287l287 -284l-166 -164l-285 285l-284 -285z" />
<glyph unicode="&#xd8;" horiz-adv-x="1687" d="M70 741q0 213 101 388t278.5 275.5t394.5 100.5q240 0 432 -125l121 146l123 -103l-119 -143q104 -102 160.5 -241.5t56.5 -297.5q0 -213 -101 -388t-278.5 -275.5t-394.5 -100.5q-240 0 -432 125l-121 -145l-123 102l119 144q-104 102 -160.5 241t-56.5 297zM395 741 q0 -170 97 -297l585 701q-108 65 -233 65q-191 0 -320 -136t-129 -333zM610 338q109 -66 234 -66q191 0 319.5 135.5t128.5 333.5q0 171 -96 297z" />
<glyph unicode="&#xd9;" horiz-adv-x="1533" d="M121 711v772h325v-760q0 -121 15 -202.5t52 -139.5t101 -84.5t160 -26.5q177 0 251.5 105t74.5 346v762h313v-764q0 -172 -27 -294.5t-88 -209.5q-79 -113 -217 -175.5t-315 -62.5q-178 0 -317.5 63t-217.5 179q-110 164 -110 492zM489 1964h279l172 -336h-213z" />
<glyph unicode="&#xda;" horiz-adv-x="1533" d="M121 711v772h325v-760q0 -121 15 -202.5t52 -139.5t101 -84.5t160 -26.5q177 0 251.5 105t74.5 346v762h313v-764q0 -172 -27 -294.5t-88 -209.5q-79 -113 -217 -175.5t-315 -62.5q-178 0 -317.5 63t-217.5 179q-110 164 -110 492zM604 1628l172 336h279l-238 -336h-213z " />
<glyph unicode="&#xdb;" horiz-adv-x="1533" d="M121 711v772h325v-760q0 -121 15 -202.5t52 -139.5t101 -84.5t160 -26.5q177 0 251.5 105t74.5 346v762h313v-764q0 -172 -27 -294.5t-88 -209.5q-79 -113 -217 -175.5t-315 -62.5q-178 0 -317.5 63t-217.5 179q-110 164 -110 492zM410 1628l241 336h242l242 -336h-209 l-154 187l-154 -187h-208z" />
<glyph unicode="&#xdc;" horiz-adv-x="1533" d="M121 711v772h325v-760q0 -121 15 -202.5t52 -139.5t101 -84.5t160 -26.5q177 0 251.5 105t74.5 346v762h313v-764q0 -172 -27 -294.5t-88 -209.5q-79 -113 -217 -175.5t-315 -62.5q-178 0 -317.5 63t-217.5 179q-110 164 -110 492zM385 1802q0 64 46.5 111t111.5 47 q64 0 110.5 -46.5t46.5 -111.5q0 -64 -46 -110.5t-111 -46.5t-111.5 46.5t-46.5 110.5zM844 1802q0 65 46.5 111.5t110.5 46.5q65 0 111.5 -47t46.5 -111t-46.5 -110.5t-111.5 -46.5t-111 46.5t-46 110.5z" />
<glyph unicode="&#xdd;" horiz-adv-x="1411" d="M-27 1483h379l180 -269q101 -149 179 -272h4q92 146 178 275l178 266h367l-568 -811v-672h-325v670zM543 1628l172 336h278l-237 -336h-213z" />
<glyph unicode="&#xde;" horiz-adv-x="1308" d="M135 0v1483h326v-260h114q291 0 441 -78q107 -56 173 -154.5t66 -240.5q0 -131 -57.5 -230.5t-155.5 -157.5q-84 -50 -198 -71t-281 -21h-102v-270h-326zM461 535h119q105 0 162 7t96 29q92 51 92 162q0 125 -105 174q-68 31 -254 31h-110v-403z" />
<glyph unicode="&#xdf;" horiz-adv-x="1341" d="M129 0v1143q0 232 137 340q133 104 375 104q239 0 379 -98q139 -103 139 -297q0 -133 -57 -254q-87 -16 -152 -39q-54 -20 -82 -46t-28 -65q0 -15 3.5 -27t13.5 -23t19 -18.5t29 -18t32.5 -17t41 -19t45.5 -20.5q45 -21 75 -37.5t69 -47t62.5 -62.5t40.5 -80t17 -105 q0 -82 -34 -147.5t-91.5 -106t-130 -61.5t-153.5 -21q-87 0 -174 22.5t-150 55.5v267q70 -43 157 -74t152 -31q53 0 85 21.5t32 64.5q0 23 -8 39.5t-29.5 31t-40 23t-60 26.5t-67.5 30q-117 57 -178 131t-61 184q0 147 110 240q74 63 189 98q8 32 8 61q0 74 -53 115 q-49 37 -148 37q-105 0 -151 -43q-52 -46 -52 -154v-1122h-311z" />
<glyph unicode="&#xe0;" horiz-adv-x="1099" d="M63 279q0 159 123 243q106 72 283 72q87 0 174 -19v39q0 73 -39 107q-46 43 -155 43q-146 0 -295 -80v268q156 78 352 78q220 0 336 -96q112 -90 112 -279v-342q0 -80 62 -80q25 0 51 13v-234q-58 -30 -149 -30q-142 0 -218 79h-4q-118 -84 -280 -84q-137 0 -234 66 q-119 82 -119 236zM266 1489h279l172 -336h-213zM373 307q0 -48 36.5 -74t92.5 -26q75 0 141 41v147q-49 15 -111 15q-68 0 -113.5 -24.5t-45.5 -78.5z" />
<glyph unicode="&#xe1;" horiz-adv-x="1099" d="M63 279q0 159 123 243q106 72 283 72q87 0 174 -19v39q0 73 -39 107q-46 43 -155 43q-146 0 -295 -80v268q156 78 352 78q220 0 336 -96q112 -90 112 -279v-342q0 -80 62 -80q25 0 51 13v-234q-58 -30 -149 -30q-142 0 -218 79h-4q-118 -84 -280 -84q-137 0 -234 66 q-119 82 -119 236zM373 307q0 -48 36.5 -74t92.5 -26q75 0 141 41v147q-49 15 -111 15q-68 0 -113.5 -24.5t-45.5 -78.5zM381 1153l172 336h278l-237 -336h-213z" />
<glyph unicode="&#xe2;" horiz-adv-x="1099" d="M63 279q0 159 123 243q106 72 283 72q87 0 174 -19v39q0 73 -39 107q-46 43 -155 43q-146 0 -295 -80v268q156 78 352 78q220 0 336 -96q112 -90 112 -279v-342q0 -80 62 -80q25 0 51 13v-234q-58 -30 -149 -30q-142 0 -218 79h-4q-118 -84 -280 -84q-137 0 -234 66 q-119 82 -119 236zM186 1153l242 336h242l241 -336h-209l-153 186l-154 -186h-209zM373 307q0 -48 36.5 -74t92.5 -26q75 0 141 41v147q-49 15 -111 15q-68 0 -113.5 -24.5t-45.5 -78.5z" />
<glyph unicode="&#xe3;" horiz-adv-x="1099" d="M63 279q0 159 123 243q106 72 283 72q87 0 174 -19v39q0 73 -39 107q-46 43 -155 43q-146 0 -295 -80v268q156 78 352 78q220 0 336 -96q112 -90 112 -279v-342q0 -80 62 -80q25 0 51 13v-234q-58 -30 -149 -30q-142 0 -218 79h-4q-118 -84 -280 -84q-137 0 -234 66 q-119 82 -119 236zM209 1167v232q76 76 182 76q68 0 174 -50q36 -18 53 -25.5t42 -14.5t47 -7q91 0 178 103l4 -2v-232q-76 -76 -182 -76q-69 0 -175 50q-37 18 -52.5 25t-41 14.5t-47.5 7.5q-91 0 -178 -103zM373 307q0 -48 36.5 -74t92.5 -26q75 0 141 41v147 q-49 15 -111 15q-68 0 -113.5 -24.5t-45.5 -78.5z" />
<glyph unicode="&#xe4;" horiz-adv-x="1099" d="M63 279q0 159 123 243q106 72 283 72q87 0 174 -19v39q0 73 -39 107q-46 43 -155 43q-146 0 -295 -80v268q156 78 352 78q220 0 336 -96q112 -90 112 -279v-342q0 -80 62 -80q25 0 51 13v-234q-58 -30 -149 -30q-142 0 -218 79h-4q-118 -84 -280 -84q-137 0 -234 66 q-119 82 -119 236zM162 1327q0 65 46.5 111.5t110.5 46.5q65 0 111.5 -46.5t46.5 -111.5t-46.5 -111.5t-111.5 -46.5q-64 0 -110.5 46.5t-46.5 111.5zM373 307q0 -48 36.5 -74t92.5 -26q75 0 141 41v147q-49 15 -111 15q-68 0 -113.5 -24.5t-45.5 -78.5zM621 1327 q0 65 46.5 111.5t110.5 46.5t111 -46.5t47 -111.5t-47 -111.5t-111 -46.5t-110.5 46.5t-46.5 111.5z" />
<glyph unicode="&#xe5;" horiz-adv-x="1099" d="M63 279q0 159 123 243q106 72 283 72q87 0 174 -19v39q0 73 -39 107q-46 43 -155 43q-146 0 -295 -80v268q156 78 352 78q220 0 336 -96q112 -90 112 -279v-342q0 -80 62 -80q25 0 51 13v-234q-58 -30 -149 -30q-142 0 -218 79h-4q-118 -84 -280 -84q-137 0 -234 66 q-119 82 -119 236zM283 1362q0 108 75.5 181t190.5 73t190.5 -73t75.5 -181t-75.5 -181t-190.5 -73t-190.5 73t-75.5 181zM373 307q0 -48 36.5 -74t92.5 -26q75 0 141 41v147q-49 15 -111 15q-68 0 -113.5 -24.5t-45.5 -78.5zM430 1362q0 -53 32.5 -88t86.5 -35t86.5 35 t32.5 88t-32.5 88t-86.5 35t-86.5 -35t-32.5 -88z" />
<glyph unicode="&#xe6;" horiz-adv-x="1697" d="M63 281q0 79 33 141t90 100q106 72 279 72q83 0 168 -16v36q0 73 -39 107q-46 43 -150 43q-145 0 -290 -80v268q152 78 344 78q232 0 340 -108h4q127 108 307 108q94 0 177.5 -31.5t151 -91.5t107 -158t39.5 -221q0 -66 -6 -106h-676q27 -101 103.5 -152t187.5 -51 q173 0 336 111v-260q-71 -44 -172.5 -68.5t-204.5 -24.5q-107 0 -219.5 32t-196.5 114q-70 -67 -162.5 -106.5t-193.5 -39.5q-136 0 -236 68q-121 83 -121 236zM365 305q0 -47 37 -72.5t94 -25.5q97 0 180 72q-26 65 -33 116q-65 15 -115 15q-70 0 -116.5 -25.5t-46.5 -79.5 zM940 618h397q-12 81 -65 129t-129 48q-73 0 -127.5 -45.5t-75.5 -131.5z" />
<glyph unicode="&#xe7;" horiz-adv-x="1048" d="M68 502q0 154 78.5 276t209.5 187t289 65q165 0 299 -67v-289q-148 94 -285 94q-124 0 -202 -74.5t-78 -189.5q0 -116 79.5 -189t205.5 -73q74 0 152.5 26.5t141.5 73.5v-287q-135 -75 -325 -78l-17 -53q86 -17 133.5 -65t47.5 -121q0 -86 -64 -138.5t-168 -52.5 q-90 0 -178 39l43 135q71 -38 133 -38q34 0 57 13.5t23 39.5q0 74 -182 86l53 166q-199 34 -322.5 175t-123.5 339z" />
<glyph unicode="&#xe8;" d="M66 500q0 117 43.5 218t116 168.5t168.5 105.5t200 38q95 0 180 -31.5t153 -92t108 -158t40 -220.5q0 -66 -6 -106h-684q25 -101 103 -152t190 -51q179 0 342 111v-260q-71 -44 -175 -68.5t-208 -24.5q-251 0 -411 144.5t-160 378.5zM291 1489h278l172 -336h-213z M383 618h405q-13 81 -67.5 128t-130.5 47q-74 0 -130.5 -45.5t-76.5 -129.5z" />
<glyph unicode="&#xe9;" d="M66 500q0 117 43.5 218t116 168.5t168.5 105.5t200 38q95 0 180 -31.5t153 -92t108 -158t40 -220.5q0 -66 -6 -106h-684q25 -101 103 -152t190 -51q179 0 342 111v-260q-71 -44 -175 -68.5t-208 -24.5q-251 0 -411 144.5t-160 378.5zM383 618h405q-13 81 -67.5 128 t-130.5 47q-74 0 -130.5 -45.5t-76.5 -129.5zM406 1153l172 336h278l-238 -336h-212z" />
<glyph unicode="&#xea;" d="M66 500q0 117 43.5 218t116 168.5t168.5 105.5t200 38q95 0 180 -31.5t153 -92t108 -158t40 -220.5q0 -66 -6 -106h-684q25 -101 103 -152t190 -51q179 0 342 111v-260q-71 -44 -175 -68.5t-208 -24.5q-251 0 -411 144.5t-160 378.5zM211 1153l242 336h241l242 -336h-209 l-154 186l-153 -186h-209zM383 618h405q-13 81 -67.5 128t-130.5 47q-74 0 -130.5 -45.5t-76.5 -129.5z" />
<glyph unicode="&#xeb;" d="M66 500q0 117 43.5 218t116 168.5t168.5 105.5t200 38q95 0 180 -31.5t153 -92t108 -158t40 -220.5q0 -66 -6 -106h-684q25 -101 103 -152t190 -51q179 0 342 111v-260q-71 -44 -175 -68.5t-208 -24.5q-251 0 -411 144.5t-160 378.5zM186 1327q0 65 47 111.5t111 46.5 t111 -46.5t47 -111.5t-47 -111.5t-111 -46.5t-111 46.5t-47 111.5zM383 618h405q-13 81 -67.5 128t-130.5 47q-74 0 -130.5 -45.5t-76.5 -129.5zM645 1327q0 65 46.5 111.5t111.5 46.5t111.5 -46.5t46.5 -111.5t-46.5 -111.5t-111.5 -46.5t-111.5 46.5t-46.5 111.5z" />
<glyph unicode="&#xec;" horiz-adv-x="569" d="M2 1489h279l172 -336h-213zM129 0v1008h311v-1008h-311z" />
<glyph unicode="&#xed;" horiz-adv-x="569" d="M117 1153l172 336h278l-237 -336h-213zM129 0v1008h311v-1008h-311z" />
<glyph unicode="&#xee;" horiz-adv-x="569" d="M-78 1153l242 336h242l241 -336h-209l-153 186l-154 -186h-209zM129 0v1008h311v-1008h-311z" />
<glyph unicode="&#xef;" horiz-adv-x="569" d="M-102 1327q0 65 46.5 111.5t110.5 46.5q65 0 111.5 -46.5t46.5 -111.5t-46.5 -111.5t-111.5 -46.5q-64 0 -110.5 46.5t-46.5 111.5zM129 0v1008h311v-1008h-311zM356 1327q0 65 47 111.5t111 46.5t111 -46.5t47 -111.5t-47 -111.5t-111 -46.5t-111 46.5t-47 111.5z" />
<glyph unicode="&#xf0;" horiz-adv-x="1193" d="M55 481q0 212 136.5 355t347.5 143q98 0 166 -43l4 4q-51 91 -144 178l-323 -119l-39 187l186 67q-56 36 -164 95l191 186q132 -69 264 -172l248 92l39 -186l-133 -49q148 -160 224.5 -341t76.5 -356q0 -253 -150.5 -399t-390.5 -146q-242 0 -390.5 141.5t-148.5 362.5z M367 489q0 -106 62.5 -176.5t164.5 -70.5q104 0 165.5 71t61.5 179q0 112 -63.5 178.5t-165.5 66.5q-101 0 -163 -69.5t-62 -178.5z" />
<glyph unicode="&#xf1;" horiz-adv-x="1228" d="M129 0v1008h307v-93l4 -2q145 117 312 117t264 -102q46 -50 67 -120.5t21 -178.5v-629h-311v578q0 100 -35 141q-37 43 -107 43q-104 0 -211 -84v-678h-311zM274 1167v232q76 76 183 76q68 0 174 -50q37 -18 52.5 -25t41 -14.5t47.5 -7.5q91 0 178 103l4 -2v-232 q-76 -76 -182 -76q-68 0 -174 50q-37 18 -52.5 25t-41 14.5t-47.5 7.5q-91 0 -178 -103z" />
<glyph unicode="&#xf2;" horiz-adv-x="1253" d="M66 504q0 147 72.5 267.5t201.5 189.5t287 69t287 -69t201.5 -189.5t72.5 -267.5q0 -224 -160.5 -375.5t-400.5 -151.5t-400.5 151.5t-160.5 375.5zM344 1489h279l172 -336h-213zM377 504q0 -108 72.5 -183t177.5 -75t177.5 75t72.5 183t-72.5 183t-177.5 75t-177.5 -75 t-72.5 -183z" />
<glyph unicode="&#xf3;" horiz-adv-x="1253" d="M66 504q0 147 72.5 267.5t201.5 189.5t287 69t287 -69t201.5 -189.5t72.5 -267.5q0 -224 -160.5 -375.5t-400.5 -151.5t-400.5 151.5t-160.5 375.5zM377 504q0 -108 72.5 -183t177.5 -75t177.5 75t72.5 183t-72.5 183t-177.5 75t-177.5 -75t-72.5 -183zM459 1153l172 336 h278l-237 -336h-213z" />
<glyph unicode="&#xf4;" horiz-adv-x="1253" d="M66 504q0 147 72.5 267.5t201.5 189.5t287 69t287 -69t201.5 -189.5t72.5 -267.5q0 -224 -160.5 -375.5t-400.5 -151.5t-400.5 151.5t-160.5 375.5zM264 1153l242 336h242l241 -336h-209l-153 186l-154 -186h-209zM377 504q0 -108 72.5 -183t177.5 -75t177.5 75t72.5 183 t-72.5 183t-177.5 75t-177.5 -75t-72.5 -183z" />
<glyph unicode="&#xf5;" horiz-adv-x="1253" d="M66 504q0 147 72.5 267.5t201.5 189.5t287 69t287 -69t201.5 -189.5t72.5 -267.5q0 -224 -160.5 -375.5t-400.5 -151.5t-400.5 151.5t-160.5 375.5zM287 1167v232q76 76 182 76q68 0 174 -50q37 -18 52.5 -25t41 -14.5t47.5 -7.5q92 0 179 103l4 -2v-232 q-76 -76 -183 -76q-68 0 -174 50q-37 18 -52.5 25t-41 14.5t-47.5 7.5q-91 0 -178 -103zM377 504q0 -108 72.5 -183t177.5 -75t177.5 75t72.5 183t-72.5 183t-177.5 75t-177.5 -75t-72.5 -183z" />
<glyph unicode="&#xf6;" horiz-adv-x="1253" d="M66 504q0 147 72.5 267.5t201.5 189.5t287 69t287 -69t201.5 -189.5t72.5 -267.5q0 -224 -160.5 -375.5t-400.5 -151.5t-400.5 151.5t-160.5 375.5zM240 1327q0 65 46.5 111.5t110.5 46.5q65 0 111.5 -46.5t46.5 -111.5t-46.5 -111.5t-111.5 -46.5q-64 0 -110.5 46.5 t-46.5 111.5zM377 504q0 -108 72.5 -183t177.5 -75t177.5 75t72.5 183t-72.5 183t-177.5 75t-177.5 -75t-72.5 -183zM698 1327q0 65 47 111.5t111 46.5t111 -46.5t47 -111.5t-47 -111.5t-111 -46.5t-111 46.5t-47 111.5z" />
<glyph unicode="&#xf7;" horiz-adv-x="1228" d="M111 629v225h1007v-225h-1007zM451 1161q0 66 46.5 112t112.5 46t113 -46t47 -112t-47 -111.5t-113 -45.5t-112.5 45.5t-46.5 111.5zM455 322q0 66 46.5 111.5t112.5 45.5t113 -45.5t47 -111.5t-47 -112t-113 -46t-112.5 46t-46.5 112z" />
<glyph unicode="&#xf8;" horiz-adv-x="1253" d="M66 504q0 110 42.5 207.5t116 167.5t178.5 110.5t224 40.5q164 0 301 -78l94 109l100 -82l-90 -105q156 -153 156 -370q0 -147 -72 -267.5t-201 -190t-288 -69.5q-164 0 -301 78l-95 -108l-100 82l90 104q-155 152 -155 371zM377 506q0 -82 39 -146l323 373 q-53 29 -112 29q-107 0 -178.5 -74t-71.5 -182zM514 274q51 -28 113 -28q107 0 178.5 74t71.5 182q0 81 -39 145z" />
<glyph unicode="&#xf9;" horiz-adv-x="1239" d="M129 387v621h311v-574q0 -103 39 -145q39 -45 111 -45q55 0 110 26t95 64v674h311v-1008h-307v94l-4 2q-137 -119 -308 -119q-164 0 -262 101q-50 52 -73 125t-23 184zM336 1489h278l172 -336h-213z" />
<glyph unicode="&#xfa;" horiz-adv-x="1239" d="M129 387v621h311v-574q0 -103 39 -145q39 -45 111 -45q55 0 110 26t95 64v674h311v-1008h-307v94l-4 2q-137 -119 -308 -119q-164 0 -262 101q-50 52 -73 125t-23 184zM451 1153l172 336h278l-237 -336h-213z" />
<glyph unicode="&#xfb;" horiz-adv-x="1239" d="M129 387v621h311v-574q0 -103 39 -145q39 -45 111 -45q55 0 110 26t95 64v674h311v-1008h-307v94l-4 2q-137 -119 -308 -119q-164 0 -262 101q-50 52 -73 125t-23 184zM256 1153l242 336h241l242 -336h-209l-154 186l-153 -186h-209z" />
<glyph unicode="&#xfc;" horiz-adv-x="1239" d="M129 387v621h311v-574q0 -103 39 -145q39 -45 111 -45q55 0 110 26t95 64v674h311v-1008h-307v94l-4 2q-137 -119 -308 -119q-164 0 -262 101q-50 52 -73 125t-23 184zM231 1327q0 65 46.5 111.5t111.5 46.5t111.5 -46.5t46.5 -111.5t-46.5 -111.5t-111.5 -46.5 t-111.5 46.5t-46.5 111.5zM690 1327q0 65 47 111.5t111 46.5t111 -46.5t47 -111.5t-47 -111.5t-111 -46.5t-111 46.5t-47 111.5z" />
<glyph unicode="&#xfd;" horiz-adv-x="1142" d="M12 1008h328l104 -250q63 -153 129 -320h5q56 138 137 326l106 244h309l-655 -1459h-317l264 562zM414 1153l172 336h278l-237 -336h-213z" />
<glyph unicode="&#xfe;" horiz-adv-x="1236" d="M129 -451v2016h311v-604l4 -3q102 72 244 72q96 0 182.5 -37t152 -102.5t104 -163t38.5 -211.5q0 -238 -152.5 -388.5t-381.5 -150.5q-97 0 -187 33l-4 -2v-459h-311zM440 266q76 -37 160 -37q119 0 185.5 78.5t66.5 194.5q0 118 -65 193t-175 75q-87 0 -172 -51v-453z " />
<glyph unicode="&#xff;" horiz-adv-x="1142" d="M12 1008h328l104 -250q63 -153 129 -320h5q56 138 137 326l106 244h309l-655 -1459h-317l264 562zM195 1327q0 65 46.5 111.5t110.5 46.5t111 -46.5t47 -111.5t-47 -111.5t-111 -46.5t-110.5 46.5t-46.5 111.5zM653 1327q0 65 46.5 111.5t111.5 46.5t111.5 -46.5 t46.5 -111.5t-46.5 -111.5t-111.5 -46.5t-111.5 46.5t-46.5 111.5z" />
<glyph unicode="&#x152;" horiz-adv-x="1916" d="M70 739q0 175 63 319.5t182 241.5q226 183 676 183h828v-285h-570v-291h488v-270h-488v-352h592v-285h-864q-405 0 -623 150q-137 96 -210.5 247.5t-73.5 341.5zM395 739q0 -117 44.5 -211.5t127.5 -152.5q116 -83 357 -90v911q-261 -9 -385 -115q-68 -59 -106 -146.5 t-38 -195.5z" />
<glyph unicode="&#x153;" horiz-adv-x="1945" d="M66 504q0 223 157.5 374.5t392.5 151.5q246 0 402 -172h4q151 172 377 172q92 0 175.5 -31.5t150.5 -91.5t107 -158t40 -221q0 -66 -6 -106h-676q27 -101 103.5 -152t187.5 -51q173 0 336 111v-260q-71 -44 -172.5 -68.5t-204.5 -24.5q-129 0 -238 43.5t-182 124.5h-4 q-155 -168 -400 -168q-154 0 -280.5 69t-198 190t-71.5 268zM377 506q0 -109 70.5 -184.5t175.5 -75.5q104 0 173.5 74t69.5 182q0 109 -70.5 184.5t-174.5 75.5t-174 -74t-70 -182zM1188 618h397q-12 81 -65 128t-129 47q-73 0 -127.5 -45t-75.5 -130z" />
<glyph unicode="&#x178;" horiz-adv-x="1411" d="M-27 1483h379l180 -269q101 -149 179 -272h4q92 146 178 275l178 266h367l-568 -811v-672h-325v670zM324 1802q0 65 46.5 111.5t110.5 46.5q65 0 111.5 -47t46.5 -111t-46.5 -110.5t-111.5 -46.5t-111 46.5t-46 110.5zM782 1802q0 64 47 111t111 47t111 -47t47 -111 t-46.5 -110.5t-111.5 -46.5t-111.5 46.5t-46.5 110.5z" />
<glyph unicode="&#x2c6;" horiz-adv-x="1089" d="M182 1153l242 336h242l241 -336h-209l-153 186l-154 -186h-209z" />
<glyph unicode="&#x2dc;" horiz-adv-x="1089" d="M205 1167v232q76 76 182 76q68 0 174 -50q37 -18 52.5 -25t41 -14.5t47.5 -7.5q92 0 179 103l4 -2v-232q-76 -76 -183 -76q-68 0 -174 50q-37 18 -52.5 25t-41 14.5t-47.5 7.5q-91 0 -178 -103z" />
<glyph unicode="&#x2000;" horiz-adv-x="1045" />
<glyph unicode="&#x2001;" horiz-adv-x="2091" />
<glyph unicode="&#x2002;" horiz-adv-x="1045" />
<glyph unicode="&#x2003;" horiz-adv-x="2091" />
<glyph unicode="&#x2004;" horiz-adv-x="697" />
<glyph unicode="&#x2005;" horiz-adv-x="522" />
<glyph unicode="&#x2006;" horiz-adv-x="348" />
<glyph unicode="&#x2007;" horiz-adv-x="348" />
<glyph unicode="&#x2008;" horiz-adv-x="261" />
<glyph unicode="&#x2009;" horiz-adv-x="418" />
<glyph unicode="&#x200a;" horiz-adv-x="116" />
<glyph unicode="&#x2010;" horiz-adv-x="694" d="M94 440v254h506v-254h-506z" />
<glyph unicode="&#x2011;" horiz-adv-x="694" d="M94 440v254h506v-254h-506z" />
<glyph unicode="&#x2012;" horiz-adv-x="694" d="M94 440v254h506v-254h-506z" />
<glyph unicode="&#x2013;" horiz-adv-x="999" d="M96 455v227h807v-227h-807z" />
<glyph unicode="&#x2014;" horiz-adv-x="1601" d="M66 473v191h1470v-191h-1470z" />
<glyph unicode="&#x2018;" horiz-adv-x="544" d="M70 942l190 578h195l-119 -578h-266z" />
<glyph unicode="&#x2019;" horiz-adv-x="544" d="M90 942l119 578h266l-190 -578h-195z" />
<glyph unicode="&#x201a;" horiz-adv-x="544" d="M90 -242l119 578h266l-190 -578h-195z" />
<glyph unicode="&#x201c;" horiz-adv-x="927" d="M70 942l190 578h195l-119 -578h-266zM453 942l190 578h195l-119 -578h-266z" />
<glyph unicode="&#x201d;" horiz-adv-x="927" d="M90 942l119 578h266l-190 -578h-195zM473 942l119 578h266l-190 -578h-195z" />
<glyph unicode="&#x201e;" horiz-adv-x="927" d="M90 -242l119 578h266l-190 -578h-195zM473 -242l119 578h266l-190 -578h-195z" />
<glyph unicode="&#x2022;" horiz-adv-x="770" d="M123 608q0 109 76.5 185.5t185.5 76.5t185.5 -76.5t76.5 -185.5t-76.5 -185.5t-185.5 -76.5t-185.5 76.5t-76.5 185.5z" />
<glyph unicode="&#x2026;" horiz-adv-x="1769" d="M125 162q0 76 55.5 130t132.5 54t133 -54t56 -130t-56 -130.5t-133 -54.5t-132.5 54.5t-55.5 130.5zM696 162q0 76 56 130t133 54t132.5 -54t55.5 -130t-55.5 -130.5t-132.5 -54.5t-133 54.5t-56 130.5zM1268 162q0 76 55.5 130t132.5 54t133 -54t56 -130t-56 -130.5 t-133 -54.5t-132.5 54.5t-55.5 130.5z" />
<glyph unicode="&#x202f;" horiz-adv-x="418" />
<glyph unicode="&#x2039;" horiz-adv-x="708" d="M45 504l334 448h250l-332 -448l332 -449h-250z" />
<glyph unicode="&#x203a;" horiz-adv-x="708" d="M80 55l332 449l-332 448h250l334 -448l-334 -449h-250z" />
<glyph unicode="&#x205f;" horiz-adv-x="522" />
<glyph unicode="&#x20ac;" horiz-adv-x="1251" d="M29 471v209h133q-2 20 -2 61q0 45 2 68h-133v209h172q72 225 254.5 356t443.5 131q145 0 260 -45v-299q-135 49 -248 49q-247 0 -358 -192h324v-209h-385q-3 -35 -3 -66q0 -33 3 -63h385v-209h-326q113 -199 375 -199q124 0 254 54v-297q-110 -52 -283 -52 q-265 0 -447 133.5t-251 360.5h-170z" />
<glyph unicode="&#x2122;" horiz-adv-x="1325" d="M47 1339v144h492v-144h-166v-450h-160v450h-166zM618 889v594h148l160 -219l157 219h150v-594h-158v201q0 67 4 141l-4 2q-27 -47 -76 -113l-75 -104l-76 104q-49 66 -76 113l-4 -2q4 -74 4 -141v-201h-154z" />
<glyph unicode="&#x25fc;" horiz-adv-x="1003" d="M0 0v1004h1004v-1004h-1004z" />
</font>
</defs>
</svg>
