<?xml version="1.0" standalone="no"?>
<!DOCTYPE svg PUBLIC "-//W3C//DTD SVG 1.1//EN" "http://www.w3.org/Graphics/SVG/1.1/DTD/svg11.dtd" >
<svg xmlns="http://www.w3.org/2000/svg" xmlns:xlink="http://www.w3.org/1999/xlink" version="1.1">
<metadata></metadata>
<defs>
<font id="azo_sansblack" horiz-adv-x="1261" >
<font-face units-per-em="2048" ascent="1581" descent="-467" />
<missing-glyph horiz-adv-x="483" />
<glyph unicode="&#xfb01;" horiz-adv-x="1454" d="M27 688v320h139v120q0 248 125 357q115 102 323 102q115 0 185 -24v-318q-91 17 -133 17q-53 0 -74 -29t-21 -88v-137h222v-320h-222v-688h-405v688h-139zM930 1343q0 88 62 149.5t151 61.5t151 -61.5t62 -149.5t-62 -149t-151 -61t-151 61t-62 149zM940 0v1008h406 v-1008h-406z" />
<glyph unicode="&#xfb02;" horiz-adv-x="1454" d="M27 688v320h139v120q0 248 125 357q115 102 323 102q115 0 185 -24v-318q-91 17 -133 17q-53 0 -74 -29t-21 -88v-137h222v-320h-222v-688h-405v688h-139zM940 0v1565h406v-1565h-406z" />
<glyph horiz-adv-x="0" />
<glyph horiz-adv-x="0" />
<glyph horiz-adv-x="682" />
<glyph unicode="&#xd;" horiz-adv-x="749" />
<glyph unicode=" "  horiz-adv-x="483" />
<glyph unicode="&#x09;" horiz-adv-x="483" />
<glyph unicode="&#xa0;" horiz-adv-x="483" />
<glyph unicode="!" horiz-adv-x="585" d="M55 1483h475l-96 -963h-282zM80 188q0 88 62 149.5t151 61.5t151 -61.5t62 -149.5t-62 -149.5t-151 -61.5t-151 61.5t-62 149.5z" />
<glyph unicode="&#x22;" horiz-adv-x="804" d="M31 1520h327l-51 -594h-225zM446 1520h328l-51 -594h-225z" />
<glyph unicode="#" horiz-adv-x="1325" d="M14 397l68 236h197l63 217h-197l68 235h197l114 398h254l-114 -398h196l115 398h254l-115 -398h197l-68 -235h-196l-64 -217h197l-68 -236h-197l-114 -397h-254l115 397h-197l-115 -397h-254l115 397h-197zM532 633h197l64 217h-197z" />
<glyph unicode="$" horiz-adv-x="1259" d="M129 981q0 149 95.5 251t258.5 138v268h308v-264q168 -24 299 -86v-358q-113 66 -237 101.5t-204 35.5q-98 0 -98 -66q0 -21 10.5 -34.5t36 -23t52.5 -16t76 -19t91 -25.5q169 -53 254.5 -141t85.5 -230q0 -156 -100 -261t-266 -138v-269h-308v262q-168 23 -305 87v362 q116 -67 243 -104t208 -37q108 0 108 75q0 19 -9 33t-24 22.5t-42 17.5t-53 15t-68 17t-78 22q-166 54 -250 140t-84 225z" />
<glyph unicode="%" horiz-adv-x="1929" d="M76 1122q0 170 101 276.5t280 106.5t280 -106.5t101 -276.5t-101 -276.5t-280 -106.5t-280 106.5t-101 276.5zM342 0l983 1483h262l-983 -1483h-262zM342 1122q0 -65 30 -108t85 -43t84.5 43t29.5 108t-29.5 108.5t-84.5 43.5t-85 -43.5t-30 -108.5zM1092 360 q0 170 101 276.5t280 106.5t279.5 -106.5t100.5 -276.5t-100.5 -276.5t-279.5 -106.5t-280 106.5t-101 276.5zM1358 360q0 -65 30 -108t85 -43t84.5 43t29.5 108t-29.5 108.5t-84.5 43.5t-85 -43.5t-30 -108.5z" />
<glyph unicode="&#x26;" horiz-adv-x="1509" d="M25 432q0 121 67 218t184 159q-126 137 -126 301q0 166 135 281.5t348 115.5q212 0 347.5 -116t135.5 -281q0 -110 -63 -200t-156 -150l-43 -29l135 -137l129 295h373l-246 -555l326 -330l-2 -4h-496l-78 78q-152 -101 -389 -101q-120 0 -219 26.5t-165 71t-111.5 104 t-65.5 123t-20 130.5zM434 449q0 -54 40.5 -99t131.5 -45q81 0 127 39l-219 223q-80 -37 -80 -118zM547 1092q0 -44 53 -103l25 -26l30 24q64 51 64 105q0 38 -23.5 63t-62.5 25q-40 0 -63 -25t-23 -63z" />
<glyph unicode="'" horiz-adv-x="389" d="M31 1520h327l-51 -594h-225z" />
<glyph unicode="(" horiz-adv-x="811" d="M133 543q0 311 88.5 559t235.5 420h356q-141 -179 -227 -431.5t-86 -547.5t86 -547.5t227 -431.5h-356q-147 172 -235.5 420t-88.5 559z" />
<glyph unicode=")" horiz-adv-x="811" d="M-2 -436q141 179 227 431.5t86 547.5t-86 547.5t-227 431.5h356q147 -172 235.5 -420t88.5 -559t-88.5 -559t-235.5 -420h-356z" />
<glyph unicode="*" horiz-adv-x="923" d="M43 1106l72 211l252 -123l-45 -133zM131 838l197 198l118 -82l-129 -247zM344 1483h229l-43 -275h-143zM471 954l119 82l196 -198l-186 -131zM551 1194l252 123l71 -211l-278 -45z" />
<glyph unicode="+" d="M115 604v275h362v366h307v-366h363v-275h-363v-366h-307v366h-362z" />
<glyph unicode="," horiz-adv-x="663" d="M72 -301l118 637h357l-199 -637h-276z" />
<glyph unicode="-" horiz-adv-x="686" d="M80 412v311h526v-311h-526z" />
<glyph unicode="." horiz-adv-x="663" d="M111 197q0 91 64.5 155t156.5 64t156.5 -64t64.5 -155t-64.5 -155.5t-156.5 -64.5t-156.5 64.5t-64.5 155.5z" />
<glyph unicode="/" horiz-adv-x="995" d="M-4 -78l702 1639h301l-702 -1639h-301z" />
<glyph unicode="0" horiz-adv-x="1327" d="M90 741q0 196 31 330.5t98 226.5q150 207 445 207q294 0 444 -207q67 -92 98 -226.5t31 -330.5t-31 -330.5t-98 -226.5q-150 -207 -444 -207q-295 0 -445 207q-67 92 -98 226.5t-31 330.5zM512 741q0 -266 39 -333q35 -64 113 -64q77 0 112 64q39 67 39 333 q0 267 -39 334q-35 64 -112 64q-78 0 -113 -64q-39 -67 -39 -334z" />
<glyph unicode="1" horiz-adv-x="1083" d="M117 881v385l702 239v-1505h-422v975z" />
<glyph unicode="2" horiz-adv-x="1236" d="M16 4l426 604q116 163 159.5 240.5t43.5 142.5q0 70 -45 109t-129 39q-79 0 -172 -36.5t-180 -105.5v387q70 49 185 85t241 36q238 0 384 -132t146 -335q0 -111 -48.5 -222t-154.5 -267l-129 -189l2 -4h385v-356h-1112z" />
<glyph unicode="3" horiz-adv-x="1204" d="M109 88v391q222 -145 399 -145q85 0 133.5 34t48.5 97q0 125 -213 125h-151v295h143q197 0 197 129q0 64 -46.5 99.5t-132.5 35.5q-147 0 -331 -111v377q72 41 176 65.5t207 24.5q154 0 281.5 -55t200.5 -152t73 -215q0 -104 -56.5 -186t-148.5 -121v-4 q111 -46 170 -137.5t59 -204.5q0 -132 -80.5 -237t-213.5 -160.5t-292 -55.5q-115 0 -227.5 29.5t-195.5 81.5z" />
<glyph unicode="4" horiz-adv-x="1382" d="M-23 295l748 1188h373v-893h194v-299h-194v-291h-422v291h-696zM522 594l2 -4h164v110q0 54 4 164l-4 2q-43 -79 -96 -161z" />
<glyph unicode="5" horiz-adv-x="1210" d="M88 39l27 377q196 -80 362 -80q103 0 166.5 32t63.5 93q0 39 -27.5 68t-67.5 45t-95.5 26t-100.5 13t-92 3q-97 0 -193 -14l64 881h880l-26 -357h-463l-15 -215q79 -4 154 -21t149.5 -52t130.5 -84t90.5 -123.5t34.5 -165.5q0 -146 -86 -258t-235 -171t-336 -59 q-197 0 -385 62z" />
<glyph unicode="6" horiz-adv-x="1337" d="M76 516q0 130 45 246.5t143 259.5l316 461h489l-379 -535l2 -4q47 14 105 14q120 0 223.5 -59t167 -167.5t63.5 -242.5q0 -146 -76.5 -263.5t-210.5 -183t-300 -65.5q-164 0 -296 61.5t-212 185.5t-80 292zM510 487q0 -70 45.5 -120t116.5 -50q69 0 116.5 47t47.5 117 t-46.5 118t-117.5 48q-68 0 -115 -45t-47 -115z" />
<glyph unicode="7" horiz-adv-x="1193" d="M78 1126v357h1100l2 -4l-584 -1479h-446l444 1126h-516z" />
<glyph unicode="8" horiz-adv-x="1378" d="M86 434q0 117 61 211.5t175 140.5v5q-88 38 -136.5 116t-48.5 174q0 120 75 218t201 152t275 54t275 -54t201 -152t75 -218q0 -96 -48.5 -174.5t-135.5 -115.5v-5q114 -46 174.5 -140.5t60.5 -211.5q0 -135 -80.5 -240t-217 -161t-304.5 -56t-304.5 56t-217 161 t-80.5 240zM518 467q0 -65 48.5 -110.5t121.5 -45.5t121.5 45.5t48.5 110.5q0 67 -49.5 114.5t-120.5 47.5t-120.5 -47.5t-49.5 -114.5zM547 1042q0 -56 41.5 -95.5t99.5 -39.5t99.5 39.5t41.5 95.5t-40.5 95t-100.5 39t-100.5 -39t-40.5 -95z" />
<glyph unicode="9" horiz-adv-x="1314" d="M63 987q0 147 76.5 265.5t211 184.5t300.5 66q93 0 179.5 -21.5t161 -65.5t129.5 -106t86.5 -147t31.5 -184q0 -117 -44 -236.5t-134 -267.5l-289 -475h-489l323 530l-4 2q-36 -8 -74 -8q-85 0 -167 32t-149 89t-108 146.5t-41 195.5zM477 1001q0 -66 46 -113.5 t118 -47.5q68 0 115 44.5t47 112.5q0 69 -45.5 119.5t-114.5 50.5t-117.5 -48t-48.5 -118z" />
<glyph unicode=":" horiz-adv-x="663" d="M119 188q0 88 62 149.5t151 61.5t151 -61.5t62 -149.5t-62 -149.5t-151 -61.5t-151 61.5t-62 149.5zM119 819q0 88 62 149.5t151 61.5t151 -61.5t62 -149.5t-62 -149.5t-151 -61.5t-151 61.5t-62 149.5z" />
<glyph unicode=";" horiz-adv-x="663" d="M72 -301l118 637h357l-199 -637h-276zM119 819q0 88 62 149.5t151 61.5t151 -61.5t62 -149.5t-62 -149.5t-151 -61.5t-151 61.5t-62 149.5z" />
<glyph unicode="&#x3c;" horiz-adv-x="1527" d="M160 641v201l1208 428v-289l-674 -238v-4l674 -237v-289z" />
<glyph unicode="=" d="M115 371v274h1032v-274h-1032zM115 838v274h1032v-274h-1032z" />
<glyph unicode="&#x3e;" horiz-adv-x="1527" d="M160 213v289l674 237v4l-674 238v289l1208 -428v-201z" />
<glyph unicode="?" horiz-adv-x="1011" d="M84 1421q66 37 159.5 60.5t184.5 23.5q142 0 263 -55t195.5 -159t74.5 -234q0 -164 -109.5 -284t-267.5 -150l-6 -140h-359l-43 359q369 0 369 178q0 66 -45 108.5t-129 42.5q-110 0 -246 -90zM217 188q0 88 62 149.5t151 61.5t151 -61.5t62 -149.5t-62 -149.5 t-151 -61.5t-151 61.5t-62 149.5z" />
<glyph unicode="@" horiz-adv-x="1656" d="M47 502q0 217 101 392.5t279 274.5t398 99q223 0 403.5 -100.5t281 -271.5t100.5 -376q0 -201 -97 -305t-260 -104q-171 0 -256 100h-4q-108 -102 -248 -102q-154 0 -243.5 99.5t-89.5 256.5q0 113 46 210.5t138.5 160.5t212.5 63q107 0 184 -49l215 29l-37 -414 q-2 -27 -2 -35q0 -61 29 -107.5t90 -46.5q65 0 107.5 58t42.5 180q0 114 -41 220.5t-116 191t-192 135.5t-258 51t-258.5 -50.5t-193.5 -135t-118 -194.5t-42 -230q0 -118 41 -226.5t116 -193.5t191 -135.5t256 -50.5q230 0 414 137l86 -137q-98 -75 -225.5 -115.5 t-266.5 -40.5q-224 0 -403.5 98.5t-280 273t-100.5 390.5zM672 467q0 -70 29 -113t90 -43q82 0 129 66q-7 46 -2 100l16 180q-51 37 -107 37q-75 0 -115 -69.5t-40 -157.5z" />
<glyph unicode="A" horiz-adv-x="1624" d="M4 0l600 1483h416l600 -1483h-459l-104 303h-508l-109 -303h-436zM662 614h286l-49 142q-30 86 -90 276h-4q-47 -154 -92 -276z" />
<glyph unicode="B" horiz-adv-x="1333" d="M117 0v1483h458q334 0 484 -84q83 -46 130.5 -119.5t47.5 -169.5q0 -200 -225 -285v-4q286 -97 286 -364q0 -130 -65.5 -227t-192.5 -154q-168 -76 -442 -76h-481zM539 336h61q161 0 217 29q60 34 60 112q0 144 -205 144h-133v-285zM539 891h90q96 0 141 31t45 98 q0 73 -61 104q-45 23 -166 23h-49v-256z" />
<glyph unicode="C" horiz-adv-x="1396" d="M66 739q0 162 62 304t171 243.5t264 160t334 58.5q221 0 410 -84v-413q-87 54 -192.5 88t-209.5 34q-186 0 -302 -108.5t-116 -278.5q0 -167 115 -279t311 -112q207 0 414 129v-415q-191 -89 -430 -89q-183 0 -339.5 59t-263.5 160.5t-167.5 242t-60.5 300.5z" />
<glyph unicode="D" horiz-adv-x="1552" d="M117 0v1483h426q470 0 696 -170q123 -92 188.5 -239.5t65.5 -334.5q0 -341 -211 -534q-227 -205 -731 -205h-434zM539 356h16q188 0 288 33t152 96q76 94 76 254q0 208 -127 303q-63 48 -158.5 66t-232.5 18h-14v-770z" />
<glyph unicode="E" horiz-adv-x="1179" d="M117 0v1483h966v-357h-544v-188h460v-336h-460v-246h569v-356h-991z" />
<glyph unicode="F" horiz-adv-x="1187" d="M117 0v1483h993v-357h-571v-217h481v-336h-481v-573h-422z" />
<glyph unicode="G" horiz-adv-x="1509" d="M66 733q0 163 62.5 306t172 245.5t264.5 161.5t332 59q247 0 457 -104v-408q-224 137 -441 137q-194 0 -310 -113t-116 -284q0 -170 114 -284.5t304 -114.5q52 0 90 10v158h-202v309h610v-727q-104 -50 -235 -78.5t-263 -28.5q-186 0 -343.5 57.5t-265.5 158t-169 240 t-61 300.5z" />
<glyph unicode="H" horiz-adv-x="1605" d="M117 0v1483h422v-535h528v535h422v-1483h-422v592h-528v-592h-422z" />
<glyph unicode="I" horiz-adv-x="655" d="M117 0v1483h422v-1483h-422z" />
<glyph unicode="J" horiz-adv-x="870" d="M29 14v367q105 -37 180 -37q73 0 98 37.5t25 122.5v979h422v-975q0 -151 -30 -243t-91 -152q-136 -136 -381 -136q-114 0 -223 37z" />
<glyph unicode="K" horiz-adv-x="1468" d="M117 0v1483h422v-643l4 -2l428 645h495l-489 -688l530 -795h-512l-452 727l-4 -2v-725h-422z" />
<glyph unicode="L" horiz-adv-x="1185" d="M117 0v1483h422v-1127h618v-356h-1040z" />
<glyph unicode="M" horiz-adv-x="1804" d="M117 0v1483h405l383 -541l381 541h402v-1483h-422v483q0 144 4 348l-4 3q-62 -96 -195 -285l-176 -250l-178 250q-98 135 -195 285l-4 -3q4 -204 4 -348v-483h-405z" />
<glyph unicode="N" horiz-adv-x="1654" d="M117 0v1483h395l393 -537q122 -165 228 -317l4 2q-4 250 -4 377v475h405v-1483h-395l-393 537q-122 165 -228 317l-4 -2q4 -250 4 -377v-475h-405z" />
<glyph unicode="O" horiz-adv-x="1716" d="M66 741q0 158 61.5 299.5t167 243.5t252.5 161.5t311 59.5t311.5 -59.5t253 -161.5t167 -243.5t61.5 -299.5t-61.5 -299.5t-167 -243.5t-253 -161.5t-311.5 -59.5t-311 59.5t-252.5 161.5t-167 243.5t-61.5 299.5zM487 741q0 -162 107.5 -273.5t263.5 -111.5t263.5 111.5 t107.5 273.5t-107.5 273.5t-263.5 111.5t-263.5 -111.5t-107.5 -273.5z" />
<glyph unicode="P" horiz-adv-x="1349" d="M117 0v1483h481q289 0 446 -78q121 -60 190 -164.5t69 -253.5q0 -261 -222 -391q-169 -100 -475 -100h-67v-496h-422zM539 815h75q138 0 191 27q76 39 76 137q0 102 -82 141q-59 27 -197 27h-63v-332z" />
<glyph unicode="Q" horiz-adv-x="1716" d="M66 741q0 158 61.5 299.5t167 243.5t252.5 161.5t311 59.5t311.5 -59.5t253 -161.5t167 -243.5t61.5 -299.5q0 -208 -103 -381t-276 -274v-4q187 -118 397 -211l-377 -215q-243 121 -446 321q-162 2 -307 62.5t-248.5 162t-164 242.5t-60.5 297zM487 741 q0 -162 107.5 -273.5t263.5 -111.5t263.5 111.5t107.5 273.5t-107.5 273.5t-263.5 111.5t-263.5 -111.5t-107.5 -273.5z" />
<glyph unicode="R" horiz-adv-x="1363" d="M117 0v1483h518q268 0 416 -74q239 -117 239 -387q0 -284 -272 -399l393 -623h-477l-330 563h-65v-563h-422zM539 852h104q115 0 166 31q59 35 59 116q0 90 -71 123q-55 25 -181 25h-77v-295z" />
<glyph unicode="S" horiz-adv-x="1230" d="M70 1034q0 215 152 343t403 128q119 0 250.5 -28.5t232.5 -79.5v-389q-125 70 -259 108.5t-220 38.5q-131 0 -131 -90q0 -23 10 -41t25.5 -29t45 -22.5t57 -19t74 -21.5t83.5 -27q93 -33 160 -70t122 -89t83 -124t28 -163q0 -222 -159.5 -352t-420.5 -130 q-118 0 -248.5 27t-234.5 76v395q125 -71 262.5 -109t224.5 -38q148 0 148 106q0 26 -10.5 45.5t-26.5 31.5t-47 24t-59 20t-76.5 22.5t-87.5 28.5q-90 31 -155.5 66.5t-118.5 86t-80 119t-27 156.5z" />
<glyph unicode="T" horiz-adv-x="1388" d="M12 1126v357h1364v-357h-471v-1126h-422v1126h-471z" />
<glyph unicode="U" horiz-adv-x="1581" d="M104 702v781h422v-756q0 -204 58 -285q70 -98 215 -98q132 0 202 86q70 85 70 297v756h406v-781q0 -323 -125 -489q-84 -111 -230.5 -173.5t-330.5 -62.5q-186 0 -336 62.5t-234 179.5q-117 164 -117 483z" />
<glyph unicode="V" horiz-adv-x="1529" d="M-14 1483h452l205 -580q80 -229 123 -360h4q56 167 129 364l211 576h434l-567 -1483h-424z" />
<glyph unicode="W" horiz-adv-x="2224" d="M10 1483h443l143 -527q41 -147 100 -383h4q48 179 109 385l154 525h309l149 -522q66 -229 107 -388h4q68 255 108 394l148 516h426l-453 -1483h-446l-103 358q-58 207 -104 385h-4q-54 -203 -109 -391l-102 -352h-436z" />
<glyph unicode="X" horiz-adv-x="1490" d="M-55 0l534 797l-454 686h493l98 -160q111 -185 138 -231h4q48 84 131 225l100 166h475l-454 -686l536 -797h-506l-163 264q-86 141 -140 234h-4q-67 -118 -149 -250l-154 -248h-485z" />
<glyph unicode="Y" horiz-adv-x="1509" d="M-31 1483h492l135 -209q101 -155 164 -258h4q86 139 160 254l137 213h479l-573 -811v-672h-422v664z" />
<glyph unicode="Z" horiz-adv-x="1378" d="M45 4l610 1118l-2 4h-547v357h1219l2 -4l-610 -1119l2 -4h594v-356h-1266z" />
<glyph unicode="[" horiz-adv-x="755" d="M125 -436v1958h547v-275h-172v-1409h172v-274h-547z" />
<glyph unicode="\" horiz-adv-x="995" d="M-4 1561h301l702 -1639h-301z" />
<glyph unicode="]" horiz-adv-x="755" d="M84 -162h172v1409h-172v275h547v-1958h-547v274z" />
<glyph unicode="^" horiz-adv-x="1132" d="M78 741l356 764h264l357 -764h-310l-178 375h-2l-178 -375h-309z" />
<glyph unicode="_" horiz-adv-x="1085" d="M0 -160h1085v-155h-1085v155z" />
<glyph unicode="`" horiz-adv-x="1146" d="M295 1489h328l180 -336h-262z" />
<glyph unicode="a" horiz-adv-x="1134" d="M47 283q0 78 32.5 140t86.5 101q104 76 283 76q75 0 153 -16v14q0 45 -29 74q-40 37 -135 37q-130 0 -293 -68v315q163 74 373 74q237 0 365 -98q125 -94 125 -289v-291q0 -65 51 -65q23 0 47 12v-279q-65 -38 -191 -38q-146 0 -235 67h-4q-118 -72 -262 -72 q-140 0 -238 64q-129 85 -129 242zM440 317q0 -35 26 -53t64 -18q37 0 72 14v125q-27 6 -59 6q-44 0 -73.5 -18.5t-29.5 -55.5z" />
<glyph unicode="b" d="M109 -14v1579h405v-598l4 -2q88 65 225 65q90 0 173.5 -35t149 -98t105 -160t39.5 -213q0 -242 -156.5 -394.5t-396.5 -152.5q-149 0 -260 58zM514 309q45 -18 94 -18q99 0 146 63t47 152q0 91 -45.5 146t-130.5 55q-51 0 -111 -25v-373z" />
<glyph unicode="c" horiz-adv-x="1038" d="M49 502q0 118 49.5 218t133 167.5t194.5 105t233 37.5q167 0 285 -59v-350q-138 79 -256 79q-102 0 -165.5 -54.5t-63.5 -141.5q0 -88 64.5 -141.5t168.5 -53.5q66 0 139 23t127 61v-350q-120 -66 -309 -66q-265 0 -432.5 149.5t-167.5 375.5z" />
<glyph unicode="d" horiz-adv-x="1263" d="M51 481q0 158 71 284t192 195.5t268 69.5q87 0 163 -29l5 3v561h405v-1565h-397v51l-4 2q-101 -76 -242 -76q-91 0 -174 35.5t-147 99.5t-102 160t-38 209zM461 500q0 -92 45.5 -149.5t130.5 -57.5q59 0 113 26v369q-51 21 -101 21q-94 0 -141 -59t-47 -150z" />
<glyph unicode="e" horiz-adv-x="1161" d="M49 494q0 160 77.5 284.5t201 188t268.5 63.5q96 0 184 -30.5t160.5 -91t116 -162.5t43.5 -232q0 -58 -6 -102h-633q53 -144 244 -144q165 0 337 94v-307q-79 -37 -184.5 -57.5t-208.5 -20.5q-270 0 -435 140t-165 377zM455 621h280q-13 64 -52 93t-89 29 q-54 0 -89.5 -31.5t-49.5 -90.5z" />
<glyph unicode="f" horiz-adv-x="819" d="M27 688v320h139v120q0 248 125 357q115 102 323 102q115 0 185 -24v-318q-91 17 -133 17q-53 0 -74 -29t-21 -88v-137h222v-320h-222v-688h-405v688h-139z" />
<glyph unicode="g" horiz-adv-x="1249" d="M57 504q0 226 153 376t384 150q134 0 254 -57l295 51v-995q0 -240 -157.5 -371t-416.5 -131q-211 0 -368 72v350q175 -101 336 -101q200 0 200 185v43l-4 4q-39 -31 -98 -46.5t-117 -15.5q-86 0 -168 33.5t-147.5 94t-105.5 154t-40 204.5zM467 516q0 -88 46 -141 t126 -53q46 0 98 22v346q-40 19 -90 19q-93 0 -136.5 -56t-43.5 -137z" />
<glyph unicode="h" d="M109 0v1565h405v-631l4 -2q131 98 283 98q80 0 147.5 -26.5t112.5 -69.5q98 -94 98 -301v-633h-405v571q0 68 -29 97q-28 28 -78 28q-77 0 -133 -53v-643h-405z" />
<glyph unicode="i" horiz-adv-x="622" d="M98 1343q0 88 62 149.5t151 61.5t151 -61.5t62 -149.5t-62 -149t-151 -61t-151 61t-62 149zM109 0v1008h405v-1008h-405z" />
<glyph unicode="j" horiz-adv-x="632" d="M-94 -137q52 -10 100 -10q66 0 89.5 28t23.5 101v1026h405v-1008q0 -146 -26 -227.5t-84 -134.5q-122 -111 -357 -111q-84 0 -151 12v324zM109 1343q0 88 62 149.5t151 61.5t151 -61.5t62 -149.5t-62 -149t-151 -61t-151 61t-62 149z" />
<glyph unicode="k" horiz-adv-x="1267" d="M109 0v1565h405v-971l4 -2l283 416h446l-336 -451l351 -557h-463l-281 496l-4 -2v-494h-405z" />
<glyph unicode="l" horiz-adv-x="622" d="M109 0v1565h405v-1565h-405z" />
<glyph unicode="m" horiz-adv-x="1886" d="M109 0v1008h397v-74l4 -2q138 98 283 98q83 0 162 -32.5t124 -96.5q169 129 348 129q80 0 148 -26.5t113 -69.5q96 -96 96 -301v-633h-406v571q0 69 -28 97t-78 28q-66 0 -123 -47v-649h-406v571q0 69 -28 97t-78 28q-71 0 -123 -49v-647h-405z" />
<glyph unicode="n" horiz-adv-x="1263" d="M109 0v1008h397v-78l4 -2q137 102 293 102q79 0 146 -26.5t112 -69.5q98 -94 98 -301v-633h-405v571q0 68 -29 97q-28 28 -78 28q-77 0 -133 -53v-643h-405z" />
<glyph unicode="o" d="M49 504q0 224 165 375t417 151t416.5 -151t164.5 -375q0 -147 -74 -267.5t-207.5 -190t-299.5 -69.5t-299.5 69.5t-208 190t-74.5 267.5zM451 504q0 -80 51.5 -134.5t128.5 -54.5t128.5 54.5t51.5 134.5t-51 134t-129 54t-129 -54t-51 -134z" />
<glyph unicode="p" horiz-adv-x="1259" d="M106 -451v1459h398v-43l4 -2q103 67 225 67q94 0 180.5 -37t151.5 -102.5t104 -163.5t39 -213q0 -158 -70 -281t-190.5 -189.5t-269.5 -66.5q-95 0 -162 31l-4 -2v-457h-406zM512 307q40 -16 92 -16q98 0 146.5 57.5t48.5 149.5t-47.5 150.5t-133.5 58.5q-50 0 -106 -29 v-371z" />
<glyph unicode="q" d="M51 485q0 236 154.5 390.5t400.5 154.5q131 0 254 -57l295 51v-1475h-405v478l-5 2q-91 -52 -210 -52q-204 0 -344 142t-140 366zM461 494q0 -91 45 -147t135 -56q56 0 109 24v373q-59 19 -101 19q-95 0 -141.5 -61t-46.5 -152z" />
<glyph unicode="r" horiz-adv-x="884" d="M106 0v1008h398v-109l4 -2q112 129 268 129q38 0 74 -8v-373q-56 12 -111 12q-136 0 -227 -84v-573h-406z" />
<glyph unicode="s" horiz-adv-x="1032" d="M55 682q1 106 63 186t167.5 121t238.5 41q96 0 208.5 -21.5t205.5 -60.5v-315q-107 56 -219.5 85.5t-179.5 29.5q-70 0 -70 -39q0 -15 9 -24t31 -15t47 -10t68 -13t83 -20q148 -42 217 -111.5t69 -183.5q-1 -110 -64.5 -191.5t-171.5 -122.5t-245 -41q-97 0 -210 21 t-206 61v316q107 -57 223 -86t187 -29q74 0 74 41q0 16 -9.5 25.5t-32.5 16t-48.5 11t-69 13.5t-82.5 20q-145 41 -214 113.5t-69 181.5z" />
<glyph unicode="t" horiz-adv-x="884" d="M27 688v320h149v252l406 69v-321h241v-320h-241v-260q0 -63 22.5 -94t77.5 -31q52 0 141 33v-309q-106 -50 -252 -50q-192 0 -297 105q-98 98 -98 317v289h-149z" />
<glyph unicode="u" horiz-adv-x="1259" d="M102 381v627h406v-574q0 -67 29 -96t75 -29q75 0 136 58v641h405v-1008h-397v82l-4 2q-134 -107 -287 -107q-154 0 -258 93q-54 50 -79.5 124t-25.5 187z" />
<glyph unicode="v" horiz-adv-x="1153" d="M-10 1008h418l86 -267q47 -143 88 -282h4q57 169 98 280l98 269h383l-405 -1008h-367z" />
<glyph unicode="w" horiz-adv-x="1679" d="M-4 1008h412l67 -230q33 -110 82 -299h4q53 216 76 299l63 230h310l63 -230q37 -132 76 -299h4q34 135 82 299l68 230h380l-342 -1008h-366l-45 162q-36 130 -84 321h-4q-40 -162 -84 -321l-45 -162h-377z" />
<glyph unicode="x" horiz-adv-x="1169" d="M-20 0l378 541l-335 467h421l66 -107q27 -43 84 -143h4q51 88 86 143l68 107h395l-338 -467l383 -541h-436l-82 133q-56 91 -101 174h-4q-68 -120 -102 -176l-80 -131h-407z" />
<glyph unicode="y" horiz-adv-x="1157" d="M-10 1008h418l178 -486h4l194 486h383l-641 -1459h-405l270 562z" />
<glyph unicode="z" horiz-adv-x="1073" d="M27 4l395 680l-2 4h-346v320h950l2 -4l-395 -680l2 -5h381v-319h-985z" />
<glyph unicode="{" horiz-adv-x="763" d="M20 406v274h66q63 0 90 29t27 100v393q0 150 103 246t296 96q82 0 152 -12v-268q-30 6 -68 6q-108 0 -108 -115v-332q0 -122 -35 -185.5t-119 -92.5v-4q84 -29 119 -92.5t35 -186.5v-332q0 -62 27.5 -88t80.5 -26q38 0 68 6v-268q-76 -13 -152 -13q-193 0 -296 96 t-103 246v393q0 71 -27.5 100.5t-89.5 29.5h-66z" />
<glyph unicode="|" horiz-adv-x="669" d="M182 -451v2089h305v-2089h-305z" />
<glyph unicode="}" horiz-adv-x="763" d="M10 -178q30 -6 68 -6q53 0 80.5 26t27.5 88v332q0 123 35 186.5t119 92.5v4q-84 29 -119 92.5t-35 185.5v332q0 115 -108 115q-38 0 -68 -6v268q70 12 152 12q193 0 296 -96t103 -246v-393q0 -71 27 -100t90 -29h65v-274h-65q-62 0 -89.5 -29.5t-27.5 -100.5v-393 q0 -150 -103 -246t-296 -96q-76 0 -152 13v268z" />
<glyph unicode="~" horiz-adv-x="1150" d="M162 539v335q81 74 203 74q98 0 229 -61q97 -46 136 -54q26 -6 52 -6q120 0 203 121l4 -2v-336q-80 -73 -203 -73q-98 0 -229 61q-48 23 -68 31.5t-54.5 18t-65.5 9.5q-120 0 -203 -120z" />
<glyph unicode="&#xa1;" horiz-adv-x="585" d="M55 -475l97 962h282l96 -962h-475zM80 819q0 88 62 149.5t151 61.5t151 -61.5t62 -149.5t-62 -149.5t-151 -61.5t-151 61.5t-62 149.5z" />
<glyph unicode="&#xa2;" horiz-adv-x="1069" d="M68 739q0 168 96 295.5t258 188.5v297h307v-254q127 -6 232 -54v-350q-136 76 -250 76q-106 0 -170 -55t-64 -142q0 -88 65 -141t171 -53q65 0 136 22t124 60v-350q-101 -52 -244 -62v-254h-307v293q-166 58 -260 187t-94 296z" />
<glyph unicode="&#xa3;" horiz-adv-x="1259" d="M129 0v291q164 68 164 231q0 34 -10 86h-154v248h76q-31 102 -31 188q0 198 147.5 329.5t389.5 131.5q123 0 236 -34.5t183 -84.5v-389q-83 62 -178.5 97.5t-173.5 35.5q-85 0 -133.5 -39.5t-48.5 -111.5q0 -48 20 -123h265v-248h-199q2 -14 2 -35q0 -64 -31.5 -124 t-89.5 -89v-4h611v-356h-1045z" />
<glyph unicode="&#xa4;" horiz-adv-x="1212" d="M35 375l168 168q-33 76 -33 174t33 174l-168 168l229 229l168 -168q84 33 174 33t174 -33l168 168l230 -229l-168 -168q32 -74 32 -174t-32 -174l168 -168l-230 -230l-168 168q-82 -32 -174 -32t-174 32l-168 -168zM457 717q0 -74 40 -122t109 -48t109.5 48t40.5 122 t-40.5 122t-109.5 48t-109 -48t-40 -122z" />
<glyph unicode="&#xa5;" horiz-adv-x="1476" d="M0 1483h487l95 -146q87 -134 163 -258h5q106 172 159 254l97 150h475l-322 -455h123v-250h-299l-31 -43v-84h330v-250h-330v-401h-422v401h-329v250h329v76l-34 51h-295v250h118z" />
<glyph unicode="&#xa6;" horiz-adv-x="669" d="M182 352h305v-803h-305v803zM182 836v802h305v-802h-305z" />
<glyph unicode="&#xa7;" horiz-adv-x="1243" d="M125 621q0 168 168 270v4q-90 97 -90 229q0 112 66.5 199.5t177.5 134.5t245 47q160 0 289 -63v-336q-66 39 -139 61.5t-129 22.5q-48 0 -78.5 -18.5t-30.5 -55.5q0 -22 12 -41.5t40 -39.5t52.5 -33.5t72.5 -38.5t77 -41q64 -35 108 -66.5t84 -74t60 -94.5t20 -114 q0 -96 -45.5 -167.5t-119.5 -110.5v-4q88 -91 88 -221q0 -117 -70 -206.5t-181 -135t-243 -45.5q-91 0 -177 21.5t-144 55.5v340q73 -49 157 -78.5t150 -29.5q53 0 79.5 20t26.5 54q0 30 -24.5 56.5t-55 43.5t-93.5 50t-105 58q-117 70 -182.5 151.5t-65.5 195.5zM504 633 q0 -24 14 -45t45 -42t56 -34.5t71 -36.5q62 30 62 78q0 18 -11.5 36t-25 31t-44.5 30.5t-49.5 27t-60.5 29.5q-57 -26 -57 -74z" />
<glyph unicode="&#xa8;" horiz-adv-x="1146" d="M162 1321q0 71 51 121.5t123 50.5t123 -50.5t51 -121.5t-51 -121.5t-123 -50.5t-123 50.5t-51 121.5zM637 1321q0 71 51 121.5t123 50.5t123 -50.5t51 -121.5t-51 -121.5t-123 -50.5t-123 50.5t-51 121.5z" />
<glyph unicode="&#xa9;" horiz-adv-x="1638" d="M37 741q0 214 102 389t281 275t399 100t399.5 -100t281.5 -275t102 -389t-102 -389t-281.5 -275t-399.5 -100t-399 100t-281 275t-102 389zM195 741q0 -175 77 -316t220 -222.5t327 -81.5t327.5 81.5t220.5 222.5t77 316q0 131 -45.5 245.5t-126 197.5t-198 130.5 t-255.5 47.5q-184 0 -327 -81.5t-220 -223t-77 -316.5zM412 750q0 183 133.5 301t333.5 118q123 0 225 -45v-247q-111 65 -213 65q-94 0 -151.5 -53t-57.5 -137t57.5 -137.5t155.5 -53.5q116 0 219 70v-248q-98 -49 -240 -49q-205 0 -333.5 118.5t-128.5 297.5z" />
<glyph unicode="&#xaa;" horiz-adv-x="792" d="M78 1022q0 96 80 154q69 53 180 53q50 0 96 -12v6q0 63 -102 63q-78 0 -187 -41v215q108 45 246 45q155 0 240 -65q82 -63 82 -189v-178q0 -21 7 -31t25 -10q15 0 31 8v-188q-50 -29 -137 -29q-94 0 -152 43h-2q-71 -45 -161 -45q-96 0 -160 43q-86 58 -86 158zM344 1042 q0 -20 15 -30.5t36 -10.5q27 0 39 7v73q-10 2 -33 2q-57 0 -57 -41z" />
<glyph unicode="&#xab;" horiz-adv-x="1234" d="M12 504l332 448h318l-330 -448l330 -449h-318zM526 504l332 448h318l-330 -448l330 -449h-318z" />
<glyph unicode="&#xac;" d="M115 604v275h1032v-641h-307v366h-725z" />
<glyph unicode="&#xad;" horiz-adv-x="686" d="M80 412v311h526v-311h-526z" />
<glyph unicode="&#xae;" horiz-adv-x="905" d="M63 1124q0 163 111.5 272t278.5 109q166 0 277.5 -109t111.5 -272t-111.5 -272t-277.5 -109q-167 0 -278.5 109t-111.5 272zM154 1124q0 -129 83 -213t216 -84t216 84t83 213q0 128 -83 212.5t-216 84.5t-216 -84.5t-83 -212.5zM293 918v413h174q70 0 117 -36t47 -99 q0 -76 -76 -115l100 -163h-143l-76 143h-18v-143h-125zM418 1147h35q51 0 51 41q0 37 -51 37h-35v-78z" />
<glyph unicode="&#xaf;" horiz-adv-x="1146" d="M240 1198v246h667v-246h-667z" />
<glyph unicode="&#xb0;" horiz-adv-x="696" d="M35 1204q0 127 89.5 214t223.5 87t224 -87t90 -214t-90 -214t-224 -87t-223.5 87t-89.5 214zM195 1204q0 -64 44 -108.5t109 -44.5t109.5 44.5t44.5 108.5t-44.5 109t-109.5 45t-109 -45t-44 -109z" />
<glyph unicode="&#xb1;" d="M158 111v274h946v-274h-946zM158 793v274h319v305h307v-305h320v-274h-320v-306h-307v306h-319z" />
<glyph unicode="&#xb2;" horiz-adv-x="792" d="M0 868l285 363q61 77 87.5 123t26.5 82q0 67 -86 67q-102 0 -235 -84v269q121 79 274 79q164 0 260.5 -82t96.5 -206q0 -133 -138 -301l-41 -50l2 -4h197v-260h-727z" />
<glyph unicode="&#xb3;" horiz-adv-x="782" d="M70 913v275q158 -82 260 -82q90 0 90 49q0 25 -26 36t-89 11h-98v207h92q61 0 85 12t24 35q0 55 -91 55q-100 0 -219 -61v256q116 61 256 61q156 0 258.5 -73.5t102.5 -184.5q0 -59 -32.5 -103.5t-88.5 -70.5v-4q135 -65 135 -203q0 -123 -111 -200.5t-268 -77.5 q-77 0 -156 18.5t-124 44.5z" />
<glyph unicode="&#xb4;" horiz-adv-x="1146" d="M344 1153l180 336h328l-246 -336h-262z" />
<glyph unicode="&#xb5;" d="M104 -451v1459h406v-574q0 -67 29 -96t75 -29q75 0 136 58v641h405v-1008h-397v82l-4 2q-128 -102 -275 -107l45 -428h-420z" />
<glyph unicode="&#xb6;" horiz-adv-x="1318" d="M68 1112q0 154 109.5 262.5t266.5 108.5h748v-1934h-305v1682h-137v-1682h-306v1192q-157 0 -266.5 108.5t-109.5 262.5z" />
<glyph unicode="&#xb7;" horiz-adv-x="663" d="M111 618q0 91 64.5 155.5t156.5 64.5t156.5 -64.5t64.5 -155.5t-64.5 -155t-156.5 -64t-156.5 64t-64.5 155z" />
<glyph unicode="&#xb8;" horiz-adv-x="1146" d="M391 -412l47 144q73 -39 133 -39q31 0 52.5 12t21.5 35q0 21 -19 37t-49.5 24t-57.5 12t-54 5l88 274l127 -29l-43 -131q83 -17 130.5 -67.5t47.5 -122.5q0 -87 -67 -141t-175 -54q-98 0 -182 41z" />
<glyph unicode="&#xb9;" horiz-adv-x="694" d="M68 1352v264l473 151v-903h-301v543z" />
<glyph unicode="&#xba;" horiz-adv-x="827" d="M31 1163q0 146 109 244t274 98t274 -98t109 -244t-109 -244t-274 -98t-274 98t-109 244zM317 1163q0 -45 27 -75.5t70 -30.5t69.5 30.5t26.5 75.5t-26.5 76t-69.5 31t-70 -31t-27 -76z" />
<glyph unicode="&#xbb;" horiz-adv-x="1234" d="M59 55l330 449l-330 448h318l332 -448l-332 -449h-318zM573 55l330 449l-330 448h318l332 -448l-332 -449h-318z" />
<glyph unicode="&#xbc;" horiz-adv-x="2070" d="M104 1090v264l474 151v-903h-302v543zM367 -27l968 1510h334l-969 -1510h-333zM1122 162l469 727h279v-520h100v-211h-100v-158h-301v158h-445zM1489 373l2 -4h78v32q0 63 6 107l-4 2q-21 -44 -64 -109z" />
<glyph unicode="&#xbd;" horiz-adv-x="2105" d="M104 1090v264l474 151v-903h-302v543zM367 -27l968 1510h334l-969 -1510h-333zM1255 4l285 363q62 79 88.5 123.5t26.5 80.5q0 68 -86 68q-103 0 -236 -84v268q123 80 275 80q164 0 260 -82.5t96 -206.5q0 -135 -137 -301l-41 -49l2 -4h197v-260h-728z" />
<glyph unicode="&#xbe;" horiz-adv-x="2166" d="M139 651v275q158 -82 260 -82q90 0 90 49q0 25 -25.5 36t-88.5 11h-99v207h93q61 0 84.5 11.5t23.5 35.5q0 55 -90 55q-100 0 -219 -61v256q116 61 256 61q156 0 258 -73.5t102 -184.5q0 -119 -120 -174v-4q135 -65 135 -203q0 -123 -111 -200.5t-268 -77.5 q-77 0 -156.5 18.5t-124.5 44.5zM463 -27l969 1510h333l-968 -1510h-334zM1219 162l469 727h278v-520h100v-211h-100v-158h-301v158h-444zM1585 373l2 -4h78v32q0 63 6 107l-4 2q-24 -50 -63 -109z" />
<glyph unicode="&#xbf;" horiz-adv-x="1011" d="M61 -49q0 164 109.5 284t267.5 150l6 139h359l43 -358q-369 0 -369 -178q0 -66 45 -109t129 -43q110 0 246 90l41 -340q-66 -37 -159.5 -60.5t-184.5 -23.5q-142 0 -263 55.5t-195.5 159.5t-74.5 234zM379 819q0 88 62 149.5t151 61.5t151 -61.5t62 -149.5t-62 -149.5 t-151 -61.5t-151 61.5t-62 149.5z" />
<glyph unicode="&#xc0;" horiz-adv-x="1624" d="M4 0l600 1483h416l600 -1483h-459l-104 303h-508l-109 -303h-436zM532 1964h328l180 -336h-262zM662 614h286l-49 142q-30 86 -90 276h-4q-47 -154 -92 -276z" />
<glyph unicode="&#xc1;" horiz-adv-x="1624" d="M4 0l600 1483h416l600 -1483h-459l-104 303h-508l-109 -303h-436zM582 1628l180 336h328l-246 -336h-262zM662 614h286l-49 142q-30 86 -90 276h-4q-47 -154 -92 -276z" />
<glyph unicode="&#xc2;" horiz-adv-x="1624" d="M4 0l600 1483h416l600 -1483h-459l-104 303h-508l-109 -303h-436zM424 1628l250 336h274l250 -336h-248l-139 170l-139 -170h-248zM662 614h286l-49 142q-30 86 -90 276h-4q-47 -154 -92 -276z" />
<glyph unicode="&#xc3;" horiz-adv-x="1624" d="M4 0l600 1483h416l600 -1483h-459l-104 303h-508l-109 -303h-436zM459 1624v254q73 88 184 88q75 0 182 -49q42 -19 56.5 -25.5t42.5 -14t53 -7.5q96 0 182 102l4 -2v-254q-73 -88 -184 -88q-75 0 -182 49q-42 19 -56.5 25.5t-42.5 14t-53 7.5q-96 0 -182 -102zM662 614 h286l-49 142q-30 86 -90 276h-4q-47 -154 -92 -276z" />
<glyph unicode="&#xc4;" horiz-adv-x="1624" d="M4 0l600 1483h416l600 -1483h-459l-104 303h-508l-109 -303h-436zM399 1796q0 71 51 121.5t123 50.5t123.5 -50.5t51.5 -121.5t-51.5 -121.5t-123.5 -50.5t-123 50.5t-51 121.5zM662 614h286l-49 142q-30 86 -90 276h-4q-47 -154 -92 -276zM874 1796q0 71 51.5 121.5 t123.5 50.5t123 -50.5t51 -121.5t-51 -121.5t-123 -50.5t-123.5 50.5t-51.5 121.5z" />
<glyph unicode="&#xc5;" horiz-adv-x="1624" d="M4 0l600 1483h416l600 -1483h-459l-104 303h-508l-109 -303h-436zM528 1837q0 115 79.5 191.5t203.5 76.5t203.5 -76.5t79.5 -191.5t-79.5 -191.5t-203.5 -76.5t-203.5 76.5t-79.5 191.5zM662 614h286l-49 142q-30 86 -90 276h-4q-47 -154 -92 -276zM700 1837 q0 -51 30.5 -84t80.5 -33t80.5 33t30.5 84t-30.5 84t-80.5 33t-80.5 -33t-30.5 -84z" />
<glyph unicode="&#xc6;" horiz-adv-x="2017" d="M-33 0l791 1483h1163v-357h-528v-188h444v-336h-444v-246h553v-356h-975v303h-422l-154 -303h-428zM707 614h264v144q0 127 4 385l-4 2q-82 -173 -185 -375z" />
<glyph unicode="&#xc7;" horiz-adv-x="1396" d="M66 739q0 162 62 304t171 243.5t264 160t334 58.5q221 0 410 -84v-413q-87 54 -192.5 88t-209.5 34q-186 0 -302 -108.5t-116 -278.5q0 -167 115 -279t311 -112q207 0 414 129v-415q-191 -89 -463 -89l-14 -45q83 -17 130.5 -67.5t47.5 -122.5q0 -87 -67 -141t-175 -54 q-98 0 -182 41l47 144q73 -39 133 -39q31 0 52.5 12t21.5 35q0 21 -19 37t-49.5 24t-57.5 12t-54 5l55 172q-302 47 -484.5 254t-182.5 495z" />
<glyph unicode="&#xc8;" horiz-adv-x="1179" d="M117 0v1483h966v-357h-544v-188h460v-336h-460v-246h569v-356h-991zM340 1964h328l180 -336h-262z" />
<glyph unicode="&#xc9;" horiz-adv-x="1179" d="M117 0v1483h966v-357h-544v-188h460v-336h-460v-246h569v-356h-991zM389 1628l180 336h328l-246 -336h-262z" />
<glyph unicode="&#xca;" horiz-adv-x="1179" d="M117 0v1483h966v-357h-544v-188h460v-336h-460v-246h569v-356h-991zM231 1628l250 336h275l250 -336h-248l-140 170l-139 -170h-248z" />
<glyph unicode="&#xcb;" horiz-adv-x="1179" d="M117 0v1483h966v-357h-544v-188h460v-336h-460v-246h569v-356h-991zM207 1796q0 71 51 121.5t123 50.5t123 -50.5t51 -121.5t-51 -121.5t-123 -50.5t-123 50.5t-51 121.5zM682 1796q0 71 51 121.5t123 50.5t123 -50.5t51 -121.5t-51 -121.5t-123 -50.5t-123 50.5 t-51 121.5z" />
<glyph unicode="&#xcc;" horiz-adv-x="655" d="M49 1964h328l180 -336h-262zM117 0v1483h422v-1483h-422z" />
<glyph unicode="&#xcd;" horiz-adv-x="655" d="M98 1628l181 336h327l-246 -336h-262zM117 0v1483h422v-1483h-422z" />
<glyph unicode="&#xce;" horiz-adv-x="655" d="M-59 1628l249 336h275l250 -336h-248l-139 170l-140 -170h-247zM117 0v1483h422v-1483h-422z" />
<glyph unicode="&#xcf;" horiz-adv-x="655" d="M-84 1796q0 71 51 121.5t123 50.5t123 -50.5t51 -121.5t-51 -121.5t-123 -50.5t-123 50.5t-51 121.5zM117 0v1483h422v-1483h-422zM391 1796q0 71 51 121.5t123 50.5t123 -50.5t51 -121.5t-51 -121.5t-123 -50.5t-123 50.5t-51 121.5z" />
<glyph unicode="&#xd0;" horiz-adv-x="1591" d="M4 616v279h152v588h426q470 0 696 -170q123 -92 188.5 -239.5t65.5 -334.5q0 -341 -211 -534q-227 -205 -731 -205h-434v616h-152zM578 356h16q188 0 288 33t152 96q76 94 76 254q0 208 -127 303q-63 48 -158.5 66t-232.5 18h-14v-231h231v-279h-231v-260z" />
<glyph unicode="&#xd1;" horiz-adv-x="1654" d="M117 0v1483h395l393 -537q122 -165 228 -317l4 2q-4 250 -4 377v475h405v-1483h-395l-393 537q-122 165 -228 317l-4 -2q4 -250 4 -377v-475h-405zM475 1624v254q73 88 184 88q76 0 183 -49q3 -2 16.5 -8t17 -7.5t15 -6.5t15.5 -6.5t13.5 -5t14.5 -4.5t14 -3.5t15 -3.5 t14 -1.5t16 -0.5q97 0 183 102l4 -2v-254q-32 -38 -80 -63t-105 -25q-75 0 -182 49q-3 2 -16.5 8t-17 7.5t-15 6.5t-15.5 6.5t-13.5 5t-14.5 4.5t-14 3.5t-15 3.5t-14 1.5t-16 0.5q-97 0 -183 -102z" />
<glyph unicode="&#xd2;" horiz-adv-x="1716" d="M66 741q0 158 61.5 299.5t167 243.5t252.5 161.5t311 59.5t311.5 -59.5t253 -161.5t167 -243.5t61.5 -299.5t-61.5 -299.5t-167 -243.5t-253 -161.5t-311.5 -59.5t-311 59.5t-252.5 161.5t-167 243.5t-61.5 299.5zM487 741q0 -162 107.5 -273.5t263.5 -111.5t263.5 111.5 t107.5 273.5t-107.5 273.5t-263.5 111.5t-263.5 -111.5t-107.5 -273.5zM580 1964h327l180 -336h-262z" />
<glyph unicode="&#xd3;" horiz-adv-x="1716" d="M66 741q0 158 61.5 299.5t167 243.5t252.5 161.5t311 59.5t311.5 -59.5t253 -161.5t167 -243.5t61.5 -299.5t-61.5 -299.5t-167 -243.5t-253 -161.5t-311.5 -59.5t-311 59.5t-252.5 161.5t-167 243.5t-61.5 299.5zM487 741q0 -162 107.5 -273.5t263.5 -111.5t263.5 111.5 t107.5 273.5t-107.5 273.5t-263.5 111.5t-263.5 -111.5t-107.5 -273.5zM629 1628l180 336h328l-246 -336h-262z" />
<glyph unicode="&#xd4;" horiz-adv-x="1716" d="M66 741q0 158 61.5 299.5t167 243.5t252.5 161.5t311 59.5t311.5 -59.5t253 -161.5t167 -243.5t61.5 -299.5t-61.5 -299.5t-167 -243.5t-253 -161.5t-311.5 -59.5t-311 59.5t-252.5 161.5t-167 243.5t-61.5 299.5zM471 1628l250 336h274l250 -336h-248l-139 170 l-139 -170h-248zM487 741q0 -162 107.5 -273.5t263.5 -111.5t263.5 111.5t107.5 273.5t-107.5 273.5t-263.5 111.5t-263.5 -111.5t-107.5 -273.5z" />
<glyph unicode="&#xd5;" horiz-adv-x="1716" d="M66 741q0 158 61.5 299.5t167 243.5t252.5 161.5t311 59.5t311.5 -59.5t253 -161.5t167 -243.5t61.5 -299.5t-61.5 -299.5t-167 -243.5t-253 -161.5t-311.5 -59.5t-311 59.5t-252.5 161.5t-167 243.5t-61.5 299.5zM487 741q0 -162 107.5 -273.5t263.5 -111.5t263.5 111.5 t107.5 273.5t-107.5 273.5t-263.5 111.5t-263.5 -111.5t-107.5 -273.5zM506 1624v254q73 88 184 88q75 0 182 -49q42 -19 56.5 -25.5t42.5 -14t53 -7.5q96 0 182 102l4 -2v-254q-73 -88 -184 -88q-75 0 -182 49q-42 19 -56.5 25.5t-42.5 14t-53 7.5q-96 0 -182 -102z" />
<glyph unicode="&#xd6;" horiz-adv-x="1716" d="M66 741q0 158 61.5 299.5t167 243.5t252.5 161.5t311 59.5t311.5 -59.5t253 -161.5t167 -243.5t61.5 -299.5t-61.5 -299.5t-167 -243.5t-253 -161.5t-311.5 -59.5t-311 59.5t-252.5 161.5t-167 243.5t-61.5 299.5zM446 1796q0 71 51.5 121.5t123.5 50.5t123 -50.5 t51 -121.5t-51 -121.5t-123 -50.5t-123.5 50.5t-51.5 121.5zM487 741q0 -162 107.5 -273.5t263.5 -111.5t263.5 111.5t107.5 273.5t-107.5 273.5t-263.5 111.5t-263.5 -111.5t-107.5 -273.5zM922 1796q0 71 51 121.5t123 50.5t123 -50.5t51 -121.5t-51 -121.5t-123 -50.5 t-123 50.5t-51 121.5z" />
<glyph unicode="&#xd7;" d="M166 481l260 260l-260 260l205 205l260 -260l260 260l205 -205l-260 -260l260 -260l-205 -205l-260 261l-260 -261z" />
<glyph unicode="&#xd8;" horiz-adv-x="1716" d="M66 741q0 158 61.5 299.5t167 243.5t252.5 161.5t311 59.5q233 0 426 -116l121 143l149 -121l-118 -141q101 -101 158 -238.5t57 -290.5q0 -158 -61.5 -299.5t-167 -243.5t-253 -161.5t-311.5 -59.5q-232 0 -426 117l-121 -143l-149 121l119 141q-101 101 -158 238 t-57 290zM487 741q0 -118 62 -215l477 559q-77 41 -168 41q-156 0 -263.5 -111.5t-107.5 -273.5zM690 397q77 -41 168 -41q156 0 263.5 111.5t107.5 273.5q0 118 -62 215z" />
<glyph unicode="&#xd9;" horiz-adv-x="1581" d="M104 702v781h422v-756q0 -204 58 -285q70 -98 215 -98q132 0 202 86q70 85 70 297v756h406v-781q0 -323 -125 -489q-84 -111 -230.5 -173.5t-330.5 -62.5q-186 0 -336 62.5t-234 179.5q-117 164 -117 483zM512 1964h328l180 -336h-262z" />
<glyph unicode="&#xda;" horiz-adv-x="1581" d="M104 702v781h422v-756q0 -204 58 -285q70 -98 215 -98q132 0 202 86q70 85 70 297v756h406v-781q0 -323 -125 -489q-84 -111 -230.5 -173.5t-330.5 -62.5q-186 0 -336 62.5t-234 179.5q-117 164 -117 483zM561 1628l180 336h328l-246 -336h-262z" />
<glyph unicode="&#xdb;" horiz-adv-x="1581" d="M104 702v781h422v-756q0 -204 58 -285q70 -98 215 -98q132 0 202 86q70 85 70 297v756h406v-781q0 -323 -125 -489q-84 -111 -230.5 -173.5t-330.5 -62.5q-186 0 -336 62.5t-234 179.5q-117 164 -117 483zM403 1628l250 336h275l250 -336h-248l-139 170l-140 -170h-248z " />
<glyph unicode="&#xdc;" horiz-adv-x="1581" d="M104 702v781h422v-756q0 -204 58 -285q70 -98 215 -98q132 0 202 86q70 85 70 297v756h406v-781q0 -323 -125 -489q-84 -111 -230.5 -173.5t-330.5 -62.5q-186 0 -336 62.5t-234 179.5q-117 164 -117 483zM379 1796q0 71 51 121.5t123 50.5t123 -50.5t51 -121.5 t-51 -121.5t-123 -50.5t-123 50.5t-51 121.5zM854 1796q0 71 51 121.5t123 50.5t123 -50.5t51 -121.5t-51 -121.5t-123 -50.5t-123 50.5t-51 121.5z" />
<glyph unicode="&#xdd;" horiz-adv-x="1509" d="M-31 1483h492l135 -209q101 -155 164 -258h4q86 139 160 254l137 213h479l-573 -811v-672h-422v664zM530 1628l181 336h327l-245 -336h-263z" />
<glyph unicode="&#xde;" horiz-adv-x="1349" d="M117 0v1483h422v-242h59q289 0 446 -78q121 -60 190 -164.5t69 -253.5q0 -261 -222 -391q-169 -100 -475 -100h-67v-254h-422zM539 573h75q138 0 191 27q76 39 76 137q0 103 -82 142q-56 26 -197 26h-63v-332z" />
<glyph unicode="&#xdf;" horiz-adv-x="1404" d="M109 0v1116q0 249 155 363q148 108 412 108q253 0 409 -100q160 -104 160 -307q0 -134 -65 -254q-107 -36 -159 -67.5t-52 -76.5q0 -14 5.5 -26t12.5 -20t24.5 -19t29.5 -17.5t40 -20t45 -22.5q45 -24 75 -42t65.5 -48t57 -61t36 -76t14.5 -98q0 -89 -37 -158.5 t-100 -111.5t-140.5 -63.5t-164.5 -21.5q-93 0 -184.5 22t-149.5 58v312q80 -45 167 -75t144 -30q31 0 49.5 16t18.5 42q0 20 -14 35t-32 23.5t-59 26t-73 33.5q-112 59 -168 132.5t-56 181.5q0 130 91 227q60 64 163 106q9 27 9 56q0 60 -47 90q-42 27 -115 27 q-78 0 -119 -35q-43 -38 -43 -142v-1083h-405z" />
<glyph unicode="&#xe0;" horiz-adv-x="1134" d="M47 283q0 78 32.5 140t86.5 101q104 76 283 76q75 0 153 -16v14q0 45 -29 74q-40 37 -135 37q-130 0 -293 -68v315q163 74 373 74q237 0 365 -98q125 -94 125 -289v-291q0 -65 51 -65q23 0 47 12v-279q-65 -38 -191 -38q-146 0 -235 67h-4q-118 -72 -262 -72 q-140 0 -238 64q-129 85 -129 242zM291 1489h327l181 -336h-262zM440 317q0 -35 26 -53t64 -18q37 0 72 14v125q-27 6 -59 6q-44 0 -73.5 -18.5t-29.5 -55.5z" />
<glyph unicode="&#xe1;" horiz-adv-x="1134" d="M47 283q0 78 32.5 140t86.5 101q104 76 283 76q75 0 153 -16v14q0 45 -29 74q-40 37 -135 37q-130 0 -293 -68v315q163 74 373 74q237 0 365 -98q125 -94 125 -289v-291q0 -65 51 -65q23 0 47 12v-279q-65 -38 -191 -38q-146 0 -235 67h-4q-118 -72 -262 -72 q-140 0 -238 64q-129 85 -129 242zM340 1153l180 336h328l-246 -336h-262zM440 317q0 -35 26 -53t64 -18q37 0 72 14v125q-27 6 -59 6q-44 0 -73.5 -18.5t-29.5 -55.5z" />
<glyph unicode="&#xe2;" horiz-adv-x="1134" d="M47 283q0 78 32.5 140t86.5 101q104 76 283 76q75 0 153 -16v14q0 45 -29 74q-40 37 -135 37q-130 0 -293 -68v315q163 74 373 74q237 0 365 -98q125 -94 125 -289v-291q0 -65 51 -65q23 0 47 12v-279q-65 -38 -191 -38q-146 0 -235 67h-4q-118 -72 -262 -72 q-140 0 -238 64q-129 85 -129 242zM182 1153l250 336h275l249 -336h-247l-140 170l-139 -170h-248zM440 317q0 -35 26 -53t64 -18q37 0 72 14v125q-27 6 -59 6q-44 0 -73.5 -18.5t-29.5 -55.5z" />
<glyph unicode="&#xe3;" horiz-adv-x="1134" d="M47 283q0 78 32.5 140t86.5 101q104 76 283 76q75 0 153 -16v14q0 45 -29 74q-40 37 -135 37q-130 0 -293 -68v315q163 74 373 74q237 0 365 -98q125 -94 125 -289v-291q0 -65 51 -65q23 0 47 12v-279q-65 -38 -191 -38q-146 0 -235 67h-4q-118 -72 -262 -72 q-140 0 -238 64q-129 85 -129 242zM217 1149v254q73 88 184 88q76 0 183 -49q3 -2 16.5 -8t17 -7.5t15 -6.5t15.5 -6.5t13.5 -5t14.5 -4.5t14 -3.5t15 -3.5t14 -1.5t16 -0.5q97 0 183 102l4 -2v-254q-32 -38 -80 -63t-105 -25q-75 0 -182 49q-42 19 -56.5 25.5t-42.5 14 t-53 7.5q-96 0 -182 -102zM440 317q0 -35 26 -53t64 -18q37 0 72 14v125q-27 6 -59 6q-44 0 -73.5 -18.5t-29.5 -55.5z" />
<glyph unicode="&#xe4;" horiz-adv-x="1134" d="M47 283q0 78 32.5 140t86.5 101q104 76 283 76q75 0 153 -16v14q0 45 -29 74q-40 37 -135 37q-130 0 -293 -68v315q163 74 373 74q237 0 365 -98q125 -94 125 -289v-291q0 -65 51 -65q23 0 47 12v-279q-65 -38 -191 -38q-146 0 -235 67h-4q-118 -72 -262 -72 q-140 0 -238 64q-129 85 -129 242zM158 1321q0 71 51 121.5t123 50.5t123 -50.5t51 -121.5t-51 -121.5t-123 -50.5t-123 50.5t-51 121.5zM440 317q0 -35 26 -53t64 -18q37 0 72 14v125q-27 6 -59 6q-44 0 -73.5 -18.5t-29.5 -55.5zM633 1321q0 71 51 121.5t123 50.5 t123 -50.5t51 -121.5t-51 -121.5t-123 -50.5t-123 50.5t-51 121.5z" />
<glyph unicode="&#xe5;" horiz-adv-x="1134" d="M47 283q0 78 32.5 140t86.5 101q104 76 283 76q75 0 153 -16v14q0 45 -29 74q-40 37 -135 37q-130 0 -293 -68v315q163 74 373 74q237 0 365 -98q125 -94 125 -289v-291q0 -65 51 -65q23 0 47 12v-279q-65 -38 -191 -38q-146 0 -235 67h-4q-118 -72 -262 -72 q-140 0 -238 64q-129 85 -129 242zM287 1362q0 115 79.5 191.5t202.5 76.5q124 0 203.5 -76.5t79.5 -191.5t-79.5 -191.5t-203.5 -76.5q-123 0 -202.5 76.5t-79.5 191.5zM440 317q0 -35 26 -53t64 -18q37 0 72 14v125q-27 6 -59 6q-44 0 -73.5 -18.5t-29.5 -55.5zM459 1362 q0 -51 30 -84t80 -33t80.5 33t30.5 84t-30.5 84t-80.5 33t-80 -33t-30 -84z" />
<glyph unicode="&#xe6;" horiz-adv-x="1695" d="M47 283q0 78 32.5 140t86.5 101q104 76 283 76q61 0 143 -14v12q0 45 -29 74q-40 37 -131 37q-128 0 -287 -68v315q159 74 365 74q230 0 344 -100h4q118 100 283 100q72 0 141 -18.5t133 -59.5t112.5 -99.5t77.5 -146t29 -192.5q0 -58 -6 -102h-622q50 -144 237 -144 q167 0 334 94v-307q-77 -36 -182 -57t-209 -21q-267 0 -428 132q-72 -72 -165 -102t-179 -30q-135 0 -236 66q-131 87 -131 240zM440 317q0 -35 25 -53t63 -18q56 0 105 39q-22 57 -29 100q-30 6 -65 6q-42 0 -70.5 -18.5t-28.5 -55.5zM997 621h273q-13 64 -51 93t-86 29 q-51 0 -87.5 -32.5t-48.5 -89.5z" />
<glyph unicode="&#xe7;" horiz-adv-x="1038" d="M49 502q0 118 49.5 218t133 167.5t194.5 105t233 37.5q167 0 285 -59v-350q-138 79 -256 79q-102 0 -165.5 -54.5t-63.5 -141.5q0 -88 64.5 -141.5t168.5 -53.5q66 0 139 23t127 61v-350q-120 -66 -309 -66l-14 -45q83 -17 130.5 -67.5t47.5 -122.5q0 -87 -67 -141 t-175 -54q-98 0 -182 41l47 144q73 -39 133 -39q31 0 52.5 12t21.5 35q0 21 -19 37t-49.5 24t-57.5 12t-54 5l53 172q-212 35 -339.5 175.5t-127.5 336.5z" />
<glyph unicode="&#xe8;" horiz-adv-x="1161" d="M49 494q0 160 77.5 284.5t201 188t268.5 63.5q96 0 184 -30.5t160.5 -91t116 -162.5t43.5 -232q0 -58 -6 -102h-633q53 -144 244 -144q165 0 337 94v-307q-79 -37 -184.5 -57.5t-208.5 -20.5q-270 0 -435 140t-165 377zM297 1489h328l180 -336h-262zM455 621h280 q-13 64 -52 93t-89 29q-54 0 -89.5 -31.5t-49.5 -90.5z" />
<glyph unicode="&#xe9;" horiz-adv-x="1161" d="M49 494q0 160 77.5 284.5t201 188t268.5 63.5q96 0 184 -30.5t160.5 -91t116 -162.5t43.5 -232q0 -58 -6 -102h-633q53 -144 244 -144q165 0 337 94v-307q-79 -37 -184.5 -57.5t-208.5 -20.5q-270 0 -435 140t-165 377zM346 1153l180 336h328l-246 -336h-262zM455 621 h280q-13 64 -52 93t-89 29q-54 0 -89.5 -31.5t-49.5 -90.5z" />
<glyph unicode="&#xea;" horiz-adv-x="1161" d="M49 494q0 160 77.5 284.5t201 188t268.5 63.5q96 0 184 -30.5t160.5 -91t116 -162.5t43.5 -232q0 -58 -6 -102h-633q53 -144 244 -144q165 0 337 94v-307q-79 -37 -184.5 -57.5t-208.5 -20.5q-270 0 -435 140t-165 377zM188 1153l250 336h275l250 -336h-248l-140 170 l-139 -170h-248zM455 621h280q-13 64 -52 93t-89 29q-54 0 -89.5 -31.5t-49.5 -90.5z" />
<glyph unicode="&#xeb;" horiz-adv-x="1161" d="M49 494q0 160 77.5 284.5t201 188t268.5 63.5q96 0 184 -30.5t160.5 -91t116 -162.5t43.5 -232q0 -58 -6 -102h-633q53 -144 244 -144q165 0 337 94v-307q-79 -37 -184.5 -57.5t-208.5 -20.5q-270 0 -435 140t-165 377zM164 1321q0 71 51 121.5t123 50.5t123 -50.5 t51 -121.5t-51 -121.5t-123 -50.5t-123 50.5t-51 121.5zM455 621h280q-13 64 -52 93t-89 29q-54 0 -89.5 -31.5t-49.5 -90.5zM639 1321q0 71 51 121.5t123 50.5t123 -50.5t51 -121.5t-51 -121.5t-123 -50.5t-123 50.5t-51 121.5z" />
<glyph unicode="&#xec;" horiz-adv-x="622" d="M33 1489h327l181 -336h-262zM109 0v1008h405v-1008h-405z" />
<glyph unicode="&#xed;" horiz-adv-x="622" d="M82 1153l180 336h328l-246 -336h-262zM109 0v1008h405v-1008h-405z" />
<glyph unicode="&#xee;" horiz-adv-x="622" d="M-76 1153l250 336h275l249 -336h-247l-140 170l-139 -170h-248zM109 0v1008h405v-1008h-405z" />
<glyph unicode="&#xef;" horiz-adv-x="622" d="M-100 1321q0 71 51 121.5t123 50.5t123 -50.5t51 -121.5t-51 -121.5t-123 -50.5t-123 50.5t-51 121.5zM109 0v1008h405v-1008h-405zM375 1321q0 71 51 121.5t123 50.5t123 -50.5t51 -121.5t-51 -121.5t-123 -50.5t-123 50.5t-51 121.5z" />
<glyph unicode="&#xf0;" horiz-adv-x="1232" d="M49 479q0 208 139 351t353 143q47 0 86 -8l2 4q-48 65 -88 100l-326 -117l-51 226l153 55q-27 16 -127 72l250 229q131 -73 254 -168l273 98l51 -225l-133 -47q144 -157 218.5 -329t74.5 -339q0 -247 -156.5 -397t-411.5 -150q-250 0 -405.5 141t-155.5 361zM451 489 q0 -79 44.5 -131.5t116.5 -52.5q73 0 114.5 51.5t41.5 132.5q0 82 -41.5 134.5t-114.5 52.5q-72 0 -116.5 -53t-44.5 -134z" />
<glyph unicode="&#xf1;" horiz-adv-x="1263" d="M109 0v1008h397v-78l4 -2q137 102 293 102q79 0 146 -26.5t112 -69.5q98 -94 98 -301v-633h-405v571q0 68 -29 97q-28 28 -78 28q-77 0 -133 -53v-643h-405zM279 1149v254q73 88 184 88q75 0 182 -49q42 -19 56.5 -25.5t42.5 -14t53 -7.5q96 0 182 102l4 -2v-254 q-73 -88 -184 -88q-76 0 -183 49q-3 2 -16.5 8t-17 7.5t-15 6.5t-15.5 6.5t-13.5 5t-14.5 4.5t-14 3.5t-15 3.5t-14 1.5t-16 0.5q-96 0 -182 -102z" />
<glyph unicode="&#xf2;" d="M49 504q0 224 165 375t417 151t416.5 -151t164.5 -375q0 -147 -74 -267.5t-207.5 -190t-299.5 -69.5t-299.5 69.5t-208 190t-74.5 267.5zM352 1489h328l180 -336h-262zM451 504q0 -80 51.5 -134.5t128.5 -54.5t128.5 54.5t51.5 134.5t-51 134t-129 54t-129 -54t-51 -134z " />
<glyph unicode="&#xf3;" d="M49 504q0 224 165 375t417 151t416.5 -151t164.5 -375q0 -147 -74 -267.5t-207.5 -190t-299.5 -69.5t-299.5 69.5t-208 190t-74.5 267.5zM401 1153l181 336h327l-245 -336h-263zM451 504q0 -80 51.5 -134.5t128.5 -54.5t128.5 54.5t51.5 134.5t-51 134t-129 54t-129 -54 t-51 -134z" />
<glyph unicode="&#xf4;" d="M49 504q0 224 165 375t417 151t416.5 -151t164.5 -375q0 -147 -74 -267.5t-207.5 -190t-299.5 -69.5t-299.5 69.5t-208 190t-74.5 267.5zM244 1153l250 336h274l250 -336h-248l-139 170l-139 -170h-248zM451 504q0 -80 51.5 -134.5t128.5 -54.5t128.5 54.5t51.5 134.5 t-51 134t-129 54t-129 -54t-51 -134z" />
<glyph unicode="&#xf5;" d="M49 504q0 224 165 375t417 151t416.5 -151t164.5 -375q0 -147 -74 -267.5t-207.5 -190t-299.5 -69.5t-299.5 69.5t-208 190t-74.5 267.5zM279 1149v254q73 88 184 88q75 0 182 -49q42 -19 56.5 -25.5t42.5 -14t53 -7.5q96 0 182 102l4 -2v-254q-73 -88 -184 -88 q-76 0 -183 49q-3 2 -16.5 8t-17 7.5t-15 6.5t-15.5 6.5t-13.5 5t-14.5 4.5t-14 3.5t-15 3.5t-14 1.5t-16 0.5q-96 0 -182 -102zM451 504q0 -80 51.5 -134.5t128.5 -54.5t128.5 54.5t51.5 134.5t-51 134t-129 54t-129 -54t-51 -134z" />
<glyph unicode="&#xf6;" d="M49 504q0 224 165 375t417 151t416.5 -151t164.5 -375q0 -147 -74 -267.5t-207.5 -190t-299.5 -69.5t-299.5 69.5t-208 190t-74.5 267.5zM219 1321q0 71 51 121.5t123 50.5t123 -50.5t51 -121.5t-51 -121.5t-123 -50.5t-123 50.5t-51 121.5zM451 504q0 -80 51.5 -134.5 t128.5 -54.5t128.5 54.5t51.5 134.5t-51 134t-129 54t-129 -54t-51 -134zM694 1321q0 71 51 121.5t123 50.5t123 -50.5t51 -121.5t-51 -121.5t-123 -50.5t-123 50.5t-51 121.5z" />
<glyph unicode="&#xf7;" d="M115 604v275h1032v-275h-1032zM436 338q0 78 56 133t135 55t134.5 -55t55.5 -133t-55.5 -133t-134.5 -55t-135 55t-56 133zM436 1145q0 78 56 133t135 55t134.5 -55t55.5 -133t-55.5 -133.5t-134.5 -55.5t-135 55.5t-56 133.5z" />
<glyph unicode="&#xf8;" d="M49 504q0 224 165 375t417 151q168 0 307 -74l92 105l100 -82l-86 -98q80 -71 124 -168.5t44 -208.5q0 -147 -74 -267.5t-207.5 -190t-299.5 -69.5q-168 0 -307 74l-93 -104l-100 82l86 98q-80 71 -124 168.5t-44 208.5zM451 504q0 -48 18 -88l229 264q-30 12 -67 12 q-78 0 -129 -54t-51 -134zM563 328q33 -13 68 -13q77 0 128.5 54.5t51.5 134.5q0 48 -18 88z" />
<glyph unicode="&#xf9;" horiz-adv-x="1259" d="M102 381v627h406v-574q0 -67 29 -96t75 -29q75 0 136 58v641h405v-1008h-397v82l-4 2q-134 -107 -287 -107q-154 0 -258 93q-54 50 -79.5 124t-25.5 187zM350 1489h328l180 -336h-262z" />
<glyph unicode="&#xfa;" horiz-adv-x="1259" d="M102 381v627h406v-574q0 -67 29 -96t75 -29q75 0 136 58v641h405v-1008h-397v82l-4 2q-134 -107 -287 -107q-154 0 -258 93q-54 50 -79.5 124t-25.5 187zM399 1153l181 336h327l-245 -336h-263z" />
<glyph unicode="&#xfb;" horiz-adv-x="1259" d="M102 381v627h406v-574q0 -67 29 -96t75 -29q75 0 136 58v641h405v-1008h-397v82l-4 2q-134 -107 -287 -107q-154 0 -258 93q-54 50 -79.5 124t-25.5 187zM242 1153l250 336h274l250 -336h-248l-139 170l-140 -170h-247z" />
<glyph unicode="&#xfc;" horiz-adv-x="1259" d="M102 381v627h406v-574q0 -67 29 -96t75 -29q75 0 136 58v641h405v-1008h-397v82l-4 2q-134 -107 -287 -107q-154 0 -258 93q-54 50 -79.5 124t-25.5 187zM217 1321q0 71 51 121.5t123 50.5t123 -50.5t51 -121.5t-51 -121.5t-123 -50.5t-123 50.5t-51 121.5zM692 1321 q0 71 51 121.5t123 50.5t123 -50.5t51 -121.5t-51 -121.5t-123 -50.5t-123 50.5t-51 121.5z" />
<glyph unicode="&#xfd;" horiz-adv-x="1157" d="M-10 1008h418l178 -486h4l194 486h383l-641 -1459h-405l270 562zM362 1153l181 336h327l-245 -336h-263z" />
<glyph unicode="&#xfe;" horiz-adv-x="1259" d="M106 -451v2016h406v-596l4 -2q94 63 221 63q92 0 176.5 -36t150.5 -100.5t105 -162.5t39 -213q0 -240 -153.5 -390.5t-388.5 -150.5q-86 0 -150 23l-4 -2v-449h-406zM512 307q40 -16 92 -16q99 0 147 60t48 151t-46.5 148t-131.5 57q-48 0 -109 -27v-373z" />
<glyph unicode="&#xff;" horiz-adv-x="1157" d="M-10 1008h418l178 -486h4l194 486h383l-641 -1459h-405l270 562zM180 1321q0 71 51 121.5t123 50.5t123 -50.5t51 -121.5t-51 -121.5t-123 -50.5t-123 50.5t-51 121.5zM655 1321q0 71 51 121.5t123 50.5t123.5 -50.5t51.5 -121.5t-51.5 -121.5t-123.5 -50.5t-123 50.5 t-51 121.5z" />
<glyph unicode="&#x152;" horiz-adv-x="1951" d="M66 741q0 169 54 306.5t156 230.5q227 205 736 205h843v-357h-528v-188h445v-336h-445v-246h553v-356h-864q-471 0 -697 170q-123 93 -188 238.5t-65 332.5zM487 743q0 -205 127 -303q54 -40 120.5 -58t170.5 -26v770q-254 -15 -344 -129q-74 -92 -74 -254z" />
<glyph unicode="&#x153;" horiz-adv-x="1910" d="M49 504q0 224 156.5 375t396.5 151q235 0 395 -153h4q131 153 355 153q72 0 141 -18.5t133 -59.5t112.5 -99.5t77.5 -146t29 -192.5q0 -58 -6 -102h-622q50 -144 237 -144q167 0 334 94v-307q-77 -36 -182 -57t-209 -21q-130 0 -234 40t-168 110h-4q-156 -150 -391 -150 q-159 0 -286.5 69.5t-198 190t-70.5 267.5zM451 504q0 -80 49.5 -134.5t124.5 -54.5q76 0 126 54.5t50 134.5t-50 134t-126 54q-75 0 -124.5 -54t-49.5 -134zM1212 621h273q-13 64 -51 93t-86 29q-51 0 -87.5 -32.5t-48.5 -89.5z" />
<glyph unicode="&#x178;" horiz-adv-x="1509" d="M-31 1483h492l135 -209q101 -155 164 -258h4q86 139 160 254l137 213h479l-573 -811v-672h-422v664zM348 1796q0 71 51 121.5t123 50.5t123 -50.5t51 -121.5t-51 -121.5t-123 -50.5t-123 50.5t-51 121.5zM823 1796q0 71 51 121.5t123 50.5t123 -50.5t51 -121.5 t-51 -121.5t-123 -50.5t-123 50.5t-51 121.5z" />
<glyph unicode="&#x2c6;" horiz-adv-x="1146" d="M186 1153l250 336h275l250 -336h-248l-140 170l-139 -170h-248z" />
<glyph unicode="&#x2dc;" horiz-adv-x="1146" d="M221 1149v254q32 38 80 63t105 25q75 0 182 -49q3 -2 16.5 -8t17 -7.5t15 -6.5t15.5 -6.5t13.5 -5t14.5 -4.5t14 -3.5t15 -3.5t14 -1.5t16 -0.5q97 0 183 102l4 -2v-254q-32 -38 -80 -63t-105 -25q-75 0 -182 49q-3 2 -16.5 8t-17 7.5t-15 6.5t-15.5 6.5t-13.5 5 t-14.5 4.5t-14 3.5t-15 3.5t-14 1.5t-16 0.5q-97 0 -183 -102z" />
<glyph unicode="&#x2000;" horiz-adv-x="1052" />
<glyph unicode="&#x2001;" horiz-adv-x="2105" />
<glyph unicode="&#x2002;" horiz-adv-x="1052" />
<glyph unicode="&#x2003;" horiz-adv-x="2105" />
<glyph unicode="&#x2004;" horiz-adv-x="701" />
<glyph unicode="&#x2005;" horiz-adv-x="526" />
<glyph unicode="&#x2006;" horiz-adv-x="350" />
<glyph unicode="&#x2007;" horiz-adv-x="350" />
<glyph unicode="&#x2008;" horiz-adv-x="263" />
<glyph unicode="&#x2009;" horiz-adv-x="421" />
<glyph unicode="&#x200a;" horiz-adv-x="116" />
<glyph unicode="&#x2010;" horiz-adv-x="686" d="M80 412v311h526v-311h-526z" />
<glyph unicode="&#x2011;" horiz-adv-x="686" d="M80 412v311h526v-311h-526z" />
<glyph unicode="&#x2012;" horiz-adv-x="686" d="M80 412v311h526v-311h-526z" />
<glyph unicode="&#x2013;" horiz-adv-x="1003" d="M92 428v283h819v-283h-819z" />
<glyph unicode="&#x2014;" horiz-adv-x="1613" d="M61 453v233h1491v-233h-1491z" />
<glyph unicode="&#x2018;" horiz-adv-x="550" d="M31 926l207 594h247l-123 -594h-331z" />
<glyph unicode="&#x2019;" horiz-adv-x="550" d="M66 926l122 594h332l-207 -594h-247z" />
<glyph unicode="&#x201a;" horiz-adv-x="550" d="M66 -258l122 594h332l-207 -594h-247z" />
<glyph unicode="&#x201c;" horiz-adv-x="966" d="M31 926l207 594h247l-123 -594h-331zM446 926l207 594h248l-123 -594h-332z" />
<glyph unicode="&#x201d;" horiz-adv-x="966" d="M66 926l122 594h332l-207 -594h-247zM481 926l123 594h332l-207 -594h-248z" />
<glyph unicode="&#x201e;" horiz-adv-x="966" d="M66 -258l122 594h332l-207 -594h-247zM481 -258l123 594h332l-207 -594h-248z" />
<glyph unicode="&#x2022;" horiz-adv-x="770" d="M109 608q0 116 80.5 196.5t195.5 80.5t196 -80.5t81 -196.5q0 -115 -80.5 -195.5t-196.5 -80.5q-115 0 -195.5 80t-80.5 196z" />
<glyph unicode="&#x2026;" horiz-adv-x="1880" d="M111 197q0 91 64.5 155t156.5 64t156.5 -64t64.5 -155t-64.5 -155.5t-156.5 -64.5t-156.5 64.5t-64.5 155.5zM719 197q0 91 64.5 155t156.5 64t156.5 -64t64.5 -155t-64.5 -155.5t-156.5 -64.5t-156.5 64.5t-64.5 155.5zM1327 197q0 91 64.5 155t156.5 64t156.5 -64 t64.5 -155t-64.5 -155.5t-156.5 -64.5t-156.5 64.5t-64.5 155.5z" />
<glyph unicode="&#x202f;" horiz-adv-x="421" />
<glyph unicode="&#x2039;" horiz-adv-x="720" d="M12 504l332 448h318l-330 -448l330 -449h-318z" />
<glyph unicode="&#x203a;" horiz-adv-x="720" d="M59 55l330 449l-330 448h318l332 -448l-332 -449h-318z" />
<glyph unicode="&#x205f;" horiz-adv-x="526" />
<glyph unicode="&#x20ac;" horiz-adv-x="1284" d="M33 449v249h121q-3 44 0 88h-121v250h168q77 217 262 343t448 126q156 0 281 -43v-387q-135 64 -260 64q-163 0 -256 -103h250v-250h-342q-3 -44 0 -88h342v-249h-248q91 -105 262 -105q132 0 268 68v-389q-131 -46 -288 -46q-271 0 -457 127t-262 345h-168z" />
<glyph unicode="&#x2122;" horiz-adv-x="1368" d="M49 1309v174h514v-174h-157v-420h-199v420h-158zM633 889v594h184l137 -189l133 189h187v-594h-197v125q0 78 4 164l-4 2q-49 -78 -80 -119l-47 -66l-47 66q-31 41 -80 119l-4 -2q4 -86 4 -164v-125h-190z" />
<glyph unicode="&#x25fc;" horiz-adv-x="1003" d="M0 0v1004h1004v-1004h-1004z" />
</font>
</defs>
</svg>
