<?xml version="1.0" encoding="utf-8"?>
<!-- Generator: Adobe Illustrator 15.0.0, SVG Export Plug-In . SVG Version: 6.00 Build 0)  -->
<!DOCTYPE svg PUBLIC "-//W3C//DTD SVG 1.1//EN" "http://www.w3.org/Graphics/SVG/1.1/DTD/svg11.dtd">
<svg version="1.1" xmlns="http://www.w3.org/2000/svg" xmlns:xlink="http://www.w3.org/1999/xlink" x="0px" y="0px"
 width="12px" height="12px" viewBox="0 0 12 12" enable-background="new 0 0 12 12" xml:space="preserve">
<path fill-rule="evenodd" clip-rule="evenodd" fill="#F26968" d="M11.695,2L7.581,6.113l4.114,4.114l0,0
	C11.884,10.415,12,10.675,12,10.961C12,11.535,11.535,12,10.961,12c-0.287,0-0.547-0.116-0.734-0.303l0,0L6.112,7.582l-4.114,4.115
	l0,0C1.81,11.884,1.55,12,1.263,12c-0.574,0-1.039-0.465-1.039-1.039c0-0.286,0.117-0.546,0.305-0.733l0,0l4.114-4.114L0.529,2l0,0
	C0.341,1.811,0.224,1.551,0.224,1.264c0-0.574,0.465-1.039,1.039-1.039c0.287,0,0.547,0.116,0.735,0.305l0,0l4.114,4.114
	l4.114-4.114l0,0c0.188-0.189,0.447-0.305,0.734-0.305C11.535,0.225,12,0.69,12,1.264C12,1.551,11.884,1.811,11.695,2L11.695,2z"/>
</svg>
