<?xml version="1.0" encoding="utf-8"?>
<!-- Generator: Adobe Illustrator 18.1.1, SVG Export Plug-In . SVG Version: 6.00 Build 0)  -->
<svg version="1.1" id="be_1_" xmlns="http://www.w3.org/2000/svg" xmlns:xlink="http://www.w3.org/1999/xlink" x="0px" y="0px"
	 viewBox="0 0 43 43" enable-background="new 0 0 43 43" xml:space="preserve">
<path fill="#4F5567" d="M19.2,27.6c0.5-0.1,1-0.3,1.3-0.6c0.3-0.2,0.6-0.6,0.8-0.9c0.3-0.5,0.5-1.1,0.5-1.8c0,0,0-0.1,0-0.1
	c0-0.7-0.2-1.3-0.5-1.7c-0.3-0.5-0.8-0.8-1.3-1c0.4-0.2,0.7-0.4,0.9-0.7c0.4-0.4,0.6-1,0.6-1.7c0-0.3,0-0.6-0.1-0.9
	c-0.1-0.3-0.2-0.6-0.4-0.9c-0.6-0.8-1.6-1.2-3-1.3h-5.7v11.8h5.3C18.2,27.8,18.7,27.7,19.2,27.6z M15,18.1h2.2c0.4,0,0.7,0,1,0.1
	c0.1,0,0.3,0.1,0.4,0.1c0.4,0.2,0.7,0.5,0.7,1.1c0,0.5-0.2,0.8-0.5,1c-0.3,0.2-0.7,0.3-1.2,0.3H15V18.1z M15,25.8v-3.1h2.5
	c0.5,0,0.9,0.1,1.2,0.2c0.5,0.2,0.7,0.7,0.7,1.3c0,0.1,0,0.2,0,0.2c0,0.6-0.3,1-0.8,1.2c-0.3,0.1-0.7,0.2-1.2,0.2H15z M29.3,17.7
	h-4.7v-1.2h4.7V17.7z M30.4,20.4c-0.4-0.6-0.9-1-1.4-1.2c-0.6-0.3-1.2-0.4-2-0.4c-1.2,0-2.2,0.4-3,1.2c-0.8,0.8-1.2,1.9-1.2,3.4
	c0,0.4,0,0.7,0.1,1c0.2,1,0.6,1.8,1.2,2.4c0.9,0.7,1.8,1,3,1c1.4,0,2.4-0.4,3.2-1.2c0.5-0.5,0.8-1,0.8-1.5h-2.2
	c-0.1,0.3-0.3,0.4-0.5,0.6c-0.3,0.3-0.7,0.4-1.2,0.4c-0.5,0-0.9-0.1-1.2-0.3c-0.4-0.3-0.7-0.7-0.8-1.3c0-0.1,0-0.3,0-0.5h6.1
	c0-0.8,0-1.3-0.1-1.7C31,21.5,30.8,20.9,30.4,20.4z M25.1,22.4c0.1-0.6,0.3-1,0.6-1.3c0.3-0.3,0.7-0.5,1.3-0.5c0.5,0,1,0.2,1.3,0.5
	c0.3,0.3,0.5,0.7,0.6,1.3H25.1z"/>
</svg>
