<?xml version="1.0" encoding="utf-8"?>
<!-- Generator: Adobe Illustrator 18.1.1, SVG Export Plug-In . SVG Version: 6.00 Build 0)  -->
<svg version="1.1" id="dri_1_" xmlns="http://www.w3.org/2000/svg" xmlns:xlink="http://www.w3.org/1999/xlink" x="0px" y="0px"
	 viewBox="0 0 43 43" enable-background="new 0 0 43 43" xml:space="preserve">
<path fill="#4F5567" d="M21.5,12.2c-5.2,0-9.4,4.2-9.4,9.4c0,5.2,4.2,9.4,9.4,9.4c5.2,0,9.4-4.2,9.4-9.4
	C30.9,16.4,26.7,12.2,21.5,12.2z M27.3,17.1c0.9,1.2,1.5,2.6,1.6,4.2c-1.1-0.2-2.1-0.3-3-0.3v0h0c-0.8,0-1.5,0.1-2.1,0.2
	c-0.2-0.4-0.3-0.8-0.5-1.1C24.7,19.4,26.1,18.4,27.3,17.1z M21.5,14.3c1.7,0,3.3,0.6,4.6,1.6c-1,1.2-2.2,2-3.6,2.6
	c-1-1.9-1.9-3.2-2.5-4C20.4,14.4,20.9,14.3,21.5,14.3z M18.2,15.1c0.5,0.6,1.5,1.9,2.6,4c-2.2,0.7-4.5,0.8-5.8,0.8c0,0-0.1,0-0.1,0
	h0c-0.2,0-0.4,0-0.6,0C14.9,17.8,16.3,16,18.2,15.1z M14.1,21.7c0,0,0-0.1,0-0.1c0.2,0,0.5,0,0.8,0h0c1.5,0,4.1-0.1,6.7-1
	c0.1,0.3,0.3,0.6,0.4,1c-1.7,0.6-3.1,1.5-4.1,2.4c-1,0.9-1.6,1.8-2,2.4C14.8,25.1,14.1,23.5,14.1,21.7z M21.5,29
	c-1.6,0-3.1-0.5-4.4-1.5c0.3-0.4,0.8-1.3,1.7-2.1c0.9-0.9,2.2-1.8,3.8-2.3c0.6,1.6,1.1,3.4,1.5,5.4C23.3,28.8,22.4,29,21.5,29z
	 M25.6,27.7c-0.4-1.8-0.8-3.5-1.4-4.9c0.5-0.1,1-0.1,1.5-0.1h0h0h0c0.9,0,1.8,0.1,2.9,0.3C28.3,24.9,27.2,26.6,25.6,27.7z"/>
</svg>
