<?xml version="1.0" encoding="utf-8"?>
<!-- Generator: Adobe Illustrator 15.0.0, SVG Export Plug-In . SVG Version: 6.00 Build 0)  -->
<!DOCTYPE svg PUBLIC "-//W3C//DTD SVG 1.1//EN" "http://www.w3.org/Graphics/SVG/1.1/DTD/svg11.dtd">
<svg version="1.1" id="Layer_1" xmlns="http://www.w3.org/2000/svg" xmlns:xlink="http://www.w3.org/1999/xlink" x="0px" y="0px"
	 width="19px" height="13px" viewBox="0 0 19 13" enable-background="new 0 0 19 13" xml:space="preserve">
<path fill-rule="evenodd" clip-rule="evenodd" fill="transparent" d="M18.615,2.543L18.615,2.543L8.543,12.616l0,0
	C8.305,12.853,7.977,13,7.614,13s-0.691-0.147-0.929-0.384l0,0L0.991,6.922l0,0C0.753,6.686,0.606,6.356,0.606,5.993
	c0-0.725,0.588-1.314,1.314-1.314c0.363,0,0.691,0.146,0.929,0.386l0,0l4.764,4.765l9.144-9.145l0,0
	C16.995,0.446,17.324,0.3,17.687,0.3C18.412,0.3,19,0.888,19,1.614C19,1.977,18.854,2.306,18.615,2.543z"/>
</svg>
