<?xml version="1.0" encoding="utf-8"?>
<!-- Generator: Adobe Illustrator 18.1.1, SVG Export Plug-In . SVG Version: 6.00 Build 0)  -->
<svg version="1.1" id="fl_1_" xmlns="http://www.w3.org/2000/svg" xmlns:xlink="http://www.w3.org/1999/xlink" x="0px" y="0px"
	 viewBox="0 0 43 43" enable-background="new 0 0 43 43" xml:space="preserve">
<path fill-rule="evenodd" clip-rule="evenodd" fill="#4F5567" d="M23,20c0.2-0.3,0.4-0.6,0.7-0.9c0.8-0.8,1.8-1.2,3-1.2
	c1.2,0,2.2,0.4,3,1.2c0.3,0.3,0.5,0.6,0.7,0.9c0.3,0.6,0.5,1.3,0.5,2c0,1.1-0.4,2.1-1.2,2.9c-0.8,0.8-1.8,1.2-3,1.2
	c-1.2,0-2.2-0.4-3-1.2c-0.8-0.8-1.2-1.8-1.2-2.9C22.4,21.3,22.6,20.6,23,20z M13.2,19.1c-0.3,0.3-0.5,0.6-0.7,0.9
	c-0.4,0.6-0.5,1.3-0.5,2c0,0.8,0.2,1.4,0.5,2c0.2,0.3,0.4,0.6,0.7,0.9c0.8,0.8,1.8,1.2,3,1.2c0.5,0,1-0.1,1.4-0.2
	c0.6-0.2,1.1-0.5,1.6-1c0.8-0.8,1.2-1.8,1.2-2.9c0-0.7-0.2-1.4-0.5-2c-0.2-0.3-0.4-0.6-0.7-0.9c-0.5-0.5-1-0.8-1.6-1
	c-0.4-0.2-0.9-0.2-1.4-0.2C15.1,17.9,14.1,18.3,13.2,19.1z"/>
</svg>
