<?xml version="1.0" encoding="utf-8"?>
<!-- Generator: Adobe Illustrator 18.1.1, SVG Export Plug-In . SVG Version: 6.00 Build 0)  -->
<svg version="1.1" id="git_1_" xmlns="http://www.w3.org/2000/svg" xmlns:xlink="http://www.w3.org/1999/xlink" x="0px" y="0px"
	 viewBox="0 0 43 43" enable-background="new 0 0 43 43" xml:space="preserve">
<path fill-rule="evenodd" clip-rule="evenodd" fill="#4F5567" d="M28.5,17.5c0.2,1.1,0.1,2.2-0.2,3.3c0.2,0,0.5,0,0.9,0.1v0
	c-0.1,0-0.2,0-0.3,0c-0.3,0-0.4,0-0.5,0.1c-0.2,0.1-0.3,0.2-0.2,0.4c0.4,0,0.7,0.1,1.1,0.1v0.1c-0.4,0-0.7-0.1-1.1-0.1
	c-0.8,1.5-2.3,2.3-4.6,2.5c0,0,0.2,0.3,0.4,0.7c0.2,0.3,0.3,0.6,0.4,0.9c0,0.3,0,1,0,2.1c0,0.9,0,1.5,0.2,1.8
	c0.1,0.1,0.2,0.3,0.4,0.4c0.2,0.1,0.3,0.3,0.4,0.4c-0.3,0.3-0.6,0.3-1.1,0.1c-0.5-0.2-0.8-0.5-0.9-0.9c-0.1-0.3-0.1-0.9,0-2
	c0.1-0.9-0.1-1.4-0.3-1.7c0,0.2,0,0.9-0.1,2.1c0,0.9,0,1.6,0.1,2c0,0.1,0.1,0.3,0.3,0.5c0.1,0.2,0.2,0.3,0.1,0.5
	c-1,0.1-1.6-0.5-1.7-1.8c0-1.7,0-2.9-0.2-3.6c-0.2,0-0.2,0.1-0.2,0.3c0,0.1,0,0.3,0,0.5c0,1.9,0,2.9-0.1,3.1
	c-0.2,1.1-0.7,1.5-1.7,1.4c0-0.2,0-0.3,0.1-0.5c0.2-0.2,0.3-0.4,0.3-0.5c0.1-0.4,0.2-1.1,0.1-2c-0.1-1.1-0.1-1.8,0-2.2
	c-0.3,0.2-0.4,0.8-0.3,1.8c0.1,1.1,0.1,1.8-0.1,2.2c-0.1,0.3-0.4,0.6-0.8,0.7c-0.4,0.1-0.8,0.1-1.1,0c0-0.2,0.2-0.3,0.4-0.5
	c0.2-0.1,0.4-0.3,0.4-0.4c0.1-0.2,0.2-0.6,0.1-1.1c0-0.7,0-1.2,0-1.4c-0.8,0.1-1.4,0.1-2,0c-0.6-0.2-1-0.5-1.3-1
	c-0.1-0.1-0.2-0.4-0.3-0.7c-0.1-0.3-0.2-0.5-0.3-0.7c-0.1-0.1-0.2-0.2-0.5-0.4c-0.2-0.1-0.3-0.2-0.4-0.4v-0.2
	c0.7-0.1,1.3,0.1,1.8,0.8c0.7,0.8,1.2,1.2,1.8,1.2c0.2,0,0.4,0,0.7-0.1c0.1,0,0.3-0.1,0.6-0.2c0.1-0.6,0.4-1.1,0.8-1.4
	c-1.1-0.2-2.1-0.4-2.8-0.8c-0.8-0.4-1.5-1-1.9-1.8c-0.4,0-0.7,0-1,0.1v-0.1c0.3,0,0.7,0,1-0.1c-0.1-0.3-0.3-0.5-0.7-0.5
	c0,0-0.1,0-0.3,0v0c0.2,0,0.5,0,0.7,0c-0.3-1-0.4-2-0.2-3.1c0.2-1.2,0.5-2.1,1.1-2.6c-0.2-0.4-0.2-1-0.2-1.6c0-0.6,0.2-1.1,0.4-1.4
	c0.6,0,1.2,0.2,1.7,0.4c0.3,0.1,0.7,0.4,1.3,0.8c1.1-0.3,2.3-0.5,3.6-0.4c0.2,0,0.5,0.1,0.9,0.2c0.4,0.1,0.6,0.1,0.8,0.1
	c0.2,0,0.4-0.1,0.7-0.3c0.4-0.2,0.6-0.4,0.7-0.4c0.5-0.2,1.1-0.4,1.7-0.4c0.2,0.4,0.3,0.9,0.3,1.3c0.1,0.6,0,1-0.1,1.5
	C27.9,15.6,28.3,16.4,28.5,17.5z"/>
</svg>
