<?xml version="1.0" encoding="utf-8"?>
<!-- Generator: Adobe Illustrator 18.1.1, SVG Export Plug-In . SVG Version: 6.00 Build 0)  -->
<svg version="1.1" id="g_1_" xmlns="http://www.w3.org/2000/svg" xmlns:xlink="http://www.w3.org/1999/xlink" x="0px" y="0px"
	 viewBox="0 0 43 43" enable-background="new 0 0 43 43" xml:space="preserve">
<path fill="#4F5567" d="M30.6,20.2v0.8c0,0.2-0.2,0.4-0.4,0.4h-2.8v3c0,0.2-0.2,0.4-0.4,0.4h-0.8c-0.2,0-0.4-0.2-0.4-0.4v-3H23
	c-0.2,0-0.4-0.2-0.4-0.4v-0.8c0-0.2,0.2-0.4,0.4-0.4h2.8v-3c0-0.2,0.2-0.4,0.4-0.4H27c0.2,0,0.4,0.2,0.4,0.4v3h2.8
	C30.5,19.8,30.6,20,30.6,20.2z M22.6,26.2c0,1.8-1.3,3.3-3.3,3.9c-0.6,0.2-1.3,0.3-2,0.3c-0.8,0-1.6-0.1-2.3-0.3
	c-1.4-0.4-2.4-1.1-2.9-2c-0.2-0.4-0.3-0.8-0.3-1.2c0-0.4,0.1-0.9,0.3-1.3c0.8-1.7,2.8-2.8,5-2.8c0,0,0,0,0.1,0
	c-0.2-0.3-0.3-0.7-0.3-1c0-0.2,0-0.4,0.1-0.6c-2.3-0.1-4.1-1.8-4.1-4.2c0-1.7,1.3-3.3,3.1-3.9c0.5-0.2,1.1-0.3,1.7-0.3h5
	c0.2,0,0.3,0.1,0.4,0.3c0.1,0.2,0,0.4-0.1,0.5l-1.1,0.8c-0.1,0.1-0.1,0.1-0.2,0.1h-0.4c0.5,0.6,0.8,1.6,0.8,2.6
	c0,1.1-0.6,2.2-1.6,3.1c-0.8,0.6-0.8,0.8-0.8,1.2c0,0.2,0.6,0.8,1.2,1.3C22.1,23.5,22.6,24.5,22.6,26.2z M17.3,28.7
	c2.2,0,3.2-0.8,3.2-2.3c0-0.1,0-0.3-0.1-0.4c-0.1-0.6-0.7-1-1.5-1.5c-0.1-0.1-0.2-0.2-0.3-0.2C18.3,24,18,24,17.6,24l0,0
	c-1.7,0-3.2,1.1-3.2,2.3C14.4,27.6,15.6,28.7,17.3,28.7z M15.4,16.8c0.2,1.5,1.3,2.9,2.4,2.9h0c0,0,0,0,0,0c0.4,0,0.8-0.2,1-0.5
	c0.4-0.5,0.6-1.3,0.5-2.2c-0.2-1.5-1.3-2.8-2.4-2.9l0,0c-0.4,0-0.7,0.2-1,0.5C15.5,15.2,15.3,16,15.4,16.8z"/>
</svg>
