<?xml version="1.0" encoding="utf-8"?>
<!-- Generator: Adobe Illustrator 18.1.1, SVG Export Plug-In . SVG Version: 6.00 Build 0)  -->
<svg version="1.1" id="ins_1_" xmlns="http://www.w3.org/2000/svg" xmlns:xlink="http://www.w3.org/1999/xlink" x="0px" y="0px"
	 viewBox="0 0 43 43" enable-background="new 0 0 43 43" xml:space="preserve">
<path fill="#4F5567" d="M27.7,12.5H16.2c-2,0-3.6,1.6-3.6,3.6V20v7.7c0,2,1.6,3.6,3.6,3.6h11.6c2,0,3.6-1.6,3.6-3.6V20v-3.9
	C31.4,14.1,29.8,12.5,27.7,12.5z M28.8,14.6l0.4,0V15v2.8l-3.2,0l0-3.2L28.8,14.6z M19.3,20c0.6-0.8,1.6-1.4,2.7-1.4
	c1.1,0,2.1,0.5,2.7,1.4c0.4,0.5,0.6,1.2,0.6,1.9c0,1.8-1.5,3.3-3.3,3.3c-1.8,0-3.3-1.5-3.3-3.3C18.6,21.2,18.9,20.5,19.3,20z
	 M29.6,27.7c0,1-0.8,1.8-1.8,1.8H16.2c-1,0-1.8-0.8-1.8-1.8V20h2.8c-0.2,0.6-0.4,1.3-0.4,1.9c0,2.8,2.3,5.2,5.2,5.2
	c2.8,0,5.2-2.3,5.2-5.2c0-0.7-0.1-1.3-0.4-1.9h2.8V27.7z"/>
</svg>
