<?xml version="1.0" encoding="utf-8"?>
<!-- Generator: Adobe Illustrator 18.1.1, SVG Export Plug-In . SVG Version: 6.00 Build 0)  -->
<svg version="1.1" id="link_1_" xmlns="http://www.w3.org/2000/svg" xmlns:xlink="http://www.w3.org/1999/xlink" x="0px" y="0px"
	 viewBox="0 0 43 43" enable-background="new 0 0 43 43" xml:space="preserve">
<path fill="#4F5567" d="M31.4,23.5v7.3h-4V24c0-1.7-0.6-2.9-2-2.9c-1.1,0-1.8,0.8-2.1,1.5c-0.1,0.3-0.1,0.7-0.1,1v7.1h-4
	c0,0,0.1-11.5,0-12.7h4v1.8c0,0,0,0,0,0h0v0c0.5-0.9,1.5-2.1,3.6-2.1C29.4,17.8,31.4,19.6,31.4,23.5z M14.8,12
	c-1.4,0-2.3,0.9-2.3,2.2c0,1.2,0.9,2.2,2.2,2.2h0c1.4,0,2.3-1,2.3-2.2C17.1,12.9,16.2,12,14.8,12z M12.8,30.8h4V18.1h-4V30.8z"/>
</svg>
