<?xml version="1.0" encoding="utf-8"?>
<!-- Generator: Adobe Illustrator 18.1.1, SVG Export Plug-In . SVG Version: 6.00 Build 0)  -->
<svg version="1.1" id="pin_1_" xmlns="http://www.w3.org/2000/svg" xmlns:xlink="http://www.w3.org/1999/xlink" x="0px" y="0px"
	 viewBox="0 0 43 43" enable-background="new 0 0 43 43" xml:space="preserve">
<path fill="#4F5567" d="M21.9,11.7c-5,0-7.5,3.7-7.5,6.8c0,1.9,0.7,3.5,2.2,4.1c0.2,0.1,0.5,0,0.5-0.3c0-0.2,0.2-0.7,0.2-0.9
	c0.1-0.3,0-0.4-0.2-0.6c-0.4-0.5-0.7-1.2-0.7-2.1c0-2.7,2-5.2,5.2-5.2c2.8,0,4.4,1.8,4.4,4.1c0,3.1-1.3,5.8-3.3,5.8
	c-1.1,0-1.9-0.9-1.7-2.1c0.3-1.4,0.9-2.8,0.9-3.8c0-0.9-0.5-1.6-1.4-1.6c-1.1,0-2,1.2-2,2.8c0,1,0.3,1.7,0.3,1.7s-1.1,5-1.4,5.9
	c-0.4,1.7-0.1,3.9,0,4.1c0,0.1,0.2,0.2,0.2,0.1c0.1-0.1,1.4-1.8,1.9-3.5c0.1-0.5,0.7-3,0.7-3c0.4,0.7,1.4,1.3,2.6,1.3
	c3.4,0,5.7-3.2,5.7-7.4C28.5,14.7,25.9,11.7,21.9,11.7z"/>
</svg>
