<?xml version="1.0" encoding="utf-8"?>
<!-- Generator: Adobe Illustrator 18.1.1, SVG Export Plug-In . SVG Version: 6.00 Build 0)  -->
<svg version="1.1" id="pin_1_" xmlns="http://www.w3.org/2000/svg" xmlns:xlink="http://www.w3.org/1999/xlink" x="0px" y="0px"
	 viewBox="0 0 43 43" enable-background="new 0 0 43 43" xml:space="preserve">
<path fill-rule="evenodd" clip-rule="evenodd" fill="#4F5567" d="M12,18.6c1.7,0,3.3,0.3,4.9,1c1.5,0.6,2.8,1.5,3.9,2.7
	c1.2,1.1,2.1,2.5,2.7,4c0.6,1.5,1,3.1,1,4.8h-3.6v0c0-1.2-0.2-2.3-0.7-3.4c-0.4-1.1-1.1-2-1.9-2.9c-0.8-0.8-1.8-1.5-2.9-1.9
	c-1.1-0.4-2.2-0.7-3.4-0.7V18.6z M30.9,31.1c0-2.6-0.5-5-1.5-7.3c-1-2.3-2.3-4.3-4-6c-1.7-1.7-3.7-3.1-6-4.1c-1.5-0.6-3-1-4.5-1.3
	c-0.9-0.1-1.9-0.2-2.8-0.2v3.6c2.1,0,4,0.4,5.9,1.2c1.8,0.8,3.4,1.9,4.9,3.3c1.4,1.4,2.5,3,3.3,4.9c0.8,1.9,1.2,3.9,1.2,5.9H30.9z
	 M12.8,26.8c-0.5,0.5-0.7,1.1-0.7,1.8c0,0.7,0.2,1.3,0.7,1.8c0.5,0.5,1.1,0.7,1.8,0.7c0.7,0,1.3-0.2,1.8-0.7
	c0.5-0.5,0.7-1.1,0.7-1.8c0-0.7-0.2-1.3-0.7-1.8c-0.5-0.5-1.1-0.7-1.8-0.7C13.8,26.1,13.2,26.3,12.8,26.8z"/>
</svg>
