<?xml version="1.0" encoding="utf-8"?>
<!-- Generator: Adobe Illustrator 18.1.1, SVG Export Plug-In . SVG Version: 6.00 Build 0)  -->
<svg width="13" height="13"  version="1.1" id="Shape_74_copy_1_" xmlns="http://www.w3.org/2000/svg" xmlns:xlink="http://www.w3.org/1999/xlink" x="0px"
	 y="0px" viewBox="0 0 13 14" enable-background="new 0 0 13 14" xml:space="preserve">
<g id="Shape_74_copy">
	<g>
		<path fill="#535A6D" d="M10.5,9C10,9,9.6,9.1,9.2,9.4L5,7.1c0-0.3-0.2-0.6-0.3-0.9l4.3-1.8C9.4,4.8,9.9,5,10.5,5
			C11.9,5,13,3.9,13,2.5S11.9,0,10.5,0S8,1.1,8,2.5c0,0.4,0.1,0.8,0.3,1.1L4,5.5C3.5,5.2,3,5,2.5,5C1.1,5,0,6.1,0,7.5S1.1,10,2.5,10
			c1.1,0,2.1-0.8,2.4-1.8l3.5,1.9C8.2,10.5,8,11,8,11.5c0,1.4,1.1,2.5,2.5,2.5s2.5-1.1,2.5-2.5S11.9,9,10.5,9z"/>
	</g>
</g>
</svg>
