<?xml version="1.0" encoding="utf-8"?>
<!-- Generator: Adobe Illustrator 18.1.1, SVG Export Plug-In . SVG Version: 6.00 Build 0)  -->
<svg version="1.1" id="tum_1_" xmlns="http://www.w3.org/2000/svg" xmlns:xlink="http://www.w3.org/1999/xlink" x="0px" y="0px"
	 viewBox="0 0 43 43" enable-background="new 0 0 43 43" xml:space="preserve">
<path fill="#4F5567" d="M24.5,27.8c1,0,1.9-0.3,2.8-0.9v3c-0.8,0.4-1.5,0.6-2.2,0.8c-0.7,0.2-1.4,0.2-2.1,0.2c-0.9,0-1.4-0.1-2-0.3
	c-0.7-0.2-1.2-0.5-1.7-0.9c-0.5-0.4-0.8-0.8-1-1.3c-0.2-0.5-0.3-1.1-0.3-2v-6.6h-2.6V17c0.7-0.2,1.6-0.6,2.1-1
	c0.5-0.5,0.9-1,1.3-1.6c0.3-0.6,0.5-1.4,0.7-2.4h2.7v4.4h4.3v3.4h-4.3v4.8c0,1.1,0,1.7,0.1,2c0.1,0.3,0.4,0.6,0.7,0.8
	C23.5,27.6,24,27.8,24.5,27.8z"/>
</svg>
