<?xml version="1.0" encoding="utf-8"?>
<!-- Generator: Adobe Illustrator 18.1.1, SVG Export Plug-In . SVG Version: 6.00 Build 0)  -->
<svg version="1.1" id="vime_1_" xmlns="http://www.w3.org/2000/svg" xmlns:xlink="http://www.w3.org/1999/xlink" x="0px" y="0px"
	 viewBox="0 0 43 43" enable-background="new 0 0 43 43" xml:space="preserve">
<path fill-rule="evenodd" clip-rule="evenodd" fill="#4F5567" d="M12.9,19.3L12,18.1l2.7-2.5c1.2-1.1,2.2-1.7,2.8-1.7
	c1.5-0.1,2.4,0.9,2.7,3c0.4,2.4,0.6,3.8,0.8,4.4c0.4,1.9,0.9,2.9,1.4,2.9c0.4,0,1-0.6,1.8-1.9c0.8-1.2,1.2-2.2,1.3-2.9
	c0.1-1.1-0.3-1.6-1.3-1.6c-0.5,0-0.9,0.1-1.4,0.3c0.9-3,2.7-4.5,5.3-4.4c1.9,0.1,2.9,1.3,2.8,3.8c-0.1,1.9-1.4,4.4-3.8,7.6
	c-2.6,3.4-4.7,5-6.5,5c-1.1,0-2-1-2.8-3.1l-1.5-5.6c-0.6-2-1.2-3.1-1.8-3.1C14.3,18.4,13.8,18.7,12.9,19.3z"/>
</svg>
